<?xml version="1.0" encoding="UTF-8"?>
<svg version="1.1" xmlns="http://www.w3.org/2000/svg" width="408" height="612">
<path d="M0 0 C0 0.66 0 1.32 0 2 C0.55042969 2.0825 1.10085937 2.165 1.66796875 2.25 C9.39308139 4.73445833 15.81287078 12.42133565 20.3671875 18.859375 C24.34213942 24.20495285 24.34213942 24.20495285 30.31854248 26.66438293 C31.59368713 26.68208237 32.86883179 26.6997818 34.18261719 26.71801758 C34.89783791 26.73402449 35.61305862 26.75003139 36.3499527 26.76652336 C38.74922927 26.8129407 41.14718713 26.82284972 43.546875 26.83203125 C45.27482268 26.85620357 47.00274898 26.88194712 48.73065186 26.90913391 C62.97009113 27.10033351 77.21330576 26.98294804 91.453125 26.88671875 C92.54296188 26.87951939 93.63279877 26.87232002 94.75566101 26.8649025 C98.08971838 26.84245794 101.42376618 26.81894913 104.7578125 26.79492188 C105.86472694 26.78704588 106.97164139 26.77916988 108.11209869 26.77105522 C113.78493033 26.7285683 119.45735103 26.67476454 125.12988281 26.60229492 C130.75106482 26.53143994 136.37179099 26.49096591 141.99337006 26.46967506 C144.09341027 26.45629115 146.19341637 26.43222269 148.29319 26.39618492 C160.73008175 26.18781119 171.15879062 27.25798756 182.86395264 31.60920715 C190.00217906 34.2117431 197.60456634 34.23270384 205.125 34.5625 C206.07568359 34.60568359 207.02636719 34.64886719 208.00585938 34.69335938 C215.77655623 35.01522256 223.52886851 35.03418518 231.3046875 34.98071289 C237.38362221 34.9539647 243.3562774 35.25666809 249.4140625 35.7890625 C252.9556127 35.99738898 256.431894 35.98027801 259.97607422 35.91748047 C268.43589669 35.77509228 276.61051125 36.23261925 285 37.375 C286.40668945 37.56425049 286.40668945 37.56425049 287.84179688 37.75732422 C291.97811055 38.3659185 295.30489968 38.96454559 299 41 C299.07414321 45.92957259 299.12859817 50.85882081 299.16479492 55.78881836 C299.17988384 57.4659592 299.20035748 59.14306057 299.22631836 60.82006836 C299.26269811 63.23040504 299.27972486 65.64022019 299.29296875 68.05078125 C299.30845261 68.80087967 299.32393646 69.55097809 299.33988953 70.32380676 C299.34156635 75.50762021 299.34156635 75.50762021 297.6574707 77.93530273 C295.22305161 79.49908262 292.80501901 80.07624543 290 80.75 C288.4221875 81.14445312 288.4221875 81.14445312 286.8125 81.546875 C284 82 284 82 281 81 C278.35060961 80.87920712 275.72833997 80.8118922 273.078125 80.796875 C272.29991394 80.79117493 271.52170288 80.78547485 270.71990967 80.77960205 C269.07240149 80.77015944 267.42487448 80.763621 265.77734375 80.75976562 C263.27309588 80.75008924 260.76967929 80.719072 258.265625 80.6875 C256.66146318 80.68096647 255.05729552 80.67571737 253.453125 80.671875 C252.71120911 80.6595282 251.96929321 80.6471814 251.20489502 80.63446045 C246.06753604 80.65615919 242.61547435 81.74160706 238 84 C237.05125 84.33 236.1025 84.66 235.125 85 C234.42375 85.33 233.7225 85.66 233 86 C232.67 86.99 232.34 87.98 232 89 C224.5697622 94.0040377 217.04151113 95.24238281 208.25 95.5625 C203.07319249 95.68357274 203.07319249 95.68357274 197.98461914 96.50439453 C194.17376728 97.4560527 190.08744009 97.28496464 186.16601562 97.34179688 C181.41911437 97.52957678 177.5088109 98.48873051 173.00708008 100 C161.33106125 103.39595277 148.96670599 102.59199656 136.9242115 102.57457328 C133.39581297 102.57397201 129.8675622 102.59679122 126.3392334 102.61714172 C119.66397613 102.65235222 112.98882708 102.66853013 106.31348753 102.6769169 C96.54936708 102.68989229 86.78534057 102.72849855 77.0213089 102.77101612 C76.29914043 102.77415481 75.57697196 102.77729349 74.8329196 102.78052729 C73.39078734 102.78681194 71.94865534 102.79315564 70.50652361 102.79955989 C66.33293362 102.81740922 62.15939481 102.82852028 57.985771 102.83400571 C34.25770778 101.12481285 34.25770778 101.12481285 12.8125 108.3125 C11.78769531 109.09238281 10.76289062 109.87226563 9.70703125 110.67578125 C7.00868605 112.90128612 7.00868605 112.90128612 4.88671875 115.29296875 C3 117 3 117 -1 117 C-1 117.66 -1 118.32 -1 119 C-17.7975216 128.505293 -40.43431415 127.7426669 -58.6875 122.9140625 C-61.19510394 121.92288121 -62.9999766 120.80557668 -65 119 C-65 118.34 -65 117.68 -65 117 C-65.68191406 116.94714844 -66.36382812 116.89429688 -67.06640625 116.83984375 C-71.1758471 115.66337267 -73.75146254 113.34175484 -76.9375 110.5625 C-77.56140625 110.02189941 -78.1853125 109.48129883 -78.828125 108.92431641 C-83.77998954 104.48718515 -87.01543047 99.94071459 -90 94 C-91.0494508 92.22140225 -92.11200824 90.45047318 -93.1875 88.6875 C-94.125 87.125 -95.0625 85.5625 -96 84 C-96.77114136 82.89809326 -96.77114136 82.89809326 -97.55786133 81.77392578 C-100.35338857 76.39678333 -99.53929946 70.13044247 -99.5 64.1875 C-99.49823761 63.48747864 -99.49647522 62.78745728 -99.49465942 62.06622314 C-99.43388702 51.29203351 -98.64819718 41.87887522 -94 32 C-93.72172363 31.40574219 -93.44344727 30.81148437 -93.15673828 30.19921875 C-88.92278317 21.33756256 -84.22260382 14.61494386 -76.6484375 8.39453125 C-74.98806919 7.05250952 -74.98806919 7.05250952 -73.6640625 5.5234375 C-71.34931929 3.40430639 -68.80558977 2.20498022 -66 0.8125 C-64.948125 0.28269531 -63.89625 -0.24710938 -62.8125 -0.79296875 C-60 -2 -60 -2 -57 -2 C-57 -2.66 -57 -3.32 -57 -4 C-40.39825007 -10.38528843 -15.08032338 -9.10378969 0 0 Z " fill="#F8F9F9" transform="translate(109,22)"/>
<path d="M0 0 C0 0.66 0 1.32 0 2 C0.55042969 2.0825 1.10085937 2.165 1.66796875 2.25 C9.39308139 4.73445833 15.81287078 12.42133565 20.3671875 18.859375 C24.33741059 24.20230395 24.33741059 24.20230395 30.30763245 26.65843201 C31.57840134 26.67374466 32.84917023 26.68905731 34.15844727 26.70483398 C34.87186468 26.71983255 35.5852821 26.73483112 36.32031822 26.75028419 C38.7151574 26.79388006 41.10870055 26.80144993 43.50390625 26.80859375 C45.22882967 26.83127767 46.95373001 26.85577739 48.67860413 26.88194275 C53.43577617 26.94540043 58.19250325 26.97312935 62.95005035 26.98946381 C66.04882009 27.00016865 69.14753356 27.01592058 72.24627686 27.03253174 C86.66355009 27.10435629 101.08030407 27.09736176 115.49768066 27.06866455 C121.3324343 27.058208 127.16719271 27.05382048 133.00195312 27.04882812 C144.33464736 27.03828433 155.6673213 27.02134962 167 27 C167 27.66 167 28.32 167 29 C120.47 29 73.94 29 26 29 C27.32 32.63 28.64 36.26 30 40 C35.92902623 62.21032049 29.76716169 79.38043643 20 100 C68.84 100 117.68 100 168 100 C164.14366571 101.92816714 162.82183123 102.25305248 158.72257996 102.27174377 C157.65333282 102.2814621 156.58408569 102.29118042 155.48243713 102.30119324 C154.31413864 102.30178238 153.14584015 102.30237152 151.94213867 102.30297852 C150.70743835 102.31141785 149.47273804 102.31985718 148.20062256 102.32855225 C145.5154267 102.34550481 142.83049702 102.35886669 140.14528465 102.36609077 C135.88554278 102.37761055 131.6259529 102.40308919 127.36628723 102.43040466 C120.61278218 102.47206874 113.85926959 102.50446098 107.10569698 102.53287882 C95.05503893 102.58370334 83.00444911 102.64660173 70.9538973 102.71821922 C66.73433437 102.7428875 62.5147887 102.76228608 58.29518259 102.77774906 C34.40878777 101.09637426 34.40878777 101.09637426 12.8125 108.3125 C11.78769531 109.09238281 10.76289062 109.87226563 9.70703125 110.67578125 C7.00868605 112.90128612 7.00868605 112.90128612 4.88671875 115.29296875 C3 117 3 117 -1 117 C-1 117.66 -1 118.32 -1 119 C-17.7975216 128.505293 -40.43431415 127.7426669 -58.6875 122.9140625 C-61.19510394 121.92288121 -62.9999766 120.80557668 -65 119 C-65 118.34 -65 117.68 -65 117 C-65.68191406 116.94714844 -66.36382812 116.89429688 -67.06640625 116.83984375 C-71.1758471 115.66337267 -73.75146254 113.34175484 -76.9375 110.5625 C-77.56140625 110.02189941 -78.1853125 109.48129883 -78.828125 108.92431641 C-83.77998954 104.48718515 -87.01543047 99.94071459 -90 94 C-91.0494508 92.22140225 -92.11200824 90.45047318 -93.1875 88.6875 C-94.125 87.125 -95.0625 85.5625 -96 84 C-96.77114136 82.89809326 -96.77114136 82.89809326 -97.55786133 81.77392578 C-100.35338857 76.39678333 -99.53929946 70.13044247 -99.5 64.1875 C-99.49823761 63.48747864 -99.49647522 62.78745728 -99.49465942 62.06622314 C-99.43388702 51.29203351 -98.64819718 41.87887522 -94 32 C-93.72172363 31.40574219 -93.44344727 30.81148437 -93.15673828 30.19921875 C-88.92278317 21.33756256 -84.22260382 14.61494386 -76.6484375 8.39453125 C-74.98806919 7.05250952 -74.98806919 7.05250952 -73.6640625 5.5234375 C-71.34931929 3.40430639 -68.80558977 2.20498022 -66 0.8125 C-64.948125 0.28269531 -63.89625 -0.24710938 -62.8125 -0.79296875 C-60 -2 -60 -2 -57 -2 C-57 -2.66 -57 -3.32 -57 -4 C-40.39825007 -10.38528843 -15.08032338 -9.10378969 0 0 Z " fill="#113C5F" transform="translate(109,22)"/>
<path d="M0 0 C1.32 0 2.64 0 4 0 C4.00515625 0.59167969 4.0103125 1.18335938 4.015625 1.79296875 C4.28882424 4.58415437 4.69083406 6.50413849 6 9 C8.87296507 10.66774288 11.76283 11.67396592 14.890625 12.78515625 C22.85757511 15.89787168 27.43860823 21.9126318 30.921875 29.55859375 C33.70470777 38.44147661 33.31311563 47.21742591 29.375 55.6875 C26.7786072 60.16109698 24.5338185 63.44972709 20 66 C16.625 65.8125 16.625 65.8125 14 65 C14.99 68.3 15.98 71.6 17 75 C14.1709277 72.1709277 13.62388892 71.61855575 13 68 C6.41274818 66.55378618 6.41274818 66.55378618 0.15625 68.046875 C-1.36489223 69.55055966 -1.36489223 69.55055966 -3 72 C-2.278125 71.46375 -1.55625 70.9275 -0.8125 70.375 C2 69 2 69 4.6875 69.625 C7 71 7 71 9 74 C8.15695313 73.49339844 8.15695313 73.49339844 7.296875 72.9765625 C4.60273356 71.8310942 3.11961767 71.9529974 0.25 72.375 C-0.54921875 72.48585938 -1.3484375 72.59671875 -2.171875 72.7109375 C-2.77515625 72.80632812 -3.3784375 72.90171875 -4 73 C-3.67 71.35 -3.34 69.7 -3 68 C-4.65 68 -6.3 68 -8 68 C-8.28875 69.134375 -8.5775 70.26875 -8.875 71.4375 C-9.431875 73.2009375 -9.431875 73.2009375 -10 75 C-10.99 75.495 -10.99 75.495 -12 76 C-11.32829194 72.1936543 -10.27253436 68.64793184 -9 65 C-10.3303125 65.4021875 -10.3303125 65.4021875 -11.6875 65.8125 C-15 66 -15 66 -17.5625 64 C-25.94174712 53.68708047 -28.07484539 45.26090502 -27 32 C-26.15972644 28.85374842 -24.95994378 26.58301233 -23 24 C-22.54109375 23.37738281 -22.0821875 22.75476563 -21.609375 22.11328125 C-16.03724297 15.11878921 -9.21890928 12.0536659 -1 9 C-0.67 6.03 -0.34 3.06 0 0 Z " fill="#DCE7DF" transform="translate(74,35)"/>
<path d="M0 0 C4.29 0 8.58 0 13 0 C13 4.62 13 9.24 13 14 C16.09375 13.87625 16.09375 13.87625 19.25 13.75 C22.92910675 13.60283573 25.19117918 13.53575 28.40234375 15.37890625 C30.90868561 19.49077761 30.46172772 23.47522029 30.3125 28.1875 C30.29799805 29.5787207 30.29799805 29.5787207 30.28320312 30.99804688 C30.16822452 37.83177548 30.16822452 37.83177548 29 39 C24.99779347 39.14355117 21.00558317 39.04216403 17 39 C17 32.4 17 25.8 17 19 C16.34 18.67 15.68 18.34 15 18 C15.495 19.485 15.495 19.485 16 21 C16.06970052 23.39490986 16.08448003 25.79167691 16.0625 28.1875 C16.05347656 29.45980469 16.04445312 30.73210937 16.03515625 32.04296875 C16.02355469 33.01878906 16.01195312 33.99460938 16 35 C13.69 35 11.38 35 9 35 C9.33 36.32 9.66 37.64 10 39 C7.69 39 5.38 39 3 39 C3.33 37.68 3.66 36.36 4 35 C1.36 35 -1.28 35 -4 35 C-4 36.32 -4 37.64 -4 39 C-5.97909398 39.02686553 -7.95828971 39.04633375 -9.9375 39.0625 C-11.03964844 39.07410156 -12.14179687 39.08570313 -13.27734375 39.09765625 C-16 39 -16 39 -17 38 C-17.3061105 34.7383399 -17.2783694 31.46176264 -17.3125 28.1875 C-17.35600586 26.81368164 -17.35600586 26.81368164 -17.40039062 25.41210938 C-17.46337298 18.7602036 -17.46337298 18.7602036 -15.40234375 15.37890625 C-10.65120475 12.65182972 -5.32076907 13.78716924 0 14 C0 9.38 0 4.76 0 0 Z " fill="#92A8B8" transform="translate(70,54)"/>
<path d="M0 0 C5.28 0 10.56 0 16 0 C16 1.65 16 3.3 16 5 C12.7 5 9.4 5 6 5 C6 6.98 6 8.96 6 11 C8.97 11 11.94 11 15 11 C15 12.65 15 14.3 15 16 C12.36 16 9.72 16 7 16 C7 17.65 7 19.3 7 21 C10.3 21 13.6 21 17 21 C17.33 22.32 17.66 23.64 18 25 C18.99 23.35 19.98 21.7 21 20 C21.99 20.33 22.98 20.66 24 21 C26.33299825 21.03954234 28.66708189 21.04401732 31 21 C31.33 19.68 31.66 18.36 32 17 C31.46375 16.896875 30.9275 16.79375 30.375 16.6875 C26.39311006 15.53484765 22.94070775 13.94070775 20 11 C19.67381712 7.47722489 19.48696092 4.9613091 21.17578125 1.796875 C23 0 23 0 25.59375 -0.4609375 C26.5528125 -0.43257813 27.511875 -0.40421875 28.5 -0.375 C29.4590625 -0.36210938 30.418125 -0.34921875 31.40625 -0.3359375 C34 0 34 0 37 2 C36.67 3.32 36.34 4.64 36 6 C32.7 5.67 29.4 5.34 26 5 C26.33 6.32 26.66 7.64 27 9 C29.01315996 10.20838632 29.01315996 10.20838632 31.4375 11 C35.72212838 12.54054054 35.72212838 12.54054054 37.28515625 15.125 C37.52105469 15.74375 37.75695312 16.3625 38 17 C38.66 17 39.32 17 40 17 C40 11.39 40 5.78 40 0 C42.64 0 45.28 0 48 0 C48.495 3.96 48.495 3.96 49 8 C49.36351562 7.4225 49.72703125 6.845 50.1015625 6.25 C51.62698908 3.99706228 53.10048075 1.95085761 55 0 C58.375 -0.5 58.375 -0.5 61 0 C59.46096383 3.49780948 57.30911521 6.26475861 54.92578125 9.21875 C53.81972927 10.95723546 53.81972927 10.95723546 54.171875 12.95703125 C55.13980109 15.34488665 56.36948544 17.14409716 57.9375 19.1875 C58.46214844 19.88230469 58.98679687 20.57710937 59.52734375 21.29296875 C60.90736063 23.11414303 60.90736063 23.11414303 63 24 C63 25.32 63 26.64 63 28 C61.39796533 28.36368892 59.79325797 28.71561952 58.1875 29.0625 C57.29417969 29.25972656 56.40085937 29.45695312 55.48046875 29.66015625 C53 30 53 30 50 29 C47.60126772 28.85902634 45.19910719 28.77416345 42.796875 28.71875 C42.08202942 28.70034058 41.36718384 28.68193115 40.63067627 28.66296387 C38.33720041 28.6043021 36.04364428 28.55162388 33.75 28.5 C1.75941307 27.75941307 1.75941307 27.75941307 0 26 C-0.08748207 24.07332493 -0.10697334 22.14348139 -0.09765625 20.21484375 C-0.09443359 19.04501953 -0.09121094 17.87519531 -0.08789062 16.66992188 C-0.07951172 15.43822266 -0.07113281 14.20652344 -0.0625 12.9375 C-0.05798828 11.70193359 -0.05347656 10.46636719 -0.04882812 9.19335938 C-0.03699618 6.12888587 -0.01906008 3.06443707 0 0 Z " fill="#BEC7D0" transform="translate(340,74)"/>
<path d="M0 0 C1.38594529 0.00031696 2.77191535 0.01163319 4.15771484 0.03173828 C4.88735443 0.03456818 5.61699402 0.03739807 6.3687439 0.04031372 C8.70221262 0.05152076 11.03529937 0.07662568 13.36865234 0.10205078 C14.94937597 0.11207993 16.53010561 0.1212059 18.11083984 0.12939453 C21.98859149 0.15146173 25.86605712 0.18599463 29.74365234 0.22705078 C29.74365234 1.87705078 29.74365234 3.52705078 29.74365234 5.22705078 C26.11365234 5.22705078 22.48365234 5.22705078 18.74365234 5.22705078 C18.74365234 7.20705078 18.74365234 9.18705078 18.74365234 11.22705078 C21.71365234 11.22705078 24.68365234 11.22705078 27.74365234 11.22705078 C27.74365234 12.54705078 27.74365234 13.86705078 27.74365234 15.22705078 C24.77365234 15.22705078 21.80365234 15.22705078 18.74365234 15.22705078 C18.74365234 17.53705078 18.74365234 19.84705078 18.74365234 22.22705078 C22.37365234 22.22705078 26.00365234 22.22705078 29.74365234 22.22705078 C29.74365234 23.87705078 29.74365234 25.52705078 29.74365234 27.22705078 C23.41031901 27.22705078 17.07698568 27.22705078 10.74365234 27.22705078 C9.85935547 27.25025391 8.97505859 27.27345703 8.06396484 27.29736328 C7.00951172 27.31541016 5.95505859 27.33345703 4.86865234 27.35205078 C3.81935547 27.37525391 2.77005859 27.39845703 1.68896484 27.42236328 C-2.69908791 27.13137835 -4.54700812 25.99550195 -7.50634766 22.78955078 C-9.92330506 17.86931608 -10.07330658 13.61737778 -9.25634766 8.22705078 C-7.40935339 3.86848956 -4.84636247 0.33791551 0 0 Z " fill="#E9EDEF" transform="translate(273.25634765625,73.77294921875)"/>
<path d="M0 0 C0.66 0 1.32 0 2 0 C2.66 1.65 3.32 3.3 4 5 C10.26169346 6.18683723 10.26169346 6.18683723 16 4 C16.99 4.33 17.98 4.66 19 5 C19 5.66 19 6.32 19 7 C19.66 7 20.32 7 21 7 C21.103125 8.093125 21.20625 9.18625 21.3125 10.3125 C21.74272492 13.83930332 21.74272492 13.83930332 23.1875 15.9375 C25.08135738 17.26020806 25.08135738 17.26020806 28 16.9375 C31 17 31 17 32.875 18.6875 C34.16185671 21.33270547 34.24213848 23.09433826 34 26 C33.34 26 32.68 26 32 26 C32.495 30.95 32.495 30.95 33 36 C34.65 36.33 36.3 36.66 38 37 C38 39.64 38 42.28 38 45 C35.525 45.495 35.525 45.495 33 46 C32.972807 47.58323688 32.95351694 49.16661062 32.9375 50.75 C32.92589844 51.63171875 32.91429687 52.5134375 32.90234375 53.421875 C32.90412081 55.95576548 32.90412081 55.95576548 33.5703125 58.15625 C34 60 34 60 32.9375 62.75 C31.9784375 63.86375 31.9784375 63.86375 31 65 C29.00045254 65.04254356 26.99958364 65.04080783 25 65 C22.5 66.5 22.5 66.5 21 69 C21.020625 70.010625 21.04125 71.02125 21.0625 72.0625 C21.041875 73.031875 21.02125 74.00125 21 75 C18.61107499 76.88599343 17.08148442 78 14 78 C14 77.34 14 76.68 14 76 C12.906875 76.226875 11.81375 76.45375 10.6875 76.6875 C7 77 7 77 5.3125 75.8125 C4.879375 75.214375 4.44625 74.61625 4 74 C3.278125 73.278125 2.55625 72.55625 1.8125 71.8125 C1.214375 71.214375 0.61625 70.61625 0 70 C-3.465 70.99 -3.465 70.99 -7 72 C-5.63016497 68.83884224 -5.0109362 68.0072908 -2 66 C-0.0625 65.98828125 -0.0625 65.98828125 2 66.3125 C2.680625 66.41175781 3.36125 66.51101562 4.0625 66.61328125 C6 67 6 67 9 68 C9.66 68.99 10.32 69.98 11 71 C10.67 69.02 10.34 67.04 10 65 C13 64 13 64 17 64 C23.11244924 59.29811597 26.47363877 52.80629876 27.5234375 45.21484375 C28.08407463 36.07248557 26.57334847 28.5268933 21 21 C16.13408689 15.89310833 10.73742408 13.13880609 4.06640625 11.01953125 C1.47090141 9.73895136 0.93424421 8.70173324 0 6 C-0.125 2.75 -0.125 2.75 0 0 Z " fill="#3A7E48" transform="translate(78,35)"/>
<path d="M0 0 C0.66 0 1.32 0 2 0 C2.05399736 1.45792884 2.09279177 2.91642712 2.125 4.375 C2.14820313 5.18710937 2.17140625 5.99921875 2.1953125 6.8359375 C2 9 2 9 0 11 C-1.71437302 11.62547606 -3.44664583 12.20253138 -5.1875 12.75 C-14.54324035 16.08871519 -18.73886277 21.19599745 -23 30 C-23.33 30.66 -23.66 31.32 -24 32 C-24.84766092 44.02010975 -24.0462316 52.51694133 -16 62 C-16 62.66 -16 63.32 -16 64 C-13.03 64.33 -10.06 64.66 -7 65 C-7.59104765 69.84659077 -8.97944157 73.60748167 -11 78 C-15.75 77.125 -15.75 77.125 -18 76 C-18.22781583 73.98220262 -18.45478048 71.96429152 -18.671875 69.9453125 C-18.8966136 67.90045643 -18.8966136 67.90045643 -20.1875 66 C-22.08523097 64.74103487 -22.08523097 64.74103487 -24.9375 65.1875 C-25.948125 65.125625 -26.95875 65.06375 -28 65 C-30.375 62 -30.375 62 -32 59 C-31.67 58.505 -31.34 58.01 -31 57.5 C-29.56363642 53.90909106 -29.87148538 50.85543873 -30 47 C-31.65 46.67 -33.3 46.34 -35 46 C-35 42.7 -35 39.4 -35 36 C-33.35 36 -31.7 36 -30 36 C-29.83518536 30.05388764 -29.83518536 30.05388764 -30.625 24.1875 C-31.09081885 21.47022338 -30.44283782 20.29156595 -29 18 C-28.0925 18.0825 -27.185 18.165 -26.25 18.25 C-22.98143482 18.26224847 -22.98143482 18.26224847 -20.625 16.4375 C-18.66203158 13.99407073 -18.66203158 13.99407073 -19.0625 10.4375 C-19.041875 9.303125 -19.02125 8.16875 -19 7 C-16.15739513 4.61835808 -14.71594733 4 -11 4 C-10.67 4.66 -10.34 5.32 -10 6 C-7.03 6 -4.06 6 -1 6 C-1.020625 5.195625 -1.04125 4.39125 -1.0625 3.5625 C-1 1 -1 1 0 0 Z " fill="#295881" transform="translate(72,35)"/>
<path d="M0 0 C-1 3 -1 3 -3.3125 4.75 C-7.87137994 8.56673669 -10.11551254 13.10341696 -11 19 C-11.0902161 21.01924851 -11.13011064 23.04124362 -11.125 25.0625 C-11.12757812 26.08472656 -11.13015625 27.10695313 -11.1328125 28.16015625 C-11.01793538 30.61649932 -10.70775041 32.65768316 -10 35 C-10.05800781 33.96101563 -10.11601563 32.92203125 -10.17578125 31.8515625 C-10.51600563 23.23943889 -10.50822448 16.12007818 -5 9 C2.57645693 0.8977747 2.57645693 0.8977747 8 0 C8 0.66 8 1.32 8 2 C12.95 2 17.9 2 23 2 C23.33 1.34 23.66 0.68 24 0 C30.26752152 3.45190906 35.72760222 7.45520445 39 14 C39.039992 15.99960012 39.04346799 18.00047242 39 20 C38.47921875 19.68289062 37.9584375 19.36578125 37.421875 19.0390625 C34.32591291 17.71079489 31.60595879 17.57635753 28.25 17.375 C26.1875 17.25125 24.125 17.1275 22 17 C22 12.38 22 7.76 22 3 C17.71 3 13.42 3 9 3 C9 7.62 9 12.24 9 17 C5.71223958 17.16276042 2.42447917 17.32552083 -0.86328125 17.48828125 C-4.25988702 18.04239751 -4.99597607 18.33290168 -7 21 C-7.41179762 23.21973943 -7.41179762 23.21973943 -7.29296875 25.66796875 C-7.28330078 26.56064453 -7.27363281 27.45332031 -7.26367188 28.37304688 C-7.2259668 29.76620117 -7.2259668 29.76620117 -7.1875 31.1875 C-7.17396484 32.12787109 -7.16042969 33.06824219 -7.14648438 34.03710938 C-7.11113603 36.35831735 -7.05732915 38.67923088 -7 41 C-3.04 41.33 0.92 41.66 5 42 C5.33 40.68 5.66 39.36 6 38 C7.9375 38.8125 7.9375 38.8125 10 40 C10.33 40.99 10.66 41.98 11 43 C5.72 43 0.44 43 -5 43 C-3.35 44.65 -1.7 46.3 0 48 C0 48.66 0 49.32 0 50 C-4.34756677 48.65307742 -6.15908645 47.00000661 -8.6875 43.25 C-9.26886719 42.40953125 -9.85023437 41.5690625 -10.44921875 40.703125 C-14.99290234 32.7831526 -15.66987226 22.25253306 -13.3125 13.42578125 C-10.98870732 8.49740427 -6.02265584 0 0 0 Z " fill="#E3EBEB" transform="translate(61,51)"/>
<path d="M0 0 C15.40722422 0 15.40722422 0 19.65625 3.75390625 C22.62999504 8.72455567 22.01280652 14.48953297 21 20 C18.02741218 24.4164162 16.0407656 24.98369376 11 27 C7.37 27 3.74 27 0 27 C0 18.09 0 9.18 0 0 Z " fill="#44607D" transform="translate(315,74)"/>
<path d="M0 0 C13.18059972 -0.4927327 13.18059972 -0.4927327 16.9296875 1.76171875 C19 4 19 4 19.55859375 6.03515625 C19.33381412 9.79840226 19.1272776 11.8090836 17 15 C17.27644925 17.69538019 17.85101274 19.70202548 19.0625 22.125 C20 24 20 24 20 27 C18.02 27 16.04 27 14 27 C13.32845067 25.71086513 12.66291141 24.41859796 12 23.125 C11.62875 22.40570313 11.2575 21.68640625 10.875 20.9453125 C10 19 10 19 10 17 C8.68 17 7.36 17 6 17 C6 20.3 6 23.6 6 27 C4.02 27 2.04 27 0 27 C0 18.09 0 9.18 0 0 Z " fill="#053059" transform="translate(207,74)"/>
<path d="M0 0 C1.98 0 3.96 0 6 0 C6 4.62 6 9.24 6 14 C9.09375 13.87625 9.09375 13.87625 12.25 13.75 C15.92910675 13.60283573 18.19117918 13.53575 21.40234375 15.37890625 C23.90868561 19.49077761 23.46172772 23.47522029 23.3125 28.1875 C23.30283203 29.11498047 23.29316406 30.04246094 23.28320312 30.99804688 C23.16822452 37.83177548 23.16822452 37.83177548 22 39 C19.98035801 39.07244053 17.95832876 39.08377188 15.9375 39.0625 C14.28041016 39.04896484 14.28041016 39.04896484 12.58984375 39.03515625 C11.73519531 39.02355469 10.88054687 39.01195312 10 39 C10.04713135 38.42556152 10.0942627 37.85112305 10.14282227 37.25927734 C11.47364311 26.26169677 11.47364311 26.26169677 7.99609375 16.40625 C5.70911118 15.00328104 3.47498867 14.01160251 1 13 C1 12.34 1 11.68 1 11 C0.34 10.67 -0.32 10.34 -1 10 C-0.01 9.34 0.98 8.68 2 8 C2.25015873 4.41642759 2.25015873 4.41642759 2 1 C1.34 0.67 0.68 0.34 0 0 Z " fill="#698094" transform="translate(77,54)"/>
<path d="M0 0 C0.33 0.66 0.66 1.32 1 2 C49.84 2 98.68 2 149 2 C145.15060658 3.92469671 143.83841991 4.25299462 139.74949646 4.27174377 C138.15429672 4.28632126 138.15429672 4.28632126 136.52687073 4.30119324 C135.36485641 4.30178238 134.2028421 4.30237152 133.00561523 4.30297852 C131.77734009 4.31141785 130.54906494 4.31985718 129.28356934 4.32855225 C126.61147779 4.34550671 123.93965385 4.35886805 121.2675457 4.36609077 C117.02350756 4.3776199 112.77962159 4.40310541 108.53565979 4.43040466 C101.80108648 4.47207942 95.06650553 4.50446112 88.33186442 4.53287882 C76.33126813 4.58364605 64.33074174 4.64680459 52.33025128 4.71821922 C48.13173207 4.74280046 43.9332298 4.76226943 39.7346676 4.77771968 C25.46027566 4.83306082 11.24455822 5.03580663 -3 6 C-1.125 1.125 -1.125 1.125 0 0 Z " fill="#717171" transform="translate(128,120)"/>
<path d="M0 0 C1.98 0 3.96 0 6 0 C8.87940913 6.4150557 10.5464821 11.97047248 11 19 C11.66 19 12.32 19 13 19 C13.103125 17.88625 13.20625 16.7725 13.3125 15.625 C14.85267857 3.14732143 14.85267857 3.14732143 18 0 C19.99958364 -0.04080783 22.00045254 -0.04254356 24 0 C23.76216797 0.78697266 23.76216797 0.78697266 23.51953125 1.58984375 C20.97226559 10.04789161 18.48765397 18.52427778 16 27 C12.6875 27.3125 12.6875 27.3125 9 27 C5.47204449 23.1469969 4.32525423 17.30545824 2.8125 12.375 C2.53986328 11.51648438 2.26722656 10.65796875 1.98632812 9.7734375 C0 3.40125705 0 3.40125705 0 0 Z " fill="#4E6D8A" transform="translate(228,74)"/>
<path d="M0 0 C1.36125 0.1546875 1.36125 0.1546875 2.75 0.3125 C1.21096383 3.81030948 -0.94088479 6.57725861 -3.32421875 9.53125 C-4.41937138 11.25960244 -4.41937138 11.25960244 -4.1171875 13.20703125 C-2.9899 15.94400405 -1.43334064 18.11225432 0.3125 20.5 C3.75 25.22396881 3.75 25.22396881 3.75 26.3125 C0.6875 26.9375 0.6875 26.9375 -3.25 26.3125 C-6.03438501 23.24860144 -8.15690139 19.87522105 -10.25 16.3125 C-10.58 19.9425 -10.91 23.5725 -11.25 27.3125 C-12.9 27.3125 -14.55 27.3125 -16.25 27.3125 C-16.25 18.7325 -16.25 10.1525 -16.25 1.3125 C-14.6 1.3125 -12.95 1.3125 -11.25 1.3125 C-11.25 4.2825 -11.25 7.2525 -11.25 10.3125 C-10.59 10.3125 -9.93 10.3125 -9.25 10.3125 C-9.0025 9.590625 -8.755 8.86875 -8.5 8.125 C-5.10714286 0.49107143 -5.10714286 0.49107143 0 0 Z " fill="#274A6A" transform="translate(398.25,73.6875)"/>
<path d="M0 0 C5.28 0 10.56 0 16 0 C16 1.65 16 3.3 16 5 C12.7 5 9.4 5 6 5 C6 6.98 6 8.96 6 11 C8.97 11 11.94 11 15 11 C15 12.32 15 13.64 15 15 C12.03 15 9.06 15 6 15 C6 17.31 6 19.62 6 22 C9.3 22 12.6 22 16 22 C16 23.65 16 25.3 16 27 C10.72 27 5.44 27 0 27 C0 18.09 0 9.18 0 0 Z " fill="#09345B" transform="translate(187,74)"/>
<path d="M0 0 C0.9590625 0.02835937 1.918125 0.05671875 2.90625 0.0859375 C3.8653125 0.09882812 4.824375 0.11171875 5.8125 0.125 C8.40625 0.4609375 8.40625 0.4609375 11.40625 2.4609375 C11.07625 3.7809375 10.74625 5.1009375 10.40625 6.4609375 C7.10625 6.1309375 3.80625 5.8009375 0.40625 5.4609375 C0.73625 6.7809375 1.06625 8.1009375 1.40625 9.4609375 C3.4135089 10.74194521 3.4135089 10.74194521 5.84375 11.5859375 C10.238271 13.2929585 10.238271 13.2929585 12.40625 15.4609375 C12.96433445 19.68643407 12.84449097 21.77435998 10.53125 25.3984375 C6.19319914 28.26155107 2.47286922 28.42641469 -2.59375 27.4609375 C-5.21875 25.4609375 -5.21875 25.4609375 -6.59375 23.4609375 C-5.60375 22.4709375 -4.61375 21.4809375 -3.59375 20.4609375 C-2.93375 20.7909375 -2.27375 21.1209375 -1.59375 21.4609375 C0.7392366 21.50116141 3.07331666 21.50413997 5.40625 21.4609375 C5.73625 20.1409375 6.06625 18.8209375 6.40625 17.4609375 C5.87 17.3578125 5.33375 17.2546875 4.78125 17.1484375 C0.79936006 15.99578515 -2.65304225 14.40164525 -5.59375 11.4609375 C-5.91993288 7.93816239 -6.10678908 5.4222466 -4.41796875 2.2578125 C-2.59375 0.4609375 -2.59375 0.4609375 0 0 Z " fill="#0A3258" transform="translate(365.59375,73.5390625)"/>
<path d="M0 0 C2.9375 1 2.9375 1 5 2 C4.67 3.32 4.34 4.64 4 6 C0.7 6 -2.6 6 -6 6 C-6 7.65 -6 9.3 -6 11 C-4.741875 11.2475 -3.48375 11.495 -2.1875 11.75 C0.50163627 12.44013232 1.84935802 12.87289583 4 14.6875 C5.41677215 17.96378559 5.38470583 20.47352985 5 24 C3.16884793 26.61593153 2.09031634 26.96989455 -1 28 C-9.4 28.4 -9.4 28.4 -13 26 C-12.34 24.35 -11.68 22.7 -11 21 C-8.03 21.33 -5.06 21.66 -2 22 C-2 20.68 -2 19.36 -2 18 C-2.55429688 17.73445313 -3.10859375 17.46890625 -3.6796875 17.1953125 C-4.40414062 16.84210938 -5.12859375 16.48890625 -5.875 16.125 C-6.59429687 15.77695313 -7.31359375 15.42890625 -8.0546875 15.0703125 C-10 14 -10 14 -12 12 C-12.33956435 8.99243001 -12.55053953 6.9018021 -12 4 C-8.47015884 -0.27859535 -5.36039013 -0.57432751 0 0 Z " fill="#123D63" transform="translate(178,73)"/>
<path d="M0 0 C0.66 0 1.32 0 2 0 C3.2265625 1.5390625 3.2265625 1.5390625 4.625 3.625 C11.33265628 12.7835307 23.06002668 19.77043355 34.265625 21.75390625 C50.61157391 23.22504165 64.29268764 21.84021629 78 12 C81.57446295 8.90561939 84.82111099 5.49537132 88 2 C88.495 2.99 88.495 2.99 89 4 C80.84607519 13.7648826 71.01401465 23.40859445 58 26 C54.44041397 26.22184494 50.87833108 26.1851432 47.3125 26.1875 C45.87874023 26.20586914 45.87874023 26.20586914 44.41601562 26.22460938 C30.25891746 26.2535605 18.39237392 21.95566382 7.98046875 12.09375 C0 3.65680473 0 3.65680473 0 0 Z " fill="#24527B" transform="translate(31,109)"/>
<path d="M0 0 C5.28 0 10.56 0 16 0 C16 1.65 16 3.3 16 5 C12.7 5 9.4 5 6 5 C6 6.98 6 8.96 6 11 C8.97 11 11.94 11 15 11 C15 12.32 15 13.64 15 15 C12.03 15 9.06 15 6 15 C6 17.31 6 19.62 6 22 C9.3 22 12.6 22 16 22 C16 23.32 16 24.64 16 26 C10.72 26 5.44 26 0 26 C0 17.42 0 8.84 0 0 Z " fill="#214567" transform="translate(340,74)"/>
<path d="M0 0 C5.28 0 10.56 0 16 0 C16 1.65 16 3.3 16 5 C12.37 5 8.74 5 5 5 C5 6.98 5 8.96 5 11 C7.97 11 10.94 11 14 11 C14 12.32 14 13.64 14 15 C11.03 15 8.06 15 5 15 C5 17.31 5 19.62 5 22 C8.63 22 12.26 22 16 22 C16 23.32 16 24.64 16 26 C10.72 26 5.44 26 0 26 C0 17.42 0 8.84 0 0 Z " fill="#0B335A" transform="translate(287,74)"/>
<path d="M0 0 C0 0.66 0 1.32 0 2 C4.95 2 9.9 2 15 2 C15.33 1.34 15.66 0.68 16 0 C22.26752152 3.45190906 27.72760222 7.45520445 31 14 C31.039992 15.99960012 31.04346799 18.00047242 31 20 C30.47921875 19.68289062 29.9584375 19.36578125 29.421875 19.0390625 C26.32591291 17.71079489 23.60595879 17.57635753 20.25 17.375 C18.1875 17.25125 16.125 17.1275 14 17 C14 12.38 14 7.76 14 3 C9.71 3 5.42 3 1 3 C1 7.62 1 12.24 1 17 C-3.29 17 -7.58 17 -12 17 C-12 16.67 -12 16.34 -12 16 C-8.04 16 -4.08 16 0 16 C0 11.71 0 7.42 0 3 C-1.65 3 -3.3 3 -5 3 C-2.25 0 -2.25 0 0 0 Z " fill="#ECEFF0" transform="translate(69,51)"/>
<path d="M0 0 C1.46953125 0.02126953 1.46953125 0.02126953 2.96875 0.04296875 C3.9484375 0.04941406 4.928125 0.05585937 5.9375 0.0625 C8.46875 0.23046875 8.46875 0.23046875 10.46875 1.23046875 C10.13875 2.55046875 9.80875 3.87046875 9.46875 5.23046875 C8.84226562 5.27945313 8.21578125 5.3284375 7.5703125 5.37890625 C6.75304687 5.45367187 5.93578125 5.5284375 5.09375 5.60546875 C4.28164063 5.67507812 3.46953125 5.7446875 2.6328125 5.81640625 C0.26540809 6.05939463 0.26540809 6.05939463 -1.53125 8.23046875 C-1.85014832 10.30238245 -1.85014832 10.30238245 -1.78125 12.60546875 C-1.78640625 13.37632813 -1.7915625 14.1471875 -1.796875 14.94140625 C-1.61709621 17.62733352 -1.61709621 17.62733352 0.46875 21.23046875 C3.43875 21.23046875 6.40875 21.23046875 9.46875 21.23046875 C10.12875 22.55046875 10.78875 23.87046875 11.46875 25.23046875 C7.6598092 27.76976262 3.8758203 27.64932254 -0.53125 27.23046875 C-3.60225221 26.37741258 -4.59036153 25.16643126 -6.78125 22.79296875 C-9.1982074 17.87273404 -9.34820892 13.62079574 -8.53125 8.23046875 C-6.89914259 4.37900034 -4.34088464 0.39523487 0 0 Z " fill="#173F64" transform="translate(272.53125,73.76953125)"/>
<path d="M0 0 C0.51437119 0.15851944 1.02874237 0.31703888 1.55870056 0.48036194 C4.74569913 1.15872434 7.80227258 1.22161252 11.06079102 1.31420898 C12.13303956 1.34519652 12.13303956 1.34519652 13.22694969 1.37681007 C15.63165201 1.44341565 18.03645438 1.5017435 20.44140625 1.55859375 C21.28547091 1.57965117 22.12953556 1.60070858 22.99917793 1.6224041 C46.162396 2.18793494 69.32925566 2.11478038 92.49768066 2.06866455 C98.3324343 2.058208 104.16719271 2.05382048 110.00195312 2.04882812 C121.33464736 2.03828433 132.6673213 2.02134962 144 2 C144 2.66 144 3.32 144 4 C97.47 4 50.94 4 3 4 C2.67 4.66 2.34 5.32 2 6 C1.34 4.02 0.68 2.04 0 0 Z " fill="#757575" transform="translate(132,47)"/>
<path d="M0 0 C-0.66 1.65 -1.32 3.3 -2 5 C-1.278125 4.649375 -0.55625 4.29875 0.1875 3.9375 C3.44137995 2.85287335 4.78471703 2.87465096 8 4 C10.625 5.9375 10.625 5.9375 13 8 C13.99 8.66 14.98 9.32 16 10 C15.67 10.66 15.34 11.32 15 12 C14.34 12 13.68 12 13 12 C12.34 13.32 11.68 14.64 11 16 C8.33333333 15.33333333 5.66666667 14.66666667 3 14 C3 15.32 3 16.64 3 18 C-2.75 17.25 -2.75 17.25 -5 15 C-5 14.01 -5 13.02 -5 12 C-5.66 12 -6.32 12 -7 12 C-7 11.01 -7 10.02 -7 9 C-7.66 8.34 -8.32 7.68 -9 7 C-6.55183946 0.26755853 -6.55183946 0.26755853 -3.9375 -1 C-2 -1 -2 -1 0 0 Z " fill="#275580" transform="translate(72,103)"/>
<path d="M0 0 C1.65 0 3.3 0 5 0 C4.67 6.93 4.34 13.86 4 21 C11.82062059 19.99779798 11.82062059 19.99779798 14 16 C14.32646651 13.68167452 14.43961437 11.39596295 14.55859375 9.05859375 C15 7 15 7 18 5 C20.60567985 9.53116214 20.83608162 13.88417388 20 19 C17.80977082 21.82424288 16.16982793 23.41508603 13 25 C8.66396021 25.1393329 4.33919329 25.04254111 0 25 C0 16.75 0 8.5 0 0 Z " fill="#073058" transform="translate(316,75)"/>
<path d="M0 0 C13.53 0 27.06 0 41 0 C40.34 1.32 39.68 2.64 39 4 C36.25846423 4.85392098 33.7955258 5.49126467 31 6 C29.86884766 6.26683594 29.86884766 6.26683594 28.71484375 6.5390625 C25.24421007 7.12832117 21.89422413 7.17014682 18.375 7.1875 C16.40660156 7.20876953 16.40660156 7.20876953 14.3984375 7.23046875 C11 7 11 7 8 5 C6.80375 4.690625 5.6075 4.38125 4.375 4.0625 C3.26125 3.711875 2.1475 3.36125 1 3 C0.67 2.01 0.34 1.02 0 0 Z " fill="#509359" transform="translate(56,94)"/>
<path d="M0 0 C2.23915424 0.73602403 2.23915424 0.73602403 5.0625 -0.5 C5.0625 0.49 5.0625 1.48 5.0625 2.5 C5.7225 2.5 6.3825 2.5 7.0625 2.5 C7.49945709 7.83087655 7.49945709 7.83087655 7.0625 10.5 C4.65390121 12.52829372 3.23205691 13.5 0.0625 13.5 C0.0625 12.84 0.0625 12.18 0.0625 11.5 C-1.030625 11.726875 -2.12375 11.95375 -3.25 12.1875 C-6.9375 12.5 -6.9375 12.5 -8.625 11.3125 C-9.058125 10.714375 -9.49125 10.11625 -9.9375 9.5 C-10.659375 8.778125 -11.38125 8.05625 -12.125 7.3125 C-12.723125 6.714375 -13.32125 6.11625 -13.9375 5.5 C-16.2475 6.16 -18.5575 6.82 -20.9375 7.5 C-19.56766497 4.33884224 -18.9484362 3.5072908 -15.9375 1.5 C-14 1.48828125 -14 1.48828125 -11.9375 1.8125 C-11.256875 1.91175781 -10.57625 2.01101562 -9.875 2.11328125 C-7.9375 2.5 -7.9375 2.5 -4.9375 3.5 C-3.9475 4.985 -3.9475 4.985 -2.9375 6.5 C-3.2675 4.52 -3.5975 2.54 -3.9375 0.5 C-1.9375 -0.5 -1.9375 -0.5 0 0 Z " fill="#418650" transform="translate(91.9375,99.5)"/>
<path d="M0 0 C3.7910119 1.44950455 7.3874638 3.15172566 11 5 C11 5.66 11 6.32 11 7 C12.134375 7.144375 13.26875 7.28875 14.4375 7.4375 C18 8 18 8 19 9 C33.86311988 11.47718665 46.23934618 9.44705009 59.50390625 2.20703125 C62 1 62 1 65 1 C54.87628537 10.46347238 43.77341715 14.57868728 29.921875 14.24609375 C19.02895879 13.32864225 8.9126229 10.38049175 1.375 2.125 C0.92125 1.42375 0.4675 0.7225 0 0 Z " fill="#306D4B" transform="translate(44,117)"/>
<path d="M0 0 C7 0 7 0 8.9375 1.1875 C10.37794659 3.64473241 10.4305182 5.20163168 10 8 C9.01 8.66 8.02 9.32 7 10 C7.33 10.66 7.66 11.32 8 12 C6.96875 12.4125 5.9375 12.825 4.875 13.25 C2.20790915 14.35819481 0.60964586 15.31773012 -1.6875 17.1875 C-6.65517192 19.90566011 -11.45384049 19.32307725 -17 19 C-15.421875 16.51953125 -15.421875 16.51953125 -13 14 C-8.5791491 13.33260101 -4.4960002 13.77519999 0 14 C0 9.38 0 4.76 0 0 Z " fill="#335B83" transform="translate(70,54)"/>
<path d="M0 0 C4.62 0 9.24 0 14 0 C14 0.33 14 0.66 14 1 C9.71 1 5.42 1 1 1 C1 9.25 1 17.5 1 26 C2.32 26 3.64 26 5 26 C5 22.7 5 19.4 5 16 C5.66 16 6.32 16 7 16 C6.67 15.01 6.34 14.02 6 13 C5.87218214 10.32605036 5.95608129 7.67904143 6 5 C10.0284349 4.81688932 12.48375245 5.05841983 16 7 C15.94008594 8.95918968 15.85132862 10.91751529 15.75 12.875 C15.68039063 14.51082031 15.68039063 14.51082031 15.609375 16.1796875 C15 19 15 19 12.953125 20.3828125 C12.30859375 20.58648437 11.6640625 20.79015625 11 21 C10.67 19.68 10.34 18.36 10 17 C8.68 17 7.36 17 6 17 C6 20.3 6 23.6 6 27 C4.02 27 2.04 27 0 27 C0 18.09 0 9.18 0 0 Z " fill="#3E5E7C" transform="translate(207,74)"/>
<path d="M0 0 C0 4.29 0 8.58 0 13 C-7.92 13.495 -7.92 13.495 -16 14 C-14.78306452 7.9153226 -12.41920814 5.17577718 -8 1 C-4.52294759 -0.97559796 -3.81684602 -1.27228201 0 0 Z " fill="#F8FAF8" transform="translate(69,54)"/>
<path d="M0 0 C1.98 0 3.96 0 6 0 C6 8.91 6 17.82 6 27 C4.02 27 2.04 27 0 27 C0 18.09 0 9.18 0 0 Z " fill="#1D4265" transform="translate(254,74)"/>
<path d="M0 0 C5.61 0 11.22 0 17 0 C17 2.97 17 5.94 17 9 C11.39 9 5.78 9 0 9 C0 6.03 0 3.06 0 0 Z " fill="#EBF1F0" transform="translate(68,77)"/>
<path d="M0 0 C0.33 0 0.66 0 1 0 C1 9.24 1 18.48 1 28 C-26.39179954 28.14806378 -26.39179954 28.14806378 -39 27 C-39 26.67 -39 26.34 -39 26 C-34.05 26 -29.1 26 -24 26 C-24 24.68 -24 23.36 -24 22 C-27.3 22 -30.6 22 -34 22 C-34 19.69 -34 17.38 -34 15 C-31.03 15 -28.06 15 -25 15 C-25 15.33 -25 15.66 -25 16 C-27.64 16 -30.28 16 -33 16 C-33 17.65 -33 19.3 -33 21 C-29.7 21 -26.4 21 -23 21 C-22.67 22.32 -22.34 23.64 -22 25 C-21.01 25 -20.02 25 -19 25 C-18.34 25.33 -17.68 25.66 -17 26 C-12.40930231 26.4878616 -8.37441002 26.90509928 -4.4375 24.3125 C-2.89048119 21.82381756 -2.32211992 19.89907925 -2 17 C-1.34 17 -0.68 17 0 17 C0 11.39 0 5.78 0 0 Z " fill="#D4DDE2" transform="translate(380,74)"/>
<path d="M0 0 C6 0 6 0 7.84765625 1.68359375 C9.16516798 4.33201564 9.43305181 6.11334743 9.4375 9.0625 C9.45683594 9.91972656 9.47617187 10.77695313 9.49609375 11.66015625 C9 14 9 14 7.28515625 15.80859375 C5 17 5 17 0 17 C0 11.39 0 5.78 0 0 Z " fill="#EAEEF0" transform="translate(321,79)"/>
<path d="M0 0 C1.98 0 3.96 0 6 0 C6 4.62 6 9.24 6 14 C8.0625 13.896875 10.125 13.79375 12.25 13.6875 C15.765625 13.51171875 15.765625 13.51171875 19 14 C21.421875 16.51953125 21.421875 16.51953125 23 19 C14.79662988 19.68467077 9.23638655 19.50603956 2.51171875 14.5078125 C2.01285156 14.01023437 1.51398438 13.51265625 1 13 C1 12.34 1 11.68 1 11 C0.34 10.67 -0.32 10.34 -1 10 C-0.01 9.34 0.98 8.68 2 8 C2.25015873 4.41642759 2.25015873 4.41642759 2 1 C1.34 0.67 0.68 0.34 0 0 Z " fill="#244565" transform="translate(77,54)"/>
<path d="M0 0 C5.28 0 10.56 0 16 0 C16 1.65 16 3.3 16 5 C12.37 5 8.74 5 5 5 C5.061875 6.3303125 5.061875 6.3303125 5.125 7.6875 C5.00102754 10.97277013 4.38612096 13.05449295 3 16 C2.67 16 2.34 16 2 16 C2.33 11.38 2.66 6.76 3 2 C2.34 1.67 1.68 1.34 1 1 C1 9.25 1 17.5 1 26 C5.95 26 10.9 26 16 26 C16 26.33 16 26.66 16 27 C10.72 27 5.44 27 0 27 C0 18.09 0 9.18 0 0 Z " fill="#385978" transform="translate(187,74)"/>
<path d="M0 0 C2.9375 1 2.9375 1 5 2 C4.67 3.32 4.34 4.64 4 6 C0.7 6.33 -2.6 6.66 -6 7 C-6.66 9.31 -7.32 11.62 -8 14 C-9.32 13.34 -10.64 12.68 -12 12 C-12.60550459 4.73394495 -12.60550459 4.73394495 -9.9375 1.5 C-6.29752475 -0.35871077 -4.04537127 -0.43343264 0 0 Z " fill="#133C63" transform="translate(178,73)"/>
<path d="M0 0 C3.875 1.875 3.875 1.875 5 3 C5.36090226 10.45864662 5.36090226 10.45864662 3 14 C3.27644925 16.69538019 3.85101274 18.70202548 5.0625 21.125 C6 23 6 23 6 26 C4.02 26 2.04 26 0 26 C-1.4606285 23.35261084 -2 22.10551666 -2 19 C-1.34 18.67 -0.68 18.34 0 18 C0.58394331 15.75203227 0.58394331 15.75203227 0.8125 13.125 C0.92207031 12.24070312 1.03164062 11.35640625 1.14453125 10.4453125 C1.21810595 7.9651963 1.21810595 7.9651963 -0.2890625 6.22265625 C-2.72105611 4.48472474 -5.0725408 4.32527324 -8 4 C-8 6.31 -8 8.62 -8 11 C-8.33 11 -8.66 11 -9 11 C-9 8.36 -9 5.72 -9 3 C-6.03 3 -3.06 3 0 3 C0 2.01 0 1.02 0 0 Z " fill="#1E446A" transform="translate(221,75)"/>
<path d="M0 0 C0 0.33 0 0.66 0 1 C-1.07636719 1.03738281 -2.15273437 1.07476563 -3.26171875 1.11328125 C-19.35717967 1.78022024 -33.50083188 4.68301472 -47 14 C-48.81572628 16.0665392 -48.81572628 16.0665392 -50 18 C-51.66279327 19.0064275 -53.32983484 20.00585407 -55 21 C-56.7041054 22.62836738 -58.38025441 24.28769752 -60 26 C-60.66 25.67 -61.32 25.34 -62 25 C-59.25083304 21.26113293 -56.24050815 18.36077509 -52.68359375 15.4296875 C-50.99334824 14.05753017 -50.99334824 14.05753017 -49.66015625 12.51953125 C-47.34704454 10.40235371 -44.80327086 9.20382929 -42 7.8125 C-40.948125 7.28269531 -39.89625 6.75289062 -38.8125 6.20703125 C-36 5 -36 5 -33 5 C-33 4.34 -33 3.68 -33 3 C-22.46978413 -1.05008303 -11.08634746 -0.10763444 0 0 Z " fill="#3D4D56" transform="translate(85,15)"/>
<path d="M0 0 C2.93360834 1.36553261 5.38636204 2.95215897 7.9375 4.9375 C21.0353096 14.88124148 33.34439911 17.32609132 49.5 17.125 C50.90884781 17.11495069 52.31770255 17.10582829 53.7265625 17.09765625 C57.1512205 17.07419969 60.57551939 17.04137384 64 17 C63.67 17.66 63.34 18.32 63 19 C53.0052787 19.77203484 43.17762328 20.33748964 33.1875 19.25 C32.105896 19.13906006 32.105896 19.13906006 31.00244141 19.02587891 C24.87792867 18.26121147 20.13259958 16.42173305 15 13 C15 12.34 15 11.68 15 11 C14.28457031 10.9278125 13.56914063 10.855625 12.83203125 10.78125 C9.20790187 9.78149017 7.41915374 8.05763728 4.6875 5.5 C3.80449219 4.6853125 2.92148437 3.870625 2.01171875 3.03125 C0 1 0 1 0 0 Z " fill="#404D54" transform="translate(29,128)"/>
<path d="M0 0 C5.28 0 10.56 0 16 0 C16 1.65 16 3.3 16 5 C15.67 3.68 15.34 2.36 15 1 C10.38 1 5.76 1 1 1 C1.33 6.28 1.66 11.56 2 17 C2.66 17 3.32 17 4 17 C4 18.65 4 20.3 4 22 C7.96 22 11.92 22 16 22 C16 23.32 16 24.64 16 26 C10.72 26 5.44 26 0 26 C0 17.42 0 8.84 0 0 Z " fill="#25496C" transform="translate(287,74)"/>
<path d="M0 0 C6.58360302 0.90363179 6.58360302 0.90363179 9.26171875 1.5234375 C12.7420724 2.12914812 16.09344239 2.17008601 19.625 2.1875 C21.59339844 2.20876953 21.59339844 2.20876953 23.6015625 2.23046875 C27.12718717 2.27424829 27.12718717 2.27424829 30 0 C32.6875 -0.125 32.6875 -0.125 35 0 C31.25 2 31.25 2 29 2 C29.99 5.3 30.98 8.6 32 12 C29.1709277 9.1709277 28.62388892 8.61855575 28 5 C21.41274818 3.55378618 21.41274818 3.55378618 15.15625 5.046875 C13.63510777 6.55055966 13.63510777 6.55055966 12 9 C12.721875 8.46375 13.44375 7.9275 14.1875 7.375 C17 6 17 6 19.6875 6.625 C22 8 22 8 24 11 C23.43796875 10.66226563 22.8759375 10.32453125 22.296875 9.9765625 C19.60273356 8.8310942 18.11961767 8.9529974 15.25 9.375 C14.05117187 9.54128906 14.05117187 9.54128906 12.828125 9.7109375 C12.22484375 9.80632812 11.6215625 9.90171875 11 10 C11.33 8.35 11.66 6.7 12 5 C10.35 5 8.7 5 7 5 C6.566875 6.7015625 6.566875 6.7015625 6.125 8.4375 C5.75375 9.613125 5.3825 10.78875 5 12 C4.01 12.495 4.01 12.495 3 13 C3.67170806 9.1936543 4.72746564 5.64793184 6 2 C3.03 1.505 3.03 1.505 0 1 C0 0.67 0 0.34 0 0 Z " fill="#92B2B2" transform="translate(59,98)"/>
<path d="M0 0 C0.99 0.33 1.98 0.66 3 1 C3.28299062 4.67887806 3.46392977 7.17757904 1.625 10.4375 C-2.43121234 12.85191211 -6.40126856 12.79446523 -11 12 C-13.625 10 -13.625 10 -15 8 C-14.01 7.01 -13.02 6.02 -12 5 C-11.34 5.33 -10.68 5.66 -10 6 C-7.6670134 6.04022391 -5.33293334 6.04320247 -3 6 C-2.67 4.68 -2.34 3.36 -2 2 C-1.34 2 -0.68 2 0 2 C0 1.34 0 0.68 0 0 Z " fill="#1C4369" transform="translate(374,89)"/>
<path d="M0 0 C1.65 0 3.3 0 5 0 C4.67 8.25 4.34 16.5 4 25 C2.68 25 1.36 25 0 25 C0 16.75 0 8.5 0 0 Z " fill="#0C3256" transform="translate(382,75)"/>
<path d="M0 0 C-0.66386719 0.43570313 -1.32773438 0.87140625 -2.01171875 1.3203125 C-9.48927371 6.36356855 -15.32538922 11.00738566 -18 20 C-18.33587511 23.1601705 -18.28722021 26.26435171 -18.1875 29.4375 C-18.17396484 30.26443359 -18.16042969 31.09136719 -18.14648438 31.94335938 C-18.11146992 33.9625264 -18.05767562 35.98135318 -18 38 C-21.4250796 34.5749204 -21.15742372 30.87338381 -21.1875 26.1875 C-21.07066851 17.42513819 -19.06761557 11.36265819 -13 5 C-4.80654352 -1.81604699 -4.80654352 -1.81604699 0 0 Z " fill="#599260" transform="translate(70,50)"/>
<path d="M0 0 C0.66 0.33 1.32 0.66 2 1 C0.26730209 6.52297459 -1.55487053 9.03495513 -6.609375 11.87109375 C-20.80609086 18.57509846 -36.105969 20.56022627 -51.2265625 15.65625 C-51.81179687 15.4396875 -52.39703125 15.223125 -53 15 C-53 14.67 -53 14.34 -53 14 C-45.43478261 14.91304348 -45.43478261 14.91304348 -42.1875 15.5625 C-28.84844238 17.39335105 -16.12160241 14.80229054 -5 7 C-3.30021174 5.0551244 -3.30021174 5.0551244 -2 3 C-1.34 2.01 -0.68 1.02 0 0 Z " fill="#194A60" transform="translate(110,114)"/>
<path d="M0 0 C2.64 0 5.28 0 8 0 C9.85131483 3.92857754 10.22004943 6.98775112 10.125 11.3125 C10.10695313 12.38113281 10.08890625 13.44976562 10.0703125 14.55078125 C10.03550781 15.76314453 10.03550781 15.76314453 10 17 C6.37 17 2.74 17 -1 17 C-1 16.67 -1 16.34 -1 16 C2.3 16 5.6 16 9 16 C9 15.01 9 14.02 9 13 C6.03 12.67 3.06 12.34 0 12 C0 10.68 0 9.36 0 8 C1.98 7.34 3.96 6.68 6 6 C5.67 4.35 5.34 2.7 5 1 C4.34 1 3.68 1 3 1 C3 2.32 3 3.64 3 5 C2.01 5 1.02 5 0 5 C0 3.35 0 1.7 0 0 Z " fill="#4C7296" transform="translate(55,76)"/>
<path d="M0 0 C5.96213178 0.55894985 10.93781909 3.57977009 14.77734375 8.0859375 C20.47289019 16.24630477 21.91349928 24.13958135 21 34 C19.984375 36.8671875 19.984375 36.8671875 19 39 C18.67 39 18.34 39 18 39 C18.03480469 37.94941406 18.06960937 36.89882812 18.10546875 35.81640625 C18.37358773 24.50959991 17.92816631 16.29056274 9.8515625 7.6640625 C7.4583866 5.51323353 4.98874253 4.16633855 2 3 C2 2.34 2 1.68 2 1 C1.34 0.67 0.68 0.34 0 0 Z " fill="#4F8B55" transform="translate(83,49)"/>
<path d="M0 0 C0.66 1.32 1.32 2.64 2 4 C3.32 4 4.64 4 6 4 C6 6.31 6 8.62 6 11 C6.99 11 7.98 11 9 11 C9 9.35 9 7.7 9 6 C8.34 5.67 7.68 5.34 7 5 C7.66 4.67 8.32 4.34 9 4 C9.66 2.68 10.32 1.36 11 0 C11 5.28 11 10.56 11 16 C7.37 16 3.74 16 0 16 C0 13.03 0 10.06 0 7 C0.33 8.32 0.66 9.64 1 11 C1.99 11 2.98 11 4 11 C4 9.35 4 7.7 4 6 C2.68 5.67 1.36 5.34 0 5 C0 3.35 0 1.7 0 0 Z " fill="#183B5C" transform="translate(88,77)"/>
<path d="M0 0 C0.33 0 0.66 0 1 0 C1.01458252 0.75506836 1.02916504 1.51013672 1.04418945 2.28808594 C1.11958192 5.77585343 1.2159358 9.26275692 1.3125 12.75 C1.33505859 13.93722656 1.35761719 15.12445313 1.38085938 16.34765625 C1.61929742 24.28114044 2.79074788 31.38698668 5 39 C5.33935875 40.3318125 5.67515084 41.66457426 6 43 C-0.8096212 36.54877992 -0.8096212 36.54877992 -1.24291992 30.74780273 C-1.23881104 29.48911377 -1.23470215 28.2304248 -1.23046875 26.93359375 C-1.23001053 26.25829117 -1.22955231 25.58298859 -1.2290802 24.88722229 C-1.22606775 23.46426631 -1.21821164 22.04131333 -1.20581055 20.6184082 C-1.18753316 18.44145013 -1.18530119 16.26491751 -1.18554688 14.08789062 C-1.14776543 3.4432963 -1.14776543 3.4432963 0 0 Z " fill="#3E474E" transform="translate(11,67)"/>
<path d="M0 0 C3.63 0 7.26 0 11 0 C11 1.98 11 3.96 11 6 C10.835 5.360625 10.67 4.72125 10.5 4.0625 C9.218214 1.83880759 9.218214 1.83880759 7.0859375 1.51171875 C5.06424845 1.2724022 3.03158061 1.13106972 1 1 C1 2.65 1 4.3 1 6 C1.99 6 2.98 6 4 6 C4 4.68 4 3.36 4 2 C4.66 2 5.32 2 6 2 C6.103125 2.61875 6.20625 3.2375 6.3125 3.875 C6.87525373 6.36526484 6.87525373 6.36526484 10 8 C5.545 8.495 5.545 8.495 1 9 C1 10.32 1 11.64 1 13 C2.32 13 3.64 13 5 13 C5.33 12.01 5.66 11.02 6 10 C6.33 10.99 6.66 11.98 7 13 C7.99 13.33 8.98 13.66 10 14 C10 14.99 10 15.98 10 17 C6.7 17 3.4 17 0 17 C0 11.39 0 5.78 0 0 Z " fill="#37638D" transform="translate(54,75)"/>
<path d="M0 0 C7.59 0 15.18 0 23 0 C22.67 1.32 22.34 2.64 22 4 C13.38292246 6.48288675 8.3312429 4.8859861 0 2 C0 1.34 0 0.68 0 0 Z " fill="#3B8845" transform="translate(57,95)"/>
<path d="M0 0 C1.98 0 3.96 0 6 0 C8.77471079 6.24309927 9.37634203 11.19796625 9 18 C8.01 18 7.02 18 6 18 C5.60167969 16.75283203 5.60167969 16.75283203 5.1953125 15.48046875 C4.84210938 14.39378906 4.48890625 13.30710937 4.125 12.1875 C3.77695313 11.10855469 3.42890625 10.02960938 3.0703125 8.91796875 C2.08040347 5.86684198 2.08040347 5.86684198 0 3 C0 2.01 0 1.02 0 0 Z " fill="#1E4368" transform="translate(228,74)"/>
<path d="M0 0 C0.66 0.33 1.32 0.66 2 1 C3.4390502 5.31715059 3.56858235 9.48826214 3 14 C1 16.625 1 16.625 -1 18 C-2.98 17.34 -4.96 16.68 -7 16 C-6.360625 15.360625 -5.72125 14.72125 -5.0625 14.0625 C-2.65955888 10.49449652 -2.45695414 8.18798901 -2.2734375 3.98828125 C-2 2 -2 2 0 0 Z " fill="#0A3256" transform="translate(333,80)"/>
<path d="M0 0 C0.66 0 1.32 0 2 0 C2.25523437 0.71671875 2.51046875 1.4334375 2.7734375 2.171875 C4.08447009 5.19476544 5.68896524 7.58894811 7.625 10.25 C11 14.90612245 11 14.90612245 11 16 C7.8125 16.5 7.8125 16.5 4 16 C1.50940266 13.68428722 0.10858442 11.2013755 -1 8 C-1.10379774 5.07389236 -0.6706896 2.88912442 0 0 Z " fill="#11365A" transform="translate(391,84)"/>
<path d="M0 0 C1.98 0 3.96 0 6 0 C5.2700682 2.46230328 4.53431344 4.92236756 3.78515625 7.37890625 C3.17116227 9.42860755 2.60703622 11.49326238 2.0625 13.5625 C1.711875 14.366875 1.36125 15.17125 1 16 C-1.06640625 16.65234375 -1.06640625 16.65234375 -3 17 C-2.88556397 14.9160597 -2.75804453 12.83283507 -2.625 10.75 C-2.55539063 9.58984375 -2.48578125 8.4296875 -2.4140625 7.234375 C-2.03751692 4.29305666 -1.5225877 2.50050989 0 0 Z " fill="#2D5171" transform="translate(246,74)"/>
<path d="M0 0 C7 9.1 7 9.1 7 12 C2.38 12 -2.24 12 -7 12 C-7 11.34 -7 10.68 -7 10 C-6.34 10 -5.68 10 -5 10 C-4.731875 9.278125 -4.46375 8.55625 -4.1875 7.8125 C-3.01017502 5.02409874 -1.60854116 2.55904276 0 0 Z " fill="#436C91" transform="translate(76,41)"/>
<path d="M0 0 C1.32 0 2.64 0 4 0 C4.12117188 0.62648437 4.24234375 1.25296875 4.3671875 1.8984375 C4.53476563 2.71570312 4.70234375 3.53296875 4.875 4.375 C5.11863281 5.59316406 5.11863281 5.59316406 5.3671875 6.8359375 C5.86658932 9.18673923 5.86658932 9.18673923 8 11 C7.01 11.33 6.02 11.66 5 12 C4.01 11.01 3.02 10.02 2 9 C0.35 11.31 -1.3 13.62 -3 16 C-3.721875 15.79375 -4.44375 15.5875 -5.1875 15.375 C-8.44641585 14.94047789 -10.08304504 15.58319331 -13 17 C-13 16.01 -13 15.02 -13 14 C-9.04 12.35 -5.08 10.7 -1 9 C-0.67 6.03 -0.34 3.06 0 0 Z " fill="#CAD8DD" transform="translate(74,35)"/>
<path d="M0 0 C2.97 0 5.94 0 9 0 C9 4.62 9 9.24 9 14 C6.69 14 4.38 14 2 14 C2.33 15.32 2.66 16.64 3 18 C0.69 18 -1.62 18 -4 18 C-3.67 16.68 -3.34 15.36 -3 14 C-4.98 14 -6.96 14 -9 14 C-9 13.34 -9 12.68 -9 12 C-6.69 12 -4.38 12 -2 12 C-2 12.66 -2 13.32 -2 14 C-1.34 14 -0.68 14 0 14 C0 13.34 0 12.68 0 12 C3.465 11.505 3.465 11.505 7 11 C7 8.03 7 5.06 7 2 C4.69 1.67 2.38 1.34 0 1 C0 0.67 0 0.34 0 0 Z " fill="#395B7C" transform="translate(77,75)"/>
<path d="M0 0 C0.33 0 0.66 0 1 0 C1 1.98 1 3.96 1 6 C3.97 6 6.94 6 10 6 C10 7.32 10 8.64 10 10 C7.03 10 4.06 10 1 10 C1 12.31 1 14.62 1 17 C0.67 16.34 0.34 15.68 0 15 C-0.99 15.33 -1.98 15.66 -3 16 C-2.52013969 10.43109483 -1.70084819 5.32932432 0 0 Z " fill="#153E65" transform="translate(192,79)"/>
<path d="M0 0 C3.96 0 7.92 0 12 0 C12 2.97 12 5.94 12 9 C8.04 9 4.08 9 0 9 C0 8.67 0 8.34 0 8 C1.98 8 3.96 8 6 8 C6 6.35 6 4.7 6 3 C4.02 2.34 2.04 1.68 0 1 C0 0.67 0 0.34 0 0 Z " fill="#F0F2F2" transform="translate(73,77)"/>
<path d="M0 0 C-1 3 -1 3 -3.3125 4.75 C-10.74551252 10.97298723 -11.03278706 18.82420358 -12 28 C-14.44950621 25.55049379 -14.32271254 24.75276979 -14.375 21.375 C-14.18053523 12.92793638 -9.89526147 6.81104345 -4 1 C-2 0 -2 0 0 0 Z " fill="#DAE3E2" transform="translate(61,51)"/>
<path d="M0 0 C9.79591837 3.42857143 9.79591837 3.42857143 12 6 C12.25 9.6875 12.25 9.6875 12 13 C11.67 13 11.34 13 11 13 C10.87625 12.030625 10.7525 11.06125 10.625 10.0625 C10.41875 9.051875 10.2125 8.04125 10 7 C9.34 6.67 8.68 6.34 8 6 C8 6.66 8 7.32 8 8 C3.55129785 8.39253254 0.85756507 7.15305957 -3 5 C-2.505 4.54625 -2.01 4.0925 -1.5 3.625 C0.22609337 2.12364481 0.22609337 2.12364481 0 0 Z " fill="#173F65" transform="translate(366,83)"/>
<path d="M0 0 C0.66 0 1.32 0 2 0 C2 8.91 2 17.82 2 27 C1.67 27 1.34 27 1 27 C1 21.72 1 16.44 1 11 C-0.65 11.33 -2.3 11.66 -4 12 C-3.52309796 10.37433394 -3.04340334 8.74948689 -2.5625 7.125 C-2.29566406 6.22007813 -2.02882812 5.31515625 -1.75390625 4.3828125 C-1 2 -1 2 0 0 Z " fill="#F5F8FB" transform="translate(252,74)"/>
<path d="M0 0 C5.64667819 -0.89158077 9.08478019 1.4709262 13.73046875 4.296875 C16.00281557 6.00211289 17.4307884 7.64873832 19 10 C18.34 10.66 17.68 11.32 17 12 C16.67 11.01 16.34 10.02 16 9 C14.20067421 7.93283296 14.20067421 7.93283296 12 7 C11.13375 6.443125 10.2675 5.88625 9.375 5.3125 C8.199375 4.6628125 8.199375 4.6628125 7 4 C4.84188612 4.94729537 4.84188612 4.94729537 3 7 C0 2.25 0 2.25 0 0 Z " fill="#D4E3D5" transform="translate(80,46)"/>
<path d="M0 0 C0.680625 0.08765625 1.36125 0.1753125 2.0625 0.265625 C4 0.75 4 0.75 7 2.75 C6.01 2.75 5.02 2.75 4 2.75 C4.66 5.06 5.32 7.37 6 9.75 C2.63408134 8.30746343 0.48952921 6.41735273 -2 3.75 C-4.31 4.41 -6.62 5.07 -9 5.75 C-7.06640831 1.28786534 -4.97742118 -0.71644699 0 0 Z " fill="#478C50" transform="translate(80,101.25)"/>
<path d="M0 0 C0.66 0 1.32 0 2 0 C1.67 2.64 1.34 5.28 1 8 C-1.31 8 -3.62 8 -6 8 C-6.66 5.69 -7.32 3.38 -8 1 C-6.865625 1.020625 -5.73125 1.04125 -4.5625 1.0625 C-1.18424326 1.41577477 -1.18424326 1.41577477 0 0 Z " fill="#194065" transform="translate(243,93)"/>
<path d="M0 0 C0.66 0 1.32 0 2 0 C2 0.66 2 1.32 2 2 C2.99 2 3.98 2 5 2 C5 2.66 5 3.32 5 4 C5.99 4 6.98 4 8 4 C8.33 5.98 8.66 7.96 9 10 C3.25 9.25 3.25 9.25 1 7 C1 6.01 1 5.02 1 4 C0.34 4 -0.32 4 -1 4 C-0.67 2.68 -0.34 1.36 0 0 Z " fill="#35784B" transform="translate(66,111)"/>
<path d="M0 0 C1.58473048 0.08015255 3.16906283 0.1767325 4.75 0.3125 C4.75 0.9725 4.75 1.6325 4.75 2.3125 C4.09 2.3125 3.43 2.3125 2.75 2.3125 C2.75 3.3025 2.75 4.2925 2.75 5.3125 C-1.21 5.3125 -5.17 5.3125 -9.25 5.3125 C-6.77450837 0.81160612 -4.94506959 -0.03502174 0 0 Z " fill="#275280" transform="translate(62.25,67.6875)"/>
<path d="M0 0 C0.52561523 0.15847412 1.05123047 0.31694824 1.59277344 0.48022461 C4.58978574 1.12734826 7.45054208 1.21888088 10.515625 1.31640625 C11.76601562 1.35830078 13.01640625 1.40019531 14.3046875 1.44335938 C15.60664063 1.48267578 16.90859375 1.52199219 18.25 1.5625 C19.56742188 1.60568359 20.88484375 1.64886719 22.2421875 1.69335938 C25.49468788 1.79941917 28.74726392 1.90148024 32 2 C32 2.33 32 2.66 32 3 C22.31629705 3.69613269 12.71614177 4.14973506 3 4 C2.67 4.66 2.34 5.32 2 6 C1.34 4.02 0.68 2.04 0 0 Z " fill="#585958" transform="translate(132,47)"/>
<path d="M0 0 C0.33 0 0.66 0 1 0 C1 1.98 1 3.96 1 6 C3.97 6 6.94 6 10 6 C10 7.32 10 8.64 10 10 C7.03 10 4.06 10 1 10 C1 12.31 1 14.62 1 17 C0.67 17 0.34 17 0 17 C0 11.39 0 5.78 0 0 Z " fill="#174065" transform="translate(345,79)"/>
<path d="M0 0 C0.268125 0.556875 0.53625 1.11375 0.8125 1.6875 C1.99898377 4.0839757 1.99898377 4.0839757 3.625 6.5625 C5 9 5 9 5 12 C3.02 12 1.04 12 -1 12 C-2.4606285 9.35261084 -3 8.10551666 -3 5 C-2.34 4.67 -1.68 4.34 -1 4 C-0.34786708 1.97536745 -0.34786708 1.97536745 0 0 Z " fill="#2E5274" transform="translate(222,89)"/>
<path d="M0 0 C2.875 -0.125 2.875 -0.125 6 0 C8 2 8 2 8 6 C5.29120665 7.35439668 2.99066732 7.06501451 0 7 C0 4.69 0 2.38 0 0 Z " fill="#DEE3E6" transform="translate(213,79)"/>
<path d="M0 0 C1.9453125 0.9609375 1.9453125 0.9609375 4.125 2.375 C4.84945312 2.83648437 5.57390625 3.29796875 6.3203125 3.7734375 C6.87460938 4.17820312 7.42890625 4.58296875 8 5 C8 5.33 8 5.66 8 6 C3.05 6 -1.9 6 -7 6 C-2 1 -2 1 0 0 Z " fill="#47884E" transform="translate(76,67)"/>
<path d="M0 0 C0 0.66 0 1.32 0 2 C4.62 2 9.24 2 14 2 C14 2.33 14 2.66 14 3 C9.71 3 5.42 3 1 3 C1 7.62 1 12.24 1 17 C-3.29 17 -7.58 17 -12 17 C-12 16.67 -12 16.34 -12 16 C-8.04 16 -4.08 16 0 16 C0 11.71 0 7.42 0 3 C-1.65 3 -3.3 3 -5 3 C-2.25 0 -2.25 0 0 0 Z " fill="#9EB3C8" transform="translate(69,51)"/>
<path d="M0 0 C0.9796875 0.01417969 1.959375 0.02835937 2.96875 0.04296875 C3.9484375 0.04941406 4.928125 0.05585937 5.9375 0.0625 C8.46875 0.23046875 8.46875 0.23046875 10.46875 1.23046875 C10.13875 2.55046875 9.80875 3.87046875 9.46875 5.23046875 C6.82875 5.23046875 4.18875 5.23046875 1.46875 5.23046875 C2.45875 4.57046875 3.44875 3.91046875 4.46875 3.23046875 C3.42012906 1.97890821 3.42012906 1.97890821 1.09375 1.91796875 C-1.6802025 1.94528674 -1.6802025 1.94528674 -3.21875 4.23046875 C-3.651875 4.89046875 -4.085 5.55046875 -4.53125 6.23046875 C-5.19125 6.23046875 -5.85125 6.23046875 -6.53125 6.23046875 C-3.78450024 0.34457641 -3.78450024 0.34457641 0 0 Z " fill="#314F6F" transform="translate(272.53125,73.76953125)"/>
<path d="M0 0 C0.33 0 0.66 0 1 0 C1.33 5.28 1.66 10.56 2 16 C2.33 13.36 2.66 10.72 3 8 C3.33 8 3.66 8 4 8 C4.16834933 9.77067416 4.33461909 11.54154612 4.5 13.3125 C4.5928125 14.29863281 4.685625 15.28476563 4.78125 16.30078125 C5 19 5 19 5 22 C4.01 21.34 3.02 20.68 2 20 C1.67 21.65 1.34 23.3 1 25 C0.67 25 0.34 25 0 25 C0 16.75 0 8.5 0 0 Z " fill="#F3F6F8" transform="translate(260,74)"/>
<path d="M0 0 C1.77049689 -0.05410687 3.54146849 -0.09284119 5.3125 -0.125 C6.29863281 -0.14820312 7.28476562 -0.17140625 8.30078125 -0.1953125 C11 0 11 0 14 2 C13.67 3.32 13.34 4.64 13 6 C9.7 5.67 6.4 5.34 3 5 C2.67 6.32 2.34 7.64 2 9 C2 6.69 2 4.38 2 2 C2.33 2.66 2.66 3.32 3 4 C4.98 4 6.96 4 9 4 C9 3.34 9 2.68 9 2 C5.7 2 2.4 2 -1 2 C-0.67 1.34 -0.34 0.68 0 0 Z " fill="#3C5A78" transform="translate(363,74)"/>
<path d="M0 0 C-3.75 2 -3.75 2 -6 2 C-5.01 5.3 -4.02 8.6 -3 12 C-5.8290723 9.1709277 -6.37611108 8.61855575 -7 5 C-7.91523437 4.95101562 -8.83046875 4.90203125 -9.7734375 4.8515625 C-10.96195313 4.77679688 -12.15046875 4.70203125 -13.375 4.625 C-14.55835937 4.55539063 -15.74171875 4.48578125 -16.9609375 4.4140625 C-20 4 -20 4 -22 2 C-20.53626953 2.03480469 -20.53626953 2.03480469 -19.04296875 2.0703125 C-17.77066406 2.08835937 -16.49835938 2.10640625 -15.1875 2.125 C-13.29064453 2.15980469 -13.29064453 2.15980469 -11.35546875 2.1953125 C-6.94042215 1.93832492 -4.603831 -0.24885573 0 0 Z " fill="#AFD0B4" transform="translate(94,98)"/>
<path d="M0 0 C2.5 0.125 2.5 0.125 3.5 1.125 C3.625 3.625 3.625 3.625 3.5 6.125 C2.5 7.125 2.5 7.125 0 7.25 C-2.5 7.125 -2.5 7.125 -3.5 6.125 C-3.625 3.625 -3.625 3.625 -3.5 1.125 C-2.5 0.125 -2.5 0.125 0 0 Z " fill="#BAC6D0" transform="translate(76.5,55.875)"/>
<path d="M0 0 C0.66 0 1.32 0 2 0 C2.268125 0.721875 2.53625 1.44375 2.8125 2.1875 C3.98982498 4.97590126 5.39145884 7.44095724 7 10 C6.01 9.67 5.02 9.34 4 9 C3.67 9.33 3.34 9.66 3 10 C2.34 10.66 1.68 11.32 1 12 C-1.83022097 8.00439392 -0.76210446 4.57262677 0 0 Z " fill="#23476B" transform="translate(391,84)"/>
<path d="M0 0 C2.31 0 4.62 0 7 0 C6.67 1.32 6.34 2.64 6 4 C8.31 4 10.62 4 13 4 C12.67 2.68 12.34 1.36 12 0 C14.31 0 16.62 0 19 0 C18.67 0.66 18.34 1.32 18 2 C17.01 2 16.02 2 15 2 C14.67 2.99 14.34 3.98 14 5 C11.03 5 8.06 5 5 5 C4.67 4.01 4.34 3.02 4 2 C1.99983534 0.79117904 1.99983534 0.79117904 0 0 Z " fill="#C8D3DB" transform="translate(67,89)"/>
<path d="M0 0 C1.32 0.99 2.64 1.98 4 3 C3.67 4.32 3.34 5.64 3 7 C2.34 6.01 1.68 5.02 1 4 C-0.58272601 5.58272601 -0.34735747 7.38034003 -0.5625 9.5625 C-0.64628906 10.38878906 -0.73007812 11.21507813 -0.81640625 12.06640625 C-0.87699219 12.70449219 -0.93757813 13.34257813 -1 14 C-1.33 14 -1.66 14 -2 14 C-2.66 10.7 -3.32 7.4 -4 4 C-6.31 3.34 -8.62 2.68 -11 2 C-11 1.67 -11 1.34 -11 1 C-7.66666667 1 -4.33333333 1 -1 1 C-0.67 0.67 -0.34 0.34 0 0 Z " fill="#446280" transform="translate(332,77)"/>
<path d="M0 0 C0.81434143 2.85160391 1.11881242 5.36626131 1.09765625 8.328125 C1.09282227 9.52695313 1.09282227 9.52695313 1.08789062 10.75 C1.07951172 11.575 1.07113281 12.4 1.0625 13.25 C1.05798828 14.09046875 1.05347656 14.9309375 1.04882812 15.796875 C1.03707961 17.86461401 1.01914522 19.93231624 1 22 C-2.46905388 18.53094612 -2.15784897 14.7441652 -2.1875 10 C-2.20167969 8.96875 -2.21585938 7.9375 -2.23046875 6.875 C-2.00276947 4.03454797 -1.46504061 2.40892052 0 0 Z " fill="#498E4E" transform="translate(51,66)"/>
<path d="M0 0 C0.99 0.33 1.98 0.66 3 1 C3 3.31 3 5.62 3 8 C1.02 8.99 1.02 8.99 -1 10 C-2 9 -2 9 -2.0625 5.4375 C-2.041875 4.303125 -2.02125 3.16875 -2 2 C-1.34 2 -0.68 2 0 2 C0 1.34 0 0.68 0 0 Z " fill="#11385E" transform="translate(374,89)"/>
<path d="M0 0 C5 2 5 2 10 4 C10 4.66 10 5.32 10 6 C10.57234375 6.10183594 11.1446875 6.20367188 11.734375 6.30859375 C14.40275646 7.12291016 16.05965688 8.34673122 18.25 10.0625 C18.95640625 10.61035156 19.6628125 11.15820312 20.390625 11.72265625 C20.92171875 12.14417969 21.4528125 12.56570312 22 13 C21.67 13.66 21.34 14.32 21 15 C20.47792969 14.64808594 19.95585938 14.29617187 19.41796875 13.93359375 C14.07365299 10.34887758 8.66514069 6.89350343 3.1875 3.515625 C1 2 1 2 0 0 Z " fill="#46565E" transform="translate(99,18)"/>
<path d="M0 0 C0.7425 0.0825 1.485 0.165 2.25 0.25 C-0.35614872 3.06962165 -3.32433573 5.20334682 -6.4375 7.4375 C-7.43136719 8.15292969 -8.42523438 8.86835938 -9.44921875 9.60546875 C-10.20847656 10.14816406 -10.96773438 10.69085938 -11.75 11.25 C-12.08 9.93 -12.41 8.61 -12.75 7.25 C-11.8425 6.8375 -10.935 6.425 -10 6 C-6.73084589 4.46004992 -6.73084589 4.46004992 -4.6875 2.0625 C-2.75 0.25 -2.75 0.25 0 0 Z " fill="#343D42" transform="translate(126.75,124.75)"/>
<path d="M0 0 C3.96 0.33 7.92 0.66 12 1 C12 1.66 12 2.32 12 3 C15.3 3 18.6 3 22 3 C22 3.33 22 3.66 22 4 C19.45767658 4.08152344 16.91800798 4.14073716 14.375 4.1875 C13.30572266 4.22520508 13.30572266 4.22520508 12.21484375 4.26367188 C7.37723584 4.33024446 4.25261662 3.55559453 0 1 C0 0.67 0 0.34 0 0 Z " fill="#367946" transform="translate(59,126)"/>
<path d="M0 0 C0.5625 1.9375 0.5625 1.9375 1 4 C0 5 0 5 -2.5625 5.0625 C-3.7690625 5.0315625 -3.7690625 5.0315625 -5 5 C-5.33 6.32 -5.66 7.64 -6 9 C-7.98 8.34 -9.96 7.68 -12 7 C-11.34 5.35 -10.68 3.7 -10 2 C-7.03 2.33 -4.06 2.66 -1 3 C-0.67 2.01 -0.34 1.02 0 0 Z " fill="#2E5271" transform="translate(177,92)"/>
<path d="M0 0 C0.66 0.99 1.32 1.98 2 3 C2.99 3.33 3.98 3.66 5 4 C5 4.99 5 5.98 5 7 C1.7 7 -1.6 7 -5 7 C-5 5.68 -5 4.36 -5 3 C-3.35 3 -1.7 3 0 3 C0 2.01 0 1.02 0 0 Z " fill="#295985" transform="translate(59,85)"/>
<path d="M0 0 C0.99 0 1.98 0 3 0 C2.54177532 3.46941546 2.10868317 6.67395049 1 10 C-1.0625 10.6875 -1.0625 10.6875 -3 11 C-2.53199289 6.94393835 -2.12046792 3.53411321 0 0 Z " fill="#093359" transform="translate(246,80)"/>
<path d="M0 0 C1.32 0 2.64 0 4 0 C4.12117188 0.62648437 4.24234375 1.25296875 4.3671875 1.8984375 C4.53476563 2.71570312 4.70234375 3.53296875 4.875 4.375 C5.03742188 5.18710937 5.19984375 5.99921875 5.3671875 6.8359375 C5.86658932 9.18673923 5.86658932 9.18673923 8 11 C7.01 11.33 6.02 11.66 5 12 C0 7 0 7 -0.125 3.375 C-0.08375 2.26125 -0.0425 1.1475 0 0 Z " fill="#819FA6" transform="translate(74,35)"/>
<path d="M0 0 C2.93360834 1.36553261 5.38636204 2.95215897 7.9375 4.9375 C10.26511389 6.72998023 12.42864185 8.24111104 15 9.6875 C15.99 10.3371875 15.99 10.3371875 17 11 C17 11.99 17 12.98 17 14 C16.34 13.67 15.68 13.34 15 13 C15 12.34 15 11.68 15 11 C14.28457031 10.9278125 13.56914063 10.855625 12.83203125 10.78125 C9.20790187 9.78149017 7.41915374 8.05763728 4.6875 5.5 C3.80449219 4.6853125 2.92148437 3.870625 2.01171875 3.03125 C0 1 0 1 0 0 Z " fill="#535F66" transform="translate(29,128)"/>
<path d="M0 0 C0.66 0 1.32 0 2 0 C2.75 1.75 2.75 1.75 3 4 C1.0625 6.25 1.0625 6.25 -1 8 C-2.98 7.34 -4.96 6.68 -7 6 C-5.35 4.35 -3.7 2.7 -2 1 C-1.67 1.33 -1.34 1.66 -1 2 C-0.67 1.34 -0.34 0.68 0 0 Z " fill="#1A4269" transform="translate(333,90)"/>
<path d="M0 0 C4.54805635 -0.17835515 7.8794254 0.00214565 12 2 C11.67 3.32 11.34 4.64 11 6 C8.03 6 5.06 6 2 6 C3.32 5.34 4.64 4.68 6 4 C6.33 3.67 6.66 3.34 7 3 C4.69 2.34 2.38 1.68 0 1 C0 0.67 0 0.34 0 0 Z " fill="#4A6683" transform="translate(171,73)"/>
<path d="M0 0 C3.47171114 1.15723705 6.06528163 2.83389834 9 5 C8.34 5.66 7.68 6.32 7 7 C4.36 5.35 1.72 3.7 -1 2 C-3.64 3.65 -6.28 5.3 -9 7 C-9 6.01 -9 5.02 -9 4 C-5.94575214 1.38207326 -4.0808029 0 0 0 Z " fill="#96B3A9" transform="translate(77,66)"/>
<path d="M0 0 C3.375 -0.125 3.375 -0.125 7 0 C7.66 0.66 8.32 1.32 9 2 C7.35 2.33 5.7 2.66 4 3 C3.74969023 5.41619823 3.74969023 5.41619823 4 8 C4.99 8.66 5.98 9.32 7 10 C5.35 10 3.7 10 2 10 C0.68373308 6.38026598 0 3.90432869 0 0 Z " fill="#46698A" transform="translate(70,54)"/>
<path d="M0 0 C2 2 2 2 2.265625 4.64453125 C2.25789063 6.21267578 2.25789063 6.21267578 2.25 7.8125 C2.25515625 8.85019531 2.2603125 9.88789062 2.265625 10.95703125 C1.99831735 14.0192763 1.29090101 16.22866092 0 19 C-0.33 19 -0.66 19 -1 19 C-0.67 12.73 -0.34 6.46 0 0 Z " fill="#478750" transform="translate(102,69)"/>
<path d="M0 0 C2.64 0 5.28 0 8 0 C8 0.99 8 1.98 8 3 C9.98 3 11.96 3 14 3 C14.33 2.34 14.66 1.68 15 1 C15.66 1.99 16.32 2.98 17 4 C14.91781638 4.10832169 12.83400871 4.18573541 10.75 4.25 C9.00976562 4.31960937 9.00976562 4.31960937 7.234375 4.390625 C3.42333987 3.93035506 2.34488245 2.94851556 0 0 Z " fill="#1D4264" transform="translate(83,69)"/>
<path d="M0 0 C0.33 0 0.66 0 1 0 C1.33 2.31 1.66 4.62 2 7 C2.99 7.33 3.98 7.66 5 8 C5 9.65 5 11.3 5 13 C4.01 13 3.02 13 2 13 C1.67 14.65 1.34 16.3 1 18 C0.67 18 0.34 18 0 18 C0 12.06 0 6.12 0 0 Z " fill="#7F93A2" transform="translate(87,75)"/>
<path d="M0 0 C-0.33 1.32 -0.66 2.64 -1 4 C-5.455 4.495 -5.455 4.495 -10 5 C-9.67 3.68 -9.34 2.36 -9 1 C-5.92677456 0.08941469 -3.19902639 -0.08886184 0 0 Z " fill="#34823C" transform="translate(80,95)"/>
<path d="M0 0 C0.66 0 1.32 0 2 0 C2.12375 1.134375 2.2475 2.26875 2.375 3.4375 C2.684375 5.2009375 2.684375 5.2009375 3 7 C3.66 7.33 4.32 7.66 5 8 C3.02 8.33 1.04 8.66 -1 9 C-2.25541557 5.23375329 -1.37061958 3.62811066 0 0 Z " fill="#093057" transform="translate(363,78)"/>
<path d="M0 0 C1.32 0.33 2.64 0.66 4 1 C4.33 3.31 4.66 5.62 5 8 C3.68 7.67 2.36 7.34 1 7 C0.67 4.69 0.34 2.38 0 0 Z " fill="#397E44" transform="translate(84,104)"/>
<path d="M0 0 C0 1.32 0 2.64 0 4 C-2.64 4 -5.28 4 -8 4 C-8 2.68 -8 1.36 -8 0 C-4.71023192 -1.09658936 -3.28696233 -0.79953138 0 0 Z " fill="#9DB3C5" transform="translate(63,84)"/>
<path d="M0 0 C2.64 0 5.28 0 8 0 C8 1.65 8 3.3 8 5 C7.01 5 6.02 5 5 5 C5 3.68 5 2.36 5 1 C4.34 1 3.68 1 3 1 C3 2.32 3 3.64 3 5 C2.01 5 1.02 5 0 5 C0 3.35 0 1.7 0 0 Z " fill="#A6BBCD" transform="translate(55,76)"/>
<path d="M0 0 C0.66 0 1.32 0 2 0 C3.32 2.31 4.64 4.62 6 7 C3.69 7 1.38 7 -1 7 C-1.04254356 5.00045254 -1.04080783 2.99958364 -1 1 C-0.67 0.67 -0.34 0.34 0 0 Z " fill="#133B66" transform="translate(77,45)"/>
<path d="M0 0 C0.66 0 1.32 0 2 0 C3.3671875 1.609375 3.3671875 1.609375 4.875 3.75 C7.05731197 6.76672537 9.25356742 9.46483146 12 12 C11.34 12.66 10.68 13.32 10 14 C8.69979989 12.61211198 7.4101807 11.21430742 6.125 9.8125 C5.40570313 9.03519531 4.68640625 8.25789063 3.9453125 7.45703125 C2.0182908 5.02310224 0.98699889 2.92463354 0 0 Z " fill="#214D73" transform="translate(31,109)"/>
<path d="M0 0 C2.97 0 5.94 0 9 0 C9 1.32 9 2.64 9 4 C6.36 4 3.72 4 1 4 C1.33 3.01 1.66 2.02 2 1 C1.34 0.67 0.68 0.34 0 0 Z " fill="#133B60" transform="translate(292,85)"/>
<path d="M0 0 C4.29 0 8.58 0 13 0 C13.33 1.32 13.66 2.64 14 4 C12.02 4 10.04 4 8 4 C8 3.01 8 2.02 8 1 C5.36 1 2.72 1 0 1 C0 0.67 0 0.34 0 0 Z " fill="#0C3154" transform="translate(83,68)"/>
<path d="M0 0 C1.65 0.99 3.3 1.98 5 3 C4.625 4.9375 4.625 4.9375 4 7 C3.01 7.495 3.01 7.495 2 8 C2 7.34 2 6.68 2 6 C0.68 5.34 -0.64 4.68 -2 4 C-1.34 2.68 -0.68 1.36 0 0 Z " fill="#1F4A72" transform="translate(80,111)"/>
<path d="M0 0 C2.91517292 1.07401108 4.77810176 1.77810176 7 4 C7.125 7.625 7.125 7.625 7 11 C6.67 11 6.34 11 6 11 C5.87625 10.030625 5.7525 9.06125 5.625 8.0625 C5.315625 6.5465625 5.315625 6.5465625 5 5 C4.34 4.67 3.68 4.34 3 4 C3 4.66 3 5.32 3 6 C1.35 6 -0.3 6 -2 6 C-1.01 5.67 -0.02 5.34 1 5 C0.67 3.35 0.34 1.7 0 0 Z " fill="#395977" transform="translate(371,85)"/>
<path d="M0 0 C0.66 0.33 1.32 0.66 2 1 C2 3.64 2 6.28 2 9 C1.01 9 0.02 9 -1 9 C-1.625 5.625 -1.625 5.625 -2 2 C-1.34 1.34 -0.68 0.68 0 0 Z " fill="#0B365E" transform="translate(235,83)"/>
<path d="M0 0 C1.65 0.33 3.3 0.66 5 1 C4.360625 1.845625 3.72125 2.69125 3.0625 3.5625 C0.8033727 6.90728565 0.32208241 9.97396992 0 14 C-0.33 14 -0.66 14 -1 14 C-1.02705729 12.22925083 -1.04642195 10.45838289 -1.0625 8.6875 C-1.07410156 7.70136719 -1.08570313 6.71523437 -1.09765625 5.69921875 C-1 3 -1 3 0 0 Z " fill="#D9E4DD" transform="translate(52,67)"/>
<path d="M0 0 C1.32 0 2.64 0 4 0 C4.625 1.875 4.625 1.875 5 4 C2.31907309 6.68092691 0.60832637 6.38670257 -3.125 6.625 C-4.22070312 6.69976562 -5.31640625 6.77453125 -6.4453125 6.8515625 C-7.28835938 6.90054688 -8.13140625 6.94953125 -9 7 C-8.67 6.34 -8.34 5.68 -8 5 C-5.93359375 4.5859375 -5.93359375 4.5859375 -3.4375 4.375 C-2.61121094 4.30023438 -1.78492188 4.22546875 -0.93359375 4.1484375 C0.02353516 4.07496094 0.02353516 4.07496094 1 4 C1.33 3.01 1.66 2.02 2 1 C1.34 0.67 0.68 0.34 0 0 Z " fill="#CDD5DC" transform="translate(281,74)"/>
<path d="M0 0 C0.66 0.33 1.32 0.66 2 1 C0.90081184 1.98475214 -0.2045602 2.96260473 -1.3125 3.9375 C-1.92738281 4.48277344 -2.54226562 5.02804688 -3.17578125 5.58984375 C-5 7 -5 7 -8 8 C-8.99 7.34 -9.98 6.68 -11 6 C-9.21385682 4.96953278 -7.42089982 3.95086764 -5.625 2.9375 C-4.62726563 2.36902344 -3.62953125 1.80054687 -2.6015625 1.21484375 C-1.74304688 0.81394531 -0.88453125 0.41304688 0 0 Z " fill="#2B6751" transform="translate(107,117)"/>
<path d="M0 0 C4.455 0.99 4.455 0.99 9 2 C9 2.33 9 2.66 9 3 C5.38026598 4.31626692 2.90432869 5 -1 5 C-1.33 4.34 -1.66 3.68 -2 3 C-1.34 2.01 -0.68 1.02 0 0 Z " fill="#264A6F" transform="translate(361,94)"/>
<path d="M0 0 C2.875 -0.1875 2.875 -0.1875 6 0 C6.66 0.99 7.32 1.98 8 3 C7.01 3.66 6.02 4.32 5 5 C4.34 5.66 3.68 6.32 3 7 C0 2.25 0 2.25 0 0 Z " fill="#C8D9D2" transform="translate(80,46)"/>
<path d="M0 0 C0.33 0 0.66 0 1 0 C1.33 2.97 1.66 5.94 2 9 C0.35 9.33 -1.3 9.66 -3 10 C-2.01 6.7 -1.02 3.4 0 0 Z " fill="#DCE1E5" transform="translate(251,76)"/>
<path d="M0 0 C2 2 2 2 2 6 C-0.875 5.6875 -0.875 5.6875 -4 5 C-4.66 4.01 -5.32 3.02 -6 2 C-5.01 1.67 -4.02 1.34 -3 1 C-2.67 1.66 -2.34 2.32 -2 3 C-1.34 2.01 -0.68 1.02 0 0 Z " fill="#276352" transform="translate(73,115)"/>
<path d="M0 0 C0.99 0.495 0.99 0.495 2 1 C2.8125 3.8125 2.8125 3.8125 3 7 C2.01 8.32 1.02 9.64 0 11 C0 7.37 0 3.74 0 0 Z " fill="#072F54" transform="translate(266,80)"/>
<path d="M0 0 C2 2 2 2 2 3 C4.97 3.495 4.97 3.495 8 4 C8 4.33 8 4.66 8 5 C4.04 5 0.08 5 -4 5 C-2.68 3.35 -1.36 1.7 0 0 Z " fill="#3B638D" transform="translate(57,68)"/>
<path d="M0 0 C0.66 0 1.32 0 2 0 C2 0.66 2 1.32 2 2 C6.62 2 11.24 2 16 2 C16 2.33 16 2.66 16 3 C9.73 3 3.46 3 -3 3 C-2.01 2.01 -1.02 1.02 0 0 Z " fill="#C6D3D4" transform="translate(67,51)"/>
<path d="M0 0 C0.33 0 0.66 0 1 0 C1.66 3.63 2.32 7.26 3 11 C2.34 11 1.68 11 1 11 C1 10.34 1 9.68 1 9 C0.34 9 -0.32 9 -1 9 C-1.80967438 6.08517222 -2.21845993 4.53886783 -1.0625 1.6875 C-0.711875 1.130625 -0.36125 0.57375 0 0 Z " fill="#2F5475" transform="translate(269,84)"/>
<path d="M0 0 C1.32 0 2.64 0 4 0 C4.33 1.32 4.66 2.64 5 4 C4.01 4 3.02 4 2 4 C1.67 5.98 1.34 7.96 1 10 C0.67 10 0.34 10 0 10 C0 6.7 0 3.4 0 0 Z " fill="#C4CFD8" transform="translate(213,91)"/>
<path d="M0 0 C0.33 0 0.66 0 1 0 C1.16834933 1.77067416 1.33461909 3.54154612 1.5 5.3125 C1.5928125 6.29863281 1.685625 7.28476563 1.78125 8.30078125 C2 11 2 11 2 14 C0.68 13.01 -0.64 12.02 -2 11 C-1.34 7.37 -0.68 3.74 0 0 Z " fill="#DEE4E9" transform="translate(263,82)"/>
<path d="M0 0 C0.99 0.33 1.98 0.66 3 1 C2.67 6.28 2.34 11.56 2 17 C1.67 17 1.34 17 1 17 C0.67 11.39 0.34 5.78 0 0 Z " fill="#C9D2D8" transform="translate(85,72)"/>
<path d="M0 0 C0 1.65 0 3.3 0 5 C-1.32 5 -2.64 5 -4 5 C-4 4.34 -4 3.68 -4 3 C-4.66 2.67 -5.32 2.34 -6 2 C-3 0 -3 0 0 0 Z " fill="#143A5F" transform="translate(82,62)"/>
<path d="M0 0 C3.96 1.98 3.96 1.98 8 4 C5 6 5 6 2.8125 5.625 C2.214375 5.41875 1.61625 5.2125 1 5 C0.67 3.35 0.34 1.7 0 0 Z " fill="#1C4C6C" transform="translate(74,115)"/>
<path d="M0 0 C2.64 0 5.28 0 8 0 C7.67 0.99 7.34 1.98 7 3 C5.02 3 3.04 3 1 3 C0.67 2.01 0.34 1.02 0 0 Z " fill="#4A8F52" transform="translate(57,95)"/>
<path d="M0 0 C0.66 0 1.32 0 2 0 C2 2.64 2 5.28 2 8 C1.01 8 0.02 8 -1 8 C-0.67 5.36 -0.34 2.72 0 0 Z " fill="#0B3054" transform="translate(391,84)"/>
<path d="M0 0 C2.64 0 5.28 0 8 0 C8 0.99 8 1.98 8 3 C5.125 3.1875 5.125 3.1875 2 3 C1.34 2.01 0.68 1.02 0 0 Z " fill="#0A355C" transform="translate(194,86)"/>
<path d="M0 0 C2.475 0.495 2.475 0.495 5 1 C5 2.32 5 3.64 5 5 C3.68 5 2.36 5 1 5 C0.67 3.35 0.34 1.7 0 0 Z " fill="#81AC82" transform="translate(74,79)"/>
<path d="M0 0 C0.95930163 3.8372065 1.15195929 5.35212892 0 9 C-0.99 9.66 -1.98 10.32 -3 11 C-2.01 7.37 -1.02 3.74 0 0 Z M2 5 C2.33 5.66 2.66 6.32 3 7 C2.34 6.67 1.68 6.34 1 6 C1.33 5.67 1.66 5.34 2 5 Z " fill="#BFC9D2" transform="translate(247,87)"/>
<path d="M0 0 C2.4375 0.8125 2.4375 0.8125 5 2 C5.33 2.99 5.66 3.98 6 5 C4.02 5 2.04 5 0 5 C0 3.35 0 1.7 0 0 Z " fill="#F9FAF9" transform="translate(66,89)"/>
<path d="M0 0 C0.33 0 0.66 0 1 0 C1 3.63 1 7.26 1 11 C0.34 11 -0.32 11 -1 11 C-1 9.35 -1 7.7 -1 6 C-1.66 5.67 -2.32 5.34 -3 5 C-2.34 4.67 -1.68 4.34 -1 4 C-0.34786708 1.97536745 -0.34786708 1.97536745 0 0 Z " fill="#224465" transform="translate(98,77)"/>
<path d="M0 0 C0.99 0 1.98 0 3 0 C2.01 2.97 1.02 5.94 0 9 C-0.33 9 -0.66 9 -1 9 C-1.125 2.25 -1.125 2.25 0 0 Z " fill="#1F4164" transform="translate(361,76)"/>
<path d="M0 0 C0.66 0 1.32 0 2 0 C2.33 0.99 2.66 1.98 3 3 C3.99 3.33 4.98 3.66 6 4 C6 4.66 6 5.32 6 6 C4.33388095 6.042721 2.66617115 6.04063832 1 6 C0 5 0 5 -0.0625 2.4375 C-0.041875 1.633125 -0.02125 0.82875 0 0 Z " fill="#E1E8EC" transform="translate(73,57)"/>
<path d="M0 0 C2.38564077 0.57584432 4.66682784 1.22227595 7 2 C7 2.66 7 3.32 7 4 C5.68 4 4.36 4 3 4 C2.67 4.66 2.34 5.32 2 6 C1.34 4.02 0.68 2.04 0 0 Z " fill="#72797E" transform="translate(132,47)"/>
<path d="M0 0 C1.65 0 3.3 0 5 0 C6 3 6 3 5.0625 5.1875 C4.5365625 6.0846875 4.5365625 6.0846875 4 7 C2.68 6.67 1.36 6.34 0 6 C0.99 5.67 1.98 5.34 3 5 C2.2236068 1.9254644 2.2236068 1.9254644 0 0 Z " fill="#DFE5E9" transform="translate(280,94)"/>
<path d="M0 0 C0 1.65 0 3.3 0 5 C-1.98 5 -3.96 5 -6 5 C-5 2 -5 2 -3 0.8125 C-1 0 -1 0 0 0 Z " fill="#FAFAF9" transform="translate(87,89)"/>
<path d="M0 0 C2.31 0 4.62 0 7 0 C7 0.99 7 1.98 7 3 C5.02 3 3.04 3 1 3 C0.67 2.01 0.34 1.02 0 0 Z " fill="#0A3258" transform="translate(348,86)"/>
<path d="M0 0 C1.98 0 3.96 0 6 0 C5.01 0.495 5.01 0.495 4 1 C3.34444881 3.52733235 3.34444881 3.52733235 3 6 C1.5 4.6875 1.5 4.6875 0 3 C0 2.01 0 1.02 0 0 Z " fill="#476381" transform="translate(228,74)"/>
<path d="M0 0 C0.99 0.33 1.98 0.66 3 1 C1.35 2.65 -0.3 4.3 -2 6 C-2.66 5.34 -3.32 4.68 -4 4 C-2.68 2.68 -1.36 1.36 0 0 Z " fill="#649A68" transform="translate(58,54)"/>
<path d="M0 0 C3.82097239 0.53069061 6.06171403 1.49701566 9 4 C6 5 6 5 3.8125 4.0625 C3.214375 3.711875 2.61625 3.36125 2 3 C2 2.34 2 1.68 2 1 C1.34 0.67 0.68 0.34 0 0 Z " fill="#59935F" transform="translate(83,49)"/>
<path d="M0 0 C0.66 0.66 1.32 1.32 2 2 C-0.75 2.6875 -0.75 2.6875 -4 3 C-6.375 1.5625 -6.375 1.5625 -8 0 C-4.96083486 -0.97687451 -3.01586454 -1.105817 0 0 Z " fill="#2D6850" transform="translate(90,127)"/>
<path d="M0 0 C1.98 0.66 3.96 1.32 6 2 C5.01 2.495 5.01 2.495 4 3 C4 3.66 4 4.32 4 5 C1.525 4.01 1.525 4.01 -1 3 C-0.67 2.01 -0.34 1.02 0 0 Z " fill="#214D73" transform="translate(49,125)"/>
<path d="M0 0 C0.94875 0.04125 1.8975 0.0825 2.875 0.125 C2.545 1.115 2.215 2.105 1.875 3.125 C-0.435 3.455 -2.745 3.785 -5.125 4.125 C-5.125 0.41389311 -3.38352144 0.13534086 0 0 Z " fill="#4B8C53" transform="translate(93.125,94.875)"/>
<path d="M0 0 C1.2065625 0.0309375 1.2065625 0.0309375 2.4375 0.0625 C0.7875 1.7125 -0.8625 3.3625 -2.5625 5.0625 C-3.125 3.125 -3.125 3.125 -3.5625 1.0625 C-2.5625 0.0625 -2.5625 0.0625 0 0 Z " fill="#395466" transform="translate(117.5625,130.9375)"/>
<path d="M0 0 C0.90105469 0.00902344 1.80210937 0.01804687 2.73046875 0.02734375 C3.41753906 0.03894531 4.10460937 0.05054687 4.8125 0.0625 C4.8125 0.3925 4.8125 0.7225 4.8125 1.0625 C3.21200296 1.45286513 1.60687629 1.82428619 0 2.1875 C-0.89332031 2.39632812 -1.78664063 2.60515625 -2.70703125 2.8203125 C-5.1875 3.0625 -5.1875 3.0625 -8.1875 1.0625 C-5.17259443 0.05753148 -3.14568308 -0.04085303 0 0 Z " fill="#FDFCFC" transform="translate(398.1875,100.9375)"/>
<path d="M0 0 C1.32 0.33 2.64 0.66 4 1 C4 2.65 4 4.3 4 6 C3.01 6 2.02 6 1 6 C0.67 4.02 0.34 2.04 0 0 Z " fill="#8B9FAF" transform="translate(88,82)"/>
<path d="M0 0 C1.32 0.66 2.64 1.32 4 2 C2.68 3.32 1.36 4.64 0 6 C-0.66 5.01 -1.32 4.02 -2 3 C-1.34 2.01 -0.68 1.02 0 0 Z " fill="#164168" transform="translate(269,78)"/>
</svg>
