<svg version="1.1" id="Layer_1" xmlns="http://www.w3.org/2000/svg" xmlns:xlink="http://www.w3.org/1999/xlink" x="0px" y="0px"
	 width="100%" viewBox="0 0 832 1248" enable-background="new 0 0 832 1248" xml:space="preserve">
<path fill="none" opacity="1.000000" stroke="#000000" stroke-linecap="round" stroke-linejoin="round" stroke-width="6.000000"
	d="
M254.500000,235.500000 
	C246.443710,248.505280 236.312653,259.508942 223.511658,268.017548 
	C210.940033,276.373718 197.336182,281.991150 182.525223,285.119446 
	C173.029358,287.125122 163.474869,287.680267 154.013626,286.845551 
	C133.190094,285.008301 114.260849,277.740570 97.473534,265.034973 
	C88.000679,257.865387 80.291832,249.137100 73.500000,239.500000 
"/>
<path fill="none" opacity="1.000000" stroke="#000000" stroke-linecap="round" stroke-linejoin="round" stroke-width="5.000000"
	d="
M286.000000,95.000000 
	C282.636688,100.233437 282.844513,105.376579 285.406891,111.042107 
	C289.783997,120.719955 292.252808,131.000107 294.070984,141.487701 
	C296.525696,155.647247 296.670776,169.848236 294.877411,183.984451 
	C293.264343,196.699326 290.389618,209.178726 285.078461,221.035141 
	C280.894043,230.376266 276.109924,239.311127 269.942200,247.456223 
	C268.340790,249.571060 268.178528,251.813095 268.587036,253.983627 
	C269.355804,258.068451 270.191925,262.187073 272.000000,266.000000 
"/>
<path fill="none" opacity="1.000000" stroke="#000000" stroke-linecap="round" stroke-linejoin="round" stroke-width="6.000000"
	d="
M228.500000,252.500000 
	C216.518326,262.181366 203.746353,270.124420 188.543259,274.162842 
	C175.718277,277.569550 163.072205,277.955048 149.986267,276.636322 
	C133.213303,274.946136 118.622421,268.364960 105.011803,258.982880 
	C103.258949,257.774597 101.666664,256.333344 99.999992,255.000000 
"/>
<path fill="none" opacity="1.000000" stroke="#000000" stroke-linecap="round" stroke-linejoin="round" stroke-width="11.000000"
	d="
M468.500000,155.750000 
	C472.165619,157.288651 473.501160,160.429276 474.540741,163.988098 
	C477.423248,173.855743 480.440216,183.685577 483.540741,193.487122 
	C484.346039,196.032898 485.138123,198.918793 488.018921,199.946991 
	C490.928802,200.985565 493.455597,198.889313 494.964233,193.988983 
	C498.082916,183.858856 501.241058,173.728409 503.869446,163.466568 
	C504.791718,159.865860 506.228790,157.312897 509.500000,155.750000 
"/>
<path fill="none" opacity="1.000000" stroke="#000000" stroke-linecap="round" stroke-linejoin="round" stroke-width="4.000000"
	d="
M163.000000,194.500000 
	C167.443802,191.919952 172.316376,193.203979 177.001984,193.068924 
	C179.930801,192.984512 181.523041,192.087936 181.507919,188.999954 
	C181.480148,183.333420 181.407974,177.664597 181.535324,172.000793 
	C181.608917,168.728241 180.483154,167.362793 176.998657,167.434540 
	C167.669281,167.626602 158.332947,167.546310 149.000259,167.468231 
	C146.592972,167.448105 144.031281,167.637924 144.099808,170.497604 
	C144.275772,177.839813 142.851730,185.313141 145.229324,192.283890 
	C151.159256,193.229614 157.157425,191.078568 162.500000,194.500000 
"/>
<path fill="none" opacity="1.000000" stroke="#000000" stroke-linecap="round" stroke-linejoin="round" stroke-width="5.000000"
	d="
M149.500000,112.500000 
	C143.837067,116.131538 137.439362,118.430756 131.977722,122.469879 
	C116.635315,133.816299 108.578110,149.088440 108.151192,168.003418 
	C107.956596,176.625381 110.939423,185.010696 112.500000,193.500000 
"/>
<path fill="none" opacity="1.000000" stroke="#000000" stroke-linecap="round" stroke-linejoin="round" stroke-width="5.000000"
	d="
M182.500000,115.500000 
	C189.106766,119.615173 196.110306,123.127609 201.519913,128.981598 
	C211.459366,139.737503 217.091415,151.985168 217.192719,166.998703 
	C217.252228,175.819061 214.407974,183.964493 213.500000,192.500000 
"/>
<path fill="none" opacity="1.000000" stroke="#000000" stroke-linecap="round" stroke-linejoin="round" stroke-width="11.000000"
	d="
M572.500000,162.500000 
	C571.223450,157.276382 567.958923,155.719910 561.493713,156.444031 
	C551.792786,157.530563 546.334656,163.259766 544.364624,173.473892 
	C542.414734,183.584198 544.068909,192.244751 552.055969,198.933167 
	C557.639221,203.608597 564.390137,203.094940 570.984802,201.439499 
	C573.318420,200.853668 572.579468,198.123047 573.500000,196.500000 
"/>
<path fill="none" opacity="1.000000" stroke="#000000" stroke-linecap="round" stroke-linejoin="round" stroke-width="10.000000"
	d="
M128.500000,94.500000 
	C128.166672,96.166664 127.524254,97.838867 127.553947,99.499039 
	C127.677055,106.381950 124.877831,111.951385 119.962875,116.459526 
	C116.650322,119.497887 113.296951,122.469749 110.508438,126.006653 
	C107.898964,129.316483 103.853409,130.364227 100.998123,131.992783 
	C101.273636,145.290024 97.947960,157.040802 91.600197,168.608047 
	C98.268456,176.294693 99.445084,186.798721 101.015366,196.577820 
	C101.965828,202.496979 102.221390,205.632156 108.240211,208.968643 
	C114.722748,212.562210 119.494759,219.566223 124.395088,225.585419 
	C128.242172,230.310867 127.285866,232.161789 121.502701,234.008453 
	C120.649879,234.280762 119.833336,234.666672 119.000000,235.000000 
"/>
<path fill="none" opacity="1.000000" stroke="#000000" stroke-linecap="round" stroke-linejoin="round" stroke-width="12.000000"
	d="
M446.000000,183.000000 
	C448.719025,180.555832 452.274170,178.870667 453.955078,175.477753 
	C458.455811,166.393234 453.317688,157.932007 443.995270,157.664169 
	C425.034058,157.119354 428.327637,156.395386 428.690674,171.995560 
	C428.912323,181.519592 428.073486,191.000000 428.500000,200.500000 
"/>
<path fill="none" opacity="1.000000" stroke="#000000" stroke-linecap="round" stroke-linejoin="round" stroke-width="11.000000"
	d="
M367.500000,162.500000 
	C367.360596,157.130325 363.017212,157.386551 359.501801,156.492874 
	C353.893188,155.067017 348.912933,156.566376 345.072723,160.569748 
	C340.669708,165.159790 341.919586,172.011215 347.526276,175.457275 
	C351.228027,177.732483 355.382935,179.080963 359.480469,180.554352 
	C366.430573,183.053482 368.635223,186.863190 367.499969,193.500000 
	C366.626984,198.603653 361.812775,202.058533 355.504639,202.558472 
	C352.051941,202.832108 348.745239,202.084305 345.529510,201.367599 
	C341.684784,200.510666 339.812714,197.678253 341.000000,193.500000 
"/>
<path fill="none" opacity="1.000000" stroke="#000000" stroke-linecap="round" stroke-linejoin="round" stroke-width="6.000000"
	d="
M211.500000,162.000000 
	C202.548248,157.434540 192.433884,157.572525 183.024979,154.911667 
	C178.695496,153.687271 173.565964,153.299316 171.880219,147.535034 
	C171.409744,145.926285 170.780563,144.637375 171.474457,142.989243 
	C171.941879,141.879028 172.171753,140.668091 172.499100,139.499756 
	C173.770203,134.962936 175.260513,129.636017 170.857880,126.714149 
	C165.628601,123.243683 159.366608,123.461601 153.473297,126.447281 
	C152.221481,127.081467 152.156113,127.892761 151.972412,128.995407 
	C151.261551,133.262344 151.135071,137.368240 152.937408,141.527130 
	C155.204178,146.757675 152.617035,151.627594 146.999741,153.499222 
	C141.791245,155.234634 136.608780,156.907791 131.001526,157.057327 
	C125.021660,157.216812 119.952774,160.524979 114.500000,162.500000 
"/>
<path fill="none" opacity="1.000000" stroke="#000000" stroke-linecap="round" stroke-linejoin="round" stroke-width="3.000000"
	d="
M563.500000,958.000000 
	C559.166687,958.000000 554.833313,958.000000 550.500000,958.000000 
"/>
<path fill="none" opacity="1.000000" stroke="#000000" stroke-linecap="round" stroke-linejoin="round" stroke-width="5.000000"
	d="
M562.500000,950.500000 
	C558.500000,950.500000 554.500000,950.500000 550.500000,950.500000 
"/>
<path fill="none" opacity="1.000000" stroke="#000000" stroke-linecap="round" stroke-linejoin="round" stroke-width="10.000000"
	d="
M768.500000,157.500000 
	C763.030579,159.343903 757.850647,156.637421 752.501709,156.450546 
	C746.605835,156.244553 741.397888,158.483612 739.500000,162.500000 
	C737.095886,167.587692 739.037109,173.192780 744.526367,175.947403 
	C748.389832,177.886154 752.517639,179.292435 756.496033,181.009247 
	C763.061035,183.842331 764.392700,186.264175 763.500061,193.500000 
	C762.988770,197.644379 758.549927,201.940521 753.490479,202.393311 
	C750.551697,202.656326 747.533630,202.712265 744.479858,202.100388 
	C739.534180,201.109421 736.261414,199.067673 736.500000,193.500000 
"/>
<path fill="none" opacity="1.000000" stroke="#000000" stroke-linecap="round" stroke-linejoin="round" stroke-width="12.000000"
	d="
M409.500000,157.500000 
	C404.166656,157.500000 398.831390,157.410400 393.500580,157.526199 
	C388.552734,157.633636 387.520264,158.723755 387.508331,163.500015 
	C387.481689,174.166626 387.481689,184.833374 387.508331,195.499985 
	C387.520264,200.276260 388.552704,201.366348 393.500580,201.473816 
	C398.831390,201.589630 404.166656,201.500000 409.500000,201.500000 
"/>
<path fill="none" opacity="1.000000" stroke="#000000" stroke-linecap="round" stroke-linejoin="round" stroke-width="12.000000"
	d="
M611.500000,157.500000 
	C606.500000,157.500000 601.497925,157.410172 596.500610,157.525391 
	C591.552734,157.639465 590.520264,158.723740 590.508301,163.500015 
	C590.481689,174.166626 590.481689,184.833374 590.508301,195.499985 
	C590.520264,200.276245 591.552734,201.366348 596.500549,201.473816 
	C601.831360,201.589630 607.166687,201.500000 612.500000,201.500000 
"/>
<path fill="none" opacity="1.000000" stroke="#000000" stroke-linecap="round" stroke-linejoin="round" stroke-width="12.000000"
	d="
M721.500000,157.500000 
	C716.166687,157.500000 710.831360,157.410370 705.500549,157.526184 
	C700.552734,157.633652 699.520264,158.723755 699.508301,163.500015 
	C699.481689,174.166626 699.481689,184.833374 699.508301,195.499985 
	C699.520264,200.276260 700.552734,201.366348 705.500549,201.473816 
	C710.831360,201.589630 716.166687,201.500000 721.500000,201.500000 
"/>
<path fill="none" opacity="1.000000" stroke="#000000" stroke-linecap="round" stroke-linejoin="round" stroke-width="12.000000"
	d="
M523.500000,158.500000 
	C523.500000,172.500000 523.500000,186.500000 523.500000,200.500000 
"/>
<path fill="none" opacity="1.000000" stroke="#000000" stroke-linecap="round" stroke-linejoin="round" stroke-width="10.000000"
	d="
M168.500000,86.500000 
	C169.000000,89.500000 169.763870,92.485649 169.928070,95.503914 
	C170.103027,98.719994 172.319885,100.988701 174.528015,101.303589 
	C182.571014,102.450607 190.007874,107.119438 198.500000,105.500000 
"/>
<path fill="none" opacity="1.000000" stroke="#000000" stroke-linecap="round" stroke-linejoin="round" stroke-width="10.000000"
	d="
M156.749985,87.000000 
	C156.666656,88.166664 156.625748,89.338188 156.493027,90.499207 
	C155.707550,97.370529 156.970612,100.149651 147.004654,102.519585 
	C143.309158,103.398376 139.618683,104.354782 136.015106,105.545723 
	C133.107193,106.506760 130.333328,105.636963 127.500000,105.500000 
"/>
<path fill="none" opacity="1.000000" stroke="#000000" stroke-linecap="round" stroke-linejoin="round" stroke-width="6.000000"
	d="
M188.500000,237.500000 
	C186.653061,237.613968 184.954315,237.636948 183.975204,235.511414 
	C180.718033,228.440521 173.708740,226.164169 167.460358,223.080338 
	C164.293762,221.517487 161.243408,223.440872 158.527618,225.046722 
	C156.069305,226.500320 154.434540,229.175034 151.500000,230.000000 
"/>
<path fill="none" opacity="1.000000" stroke="#000000" stroke-linecap="round" stroke-linejoin="round" stroke-width="4.000000"
	d="
M55.000000,114.500000 
	C50.971287,119.913368 53.050095,124.595757 59.017818,126.954926 
	C61.696846,128.013992 64.729301,125.439201 66.584007,122.045914 
	C68.747536,118.087646 66.315559,117.092224 63.500000,116.000000 
"/>
<path fill="none" opacity="1.000000" stroke="#000000" stroke-linecap="round" stroke-linejoin="round" stroke-width="11.000000"
	d="
M817.500000,153.500000 
	C810.928833,155.536011 806.165039,159.712463 802.461426,165.475204 
	C793.204529,179.878845 792.601013,175.227448 802.439331,190.040314 
	C806.432007,196.051758 810.173523,202.073349 817.500000,204.500000 
"/>
<path fill="none" opacity="1.000000" stroke="#000000" stroke-linecap="round" stroke-linejoin="round" stroke-width="5.000000"
	d="
M220.500000,58.500000 
	C219.242188,57.545826 218.590927,55.731724 216.496597,55.970032 
	C214.859177,56.156345 212.692978,55.507683 212.121033,57.534157 
	C211.744217,58.869236 211.328629,60.742908 212.985489,62.018852 
	C214.578003,63.245262 216.050812,64.627159 217.345383,65.741943 
	C214.291031,72.445831 213.282791,72.546654 207.000000,67.500000 
"/>
<path fill="none" opacity="1.000000" stroke="#000000" stroke-linecap="round" stroke-linejoin="round" stroke-width="12.000000"
	d="
M204.500000,206.500000 
	C193.025467,209.511566 181.594254,213.290802 169.517715,211.387573 
	C164.908813,210.661209 160.292953,211.011139 156.045746,211.759567 
	C148.604858,213.070755 141.935074,210.804672 135.002975,209.484406 
	C130.506790,208.628098 125.652809,209.708176 121.500000,207.000000 
"/>
<path fill="none" opacity="1.000000" stroke="#000000" stroke-linecap="round" stroke-linejoin="round" stroke-width="4.000000"
	d="
M267.500000,151.500000 
	C271.000000,151.166672 274.505859,150.520615 277.998383,150.585922 
	C281.659912,150.654388 282.363129,153.381332 281.996063,156.499542 
	C281.529297,160.464752 278.464325,163.148651 274.999664,163.008423 
	C270.370789,162.821045 268.175171,160.590439 267.463531,155.505096 
	C267.275574,154.162003 268.469116,152.424393 266.500000,151.500000 
"/>
<path fill="none" opacity="1.000000" stroke="#000000" stroke-linecap="round" stroke-linejoin="round" stroke-width="5.000000"
	d="
M57.000000,170.500000 
	C59.080303,174.711731 59.121815,176.591385 56.459526,178.954391 
	C53.842903,181.276886 50.939095,181.644745 47.455956,180.099258 
	C43.022488,178.132111 43.865318,174.910278 44.500000,171.500000 
"/>
<path fill="none" opacity="1.000000" stroke="#000000" stroke-linecap="round" stroke-linejoin="round" stroke-width="3.000000"
	d="
M163.000000,86.500000 
	C163.000000,93.666664 162.831818,100.839020 163.073776,107.997505 
	C163.187943,111.374794 161.822296,113.141037 159.059723,114.846733 
	C155.638641,116.959023 151.199432,117.121437 148.500000,120.500000 
"/>
<path fill="none" opacity="1.000000" stroke="#000000" stroke-linecap="round" stroke-linejoin="round" stroke-width="11.000000"
	d="
M430.500000,182.000000 
	C433.166656,181.833328 435.833984,181.676193 438.499847,181.497849 
	C442.961700,181.199371 445.907806,182.092361 447.244476,187.438873 
	C448.401398,192.066330 451.169708,196.561981 454.185120,200.352753 
	C456.013916,202.651825 459.666656,203.500000 462.500000,205.000000 
"/>
<path fill="none" opacity="1.000000" stroke="#000000" stroke-linecap="round" stroke-linejoin="round" stroke-width="5.000000"
	d="
M136.000000,196.500000 
	C136.666672,195.500000 137.893448,194.510193 137.911865,193.498398 
	C138.066650,184.993851 138.000000,176.485291 138.000000,167.859619 
	C131.710159,166.938232 126.040878,168.345825 120.487473,167.053864 
	C118.415543,166.571823 117.797867,168.512100 117.565498,170.010162 
	C117.287811,171.800415 117.157120,173.746918 117.563934,175.485031 
	C118.812645,180.820175 117.985725,186.163498 117.975082,191.499954 
	C117.971100,193.496735 118.521767,195.157959 120.000000,196.500000 
"/>
<path fill="none" opacity="1.000000" stroke="#000000" stroke-linecap="round" stroke-linejoin="round" stroke-width="5.000000"
	d="
M206.000015,196.500015 
	C206.666687,195.500015 207.828094,194.540451 207.913696,193.492966 
	C208.269516,189.139191 206.785858,184.610779 207.338791,180.546082 
	C207.927979,176.214890 207.344604,172.170227 208.305969,167.750000 
	C201.005524,167.750000 194.754425,167.750000 188.518143,167.750000 
	C187.856369,171.666672 187.965576,175.541977 188.384201,179.512207 
	C188.764740,183.121185 188.193359,186.834808 187.990250,190.499466 
	C187.863602,192.784317 188.133148,194.900055 190.000000,196.500000 
"/>
<path fill="none" opacity="1.000000" stroke="#000000" stroke-linecap="round" stroke-linejoin="round" stroke-width="4.000000"
	d="
M64.000000,201.500000 
	C62.910114,204.605804 65.896484,206.692551 66.038193,209.958450 
	C61.545967,212.333313 56.809464,214.421921 51.500000,215.000000 
"/>
<path fill="none" opacity="1.000000" stroke="#000000" stroke-linecap="round" stroke-linejoin="round" stroke-width="12.000000"
	d="
M783.500000,158.500000 
	C783.500000,172.500000 783.500000,186.500000 783.500000,200.500000 
"/>
<path fill="none" opacity="1.000000" stroke="#000000" stroke-linecap="round" stroke-linejoin="round" stroke-width="3.000000"
	d="
M183.000000,76.500000 
	C184.773193,79.613991 187.424271,80.217461 189.903732,77.897133 
	C191.584824,76.323952 191.920059,73.812050 189.499954,72.000053 
	C187.025146,70.147087 185.064346,70.903580 184.123337,73.543961 
	C183.811188,74.419861 182.912872,74.998482 183.000000,76.000000 
"/>
<path fill="none" opacity="1.000000" stroke="#000000" stroke-linecap="round" stroke-linejoin="round" stroke-width="4.000000"
	d="
M267.500000,184.500000 
	C265.829651,186.765930 264.598816,189.144165 266.010254,191.994934 
	C267.322083,194.644547 269.582153,194.803909 271.509430,192.507919 
	C273.270111,190.410431 273.501770,187.142380 276.584473,185.943512 
	C281.095856,188.339478 280.664764,191.737244 278.500000,195.500000 
"/>
<path fill="none" opacity="1.000000" stroke="#000000" stroke-linecap="round" stroke-linejoin="round" stroke-width="4.000000"
	d="
M272.500000,118.500000 
	C272.286041,112.730598 270.945801,110.659302 267.000000,109.999992 
	C263.454010,109.407494 259.329010,111.369766 258.574188,114.517792 
	C257.667694,118.298409 258.371704,121.742210 262.500000,123.500000 
"/>
<path fill="none" opacity="1.000000" stroke="#000000" stroke-linecap="round" stroke-linejoin="round" stroke-width="4.000000"
	d="
M61.500000,138.500000 
	C60.747009,141.060013 60.580917,143.835220 58.734627,146.018280 
	C54.496784,145.013855 50.248390,144.006927 46.000000,143.000000 
"/>
<path fill="none" opacity="1.000000" stroke="#000000" stroke-linecap="round" stroke-linejoin="round" stroke-width="10.000000"
	d="
M611.500000,179.250000 
	C605.056396,177.533188 598.491821,178.961884 592.000000,178.500000 
"/>
<path fill="none" opacity="1.000000" stroke="#000000" stroke-linecap="round" stroke-linejoin="round" stroke-width="8.000000"
	d="
M180.500000,162.499985 
	C175.666672,160.999985 170.808212,159.574936 166.011124,157.966782 
	C163.779327,157.218597 161.645020,157.394562 159.504349,158.014999 
	C154.490753,159.468094 149.500000,161.000000 144.500000,162.500000 
"/>
<path fill="none" opacity="1.000000" stroke="#000000" stroke-linecap="round" stroke-linejoin="round" stroke-width="4.000000"
	d="
M164.500000,41.500000 
	C164.088165,42.127415 165.474197,43.603142 163.499329,43.515240 
	C161.835953,43.441200 160.165588,43.537560 158.500290,43.489765 
	C156.724197,43.438789 155.192184,44.445728 155.610519,45.969658 
	C156.753677,50.133999 155.304825,54.402279 156.349609,58.443485 
	C158.833328,59.427994 161.167740,59.025314 163.499649,58.498436 
	C165.234726,58.106411 165.899963,58.766705 165.500000,60.500000 
"/>
<path fill="none" opacity="1.000000" stroke="#000000" stroke-linecap="round" stroke-linejoin="round" stroke-width="5.000000"
	d="
M167.500000,257.000000 
	C162.719086,256.197418 160.197311,252.051559 162.082031,247.534225 
	C162.795822,245.823471 162.026047,244.492676 161.966782,243.001328 
	C161.756760,237.716980 163.889954,235.771683 168.992950,237.028595 
	C173.399948,238.114120 176.602478,241.236191 180.014297,243.982239 
	C181.008759,244.782623 181.604660,246.700241 183.500000,245.500000 
"/>
<path fill="none" opacity="1.000000" stroke="#000000" stroke-linecap="round" stroke-linejoin="round" stroke-width="11.000000"
	d="
M155.500015,220.500015 
	C153.000015,222.166672 150.686020,224.298798 147.955978,225.389801 
	C143.962219,226.985809 143.546722,230.516861 143.724014,233.486618 
	C143.905243,236.521790 147.200653,236.734421 149.989075,237.086502 
	C153.865814,237.576004 157.666672,238.666672 161.500000,239.500015 
"/>
<path fill="none" opacity="1.000000" stroke="#000000" stroke-linecap="round" stroke-linejoin="round" stroke-width="5.000000"
	d="
M170.750000,145.000000 
	C165.333328,145.000000 159.916672,145.000000 154.500000,145.000000 
"/>
<path fill="none" opacity="1.000000" stroke="#000000" stroke-linecap="round" stroke-linejoin="round" stroke-width="5.000000"
	d="
M231.500000,84.500000 
	C234.758682,81.091599 238.017349,77.683205 241.234848,74.317886 
	C245.328873,75.265411 247.781219,77.290749 246.946777,81.489426 
	C246.181427,85.340355 242.949310,85.065277 240.000000,85.000000 
"/>
<path fill="none" opacity="1.000000" stroke="#000000" stroke-linecap="round" stroke-linejoin="round" stroke-width="5.000000"
	d="
M198.000000,168.500000 
	C198.000000,178.166672 198.000000,187.833328 198.000000,197.500000 
"/>
<path fill="none" opacity="1.000000" stroke="#000000" stroke-linecap="round" stroke-linejoin="round" stroke-width="4.000000"
	d="
M67.500000,89.500000 
	C69.807175,87.840073 72.008118,89.398087 73.957542,90.115387 
	C76.783569,91.155235 79.246658,93.190018 82.500000,93.000000 
"/>
<path fill="none" opacity="1.000000" stroke="#000000" stroke-linecap="round" stroke-linejoin="round" stroke-width="5.000000"
	d="
M128.000000,168.500000 
	C128.000000,178.166672 128.000000,187.833328 128.000000,197.500000 
"/>
<path fill="none" opacity="1.000000" stroke="#000000" stroke-linecap="round" stroke-linejoin="round" stroke-width="4.000000"
	d="
M195.500000,49.500000 
	C194.238388,54.477848 191.129257,59.024605 192.000000,64.500000 
"/>
<path fill="none" opacity="1.000000" stroke="#000000" stroke-linecap="round" stroke-linejoin="round" stroke-width="5.000000"
	d="
M281.500000,179.500000 
	C281.235901,176.723892 283.860016,173.685516 281.863220,171.367859 
	C279.963806,169.163223 276.726379,170.415787 274.004944,170.334625 
	C272.354645,170.285385 270.679474,170.077393 269.146423,170.118851 
	C268.049500,172.918091 267.642395,175.684982 267.500000,178.500000 
"/>
<path fill="none" opacity="1.000000" stroke="#000000" stroke-linecap="round" stroke-linejoin="round" stroke-width="4.000000"
	d="
M146.500000,44.500000 
	C145.435486,49.912903 149.890472,54.221909 149.500000,59.500000 
"/>
<path fill="none" opacity="1.000000" stroke="#000000" stroke-linecap="round" stroke-linejoin="round" stroke-width="4.000000"
	d="
M279.500000,134.500000 
	C277.465027,132.184158 278.612518,127.889694 275.440979,126.651108 
	C272.866821,125.645805 270.598938,128.812057 267.997009,128.873245 
	C266.142609,128.916855 265.070099,130.210281 263.384338,130.542572 
	C264.087616,133.187683 264.793793,135.843842 265.500000,138.500000 
"/>
<path fill="none" opacity="1.000000" stroke="#000000" stroke-linecap="round" stroke-linejoin="round" stroke-width="4.000000"
	d="
M185.500000,44.500000 
	C184.833328,44.500000 184.166672,44.500000 183.500000,44.500000 
	C184.307434,50.017597 179.460480,54.828392 181.500000,60.500000 
"/>
<path fill="none" opacity="1.000000" stroke="#000000" stroke-linecap="round" stroke-linejoin="round" stroke-width="5.000000"
	d="
M133.000000,47.500000 
	C135.279343,51.408638 133.840149,55.896336 134.922287,60.020393 
	C135.345505,61.633316 135.701630,62.804195 137.500000,63.000000 
"/>
<path fill="none" opacity="1.000000" stroke="#000000" stroke-linecap="round" stroke-linejoin="round" stroke-width="4.000000"
	d="
M263.500000,95.000000 
	C262.166656,94.187057 260.821503,94.448799 259.502167,95.005104 
	C255.014572,96.897255 250.367203,98.135506 245.500000,98.500000 
"/>
<path fill="none" opacity="1.000000" stroke="#000000" stroke-linecap="round" stroke-linejoin="round" stroke-width="4.000000"
	d="
M78.000000,77.500000 
	C78.268204,78.820641 77.561798,80.195030 78.477295,81.515739 
	C81.110359,85.314224 82.608444,89.638954 84.000000,94.000000 
"/>
<path fill="none" opacity="1.000000" stroke="#000000" stroke-linecap="round" stroke-linejoin="round" stroke-width="4.000000"
	d="
M253.500000,82.500000 
	C253.866104,84.984444 252.697556,86.930847 251.573242,89.039062 
	C250.140259,91.725998 247.097382,93.814606 248.000000,97.500000 
"/>
<path fill="none" opacity="1.000000" stroke="#000000" stroke-linecap="round" stroke-linejoin="round" stroke-width="5.000000"
	d="
M177.500000,250.500000 
	C173.721603,247.592346 170.246979,244.273697 166.000000,242.000000 
"/>
<path fill="none" opacity="1.000000" stroke="#000000" stroke-linecap="round" stroke-linejoin="round" stroke-width="4.000000"
	d="
M265.500000,98.500000 
	C265.498474,99.880295 265.808502,101.461830 263.995453,101.984222 
	C259.996613,103.136414 257.187134,106.327461 253.500000,108.000000 
"/>
<path fill="none" opacity="1.000000" stroke="#000000" stroke-linecap="round" stroke-linejoin="round" stroke-width="4.000000"
	d="
M172.500000,43.500000 
	C173.006500,48.979980 170.786118,54.119099 170.500000,59.500000 
"/>
<path fill="none" opacity="1.000000" stroke="#000000" stroke-linecap="round" stroke-linejoin="round" stroke-width="3.000000"
	d="
M236.500000,202.000000 
	C232.833328,202.666656 229.166672,203.333328 225.500000,204.000000 
"/>
<path fill="none" opacity="1.000000" stroke="#000000" stroke-linecap="round" stroke-linejoin="round" stroke-width="3.000000"
	d="
M236.500000,133.000000 
	C232.753906,133.540283 229.179214,132.195236 225.500000,132.000000 
"/>
<path fill="none" opacity="1.000000" stroke="#000000" stroke-linecap="round" stroke-linejoin="round" stroke-width="5.000000"
	d="
M123.500000,50.500000 
	C123.894798,54.104412 127.278664,56.997143 126.000000,61.000000 
"/>
<path fill="none" opacity="1.000000" stroke="#000000" stroke-linecap="round" stroke-linejoin="round" stroke-width="3.000000"
	d="
M97.500000,120.500000 
	C98.678879,124.058838 99.310257,127.826248 101.500000,131.000000 
"/>
<path fill="none" opacity="1.000000" stroke="#000000" stroke-linecap="round" stroke-linejoin="round" stroke-width="4.000000"
	d="
M268.000000,206.500000 
	C264.945587,209.039673 260.596710,208.558960 257.500000,211.000000 
"/>
<path fill="none" opacity="1.000000" stroke="#000000" stroke-linecap="round" stroke-linejoin="round" stroke-width="3.000000"
	d="
M160.500015,67.500000 
	C160.666687,68.500000 160.959564,69.498100 160.974640,70.500381 
	C161.009598,72.827751 161.693100,76.192627 158.493439,76.295311 
	C155.370270,76.395523 154.865662,73.262955 154.995361,70.499779 
	C155.026596,69.834587 155.000000,69.166664 155.000000,68.500000 
"/>
<path fill="none" opacity="1.000000" stroke="#000000" stroke-linecap="round" stroke-linejoin="round" stroke-width="3.000000"
	d="
M209.500000,102.000000 
	C205.601273,101.604469 202.361893,103.516602 199.000000,105.000000 
"/>
<path fill="none" opacity="1.000000" stroke="#000000" stroke-linecap="round" stroke-linejoin="round" stroke-width="5.000000"
	d="
M197.500000,94.500000 
	C198.000000,97.833336 198.500000,101.166664 199.000000,104.500000 
"/>
<path fill="none" opacity="1.000000" stroke="#000000" stroke-linecap="round" stroke-linejoin="round" stroke-width="3.000000"
	d="
M125.500000,233.500000 
	C127.034378,236.658066 128.268188,239.891281 128.000000,243.500000 
"/>
<path fill="none" opacity="1.000000" stroke="#000000" stroke-linecap="round" stroke-linejoin="round" stroke-width="4.000000"
	d="
M112.500000,54.500000 
	C114.381500,55.852516 116.071915,56.728863 115.786018,60.024811 
	C115.550804,62.736546 117.833328,65.666664 119.000000,68.500000 
"/>
<path fill="none" opacity="1.000000" stroke="#000000" stroke-linecap="round" stroke-linejoin="round" stroke-width="3.000000"
	d="
M78.500000,121.500000 
	C75.321220,121.993942 75.580750,124.604813 76.150551,126.453598 
	C76.635399,128.026764 78.934540,129.167587 80.470863,128.856232 
	C83.119827,128.319427 83.276474,125.837791 83.000000,123.500000 
"/>
<path fill="none" opacity="1.000000" stroke="#000000" stroke-linecap="round" stroke-linejoin="round" stroke-width="4.000000"
	d="
M163.000000,112.500000 
	C167.257431,115.301140 171.777405,117.595955 176.500000,119.500000 
"/>
<path fill="none" opacity="1.000000" stroke="#000000" stroke-linecap="round" stroke-linejoin="round" stroke-width="3.000000"
	d="
M269.000000,203.500000 
	C268.240204,204.949142 268.280334,206.164413 269.460938,207.533676 
	C271.690796,210.119781 273.393066,213.053467 274.000000,216.500000 
"/>
<path fill="none" opacity="1.000000" stroke="#000000" stroke-linecap="round" stroke-linejoin="round" stroke-width="8.000000"
	d="
M192.000000,216.500000 
	C192.448898,218.189178 191.243149,219.257843 190.469223,220.731720 
	C192.174377,223.112442 193.488968,226.192673 196.525391,227.438110 
	C200.369095,229.014679 200.428726,231.743423 199.492416,234.997818 
	C198.865738,237.175995 198.166687,239.333344 197.500015,241.500000 
"/>
<path fill="none" opacity="1.000000" stroke="#000000" stroke-linecap="round" stroke-linejoin="round" stroke-width="5.000000"
	d="
M90.500000,66.500000 
	C90.421303,70.537041 85.268288,70.514626 84.503029,74.731430 
	C86.731003,78.278534 89.554314,82.119278 93.000000,85.500000 
"/>
<path fill="none" opacity="1.000000" stroke="#000000" stroke-linecap="round" stroke-linejoin="round" stroke-width="4.000000"
	d="
M173.500000,48.000000 
	C177.284592,49.396816 176.715439,54.603161 180.500000,56.000000 
"/>
<path fill="none" opacity="1.000000" stroke="#000000" stroke-linecap="round" stroke-linejoin="round" stroke-width="4.000000"
	d="
M101.000000,206.500000 
	C99.833336,209.500000 98.666664,212.500000 97.500000,215.500000 
"/>
<path fill="none" opacity="1.000000" stroke="#000000" stroke-linecap="round" stroke-linejoin="round" stroke-width="4.000000"
	d="
M129.500000,64.500000 
	C125.512466,61.641743 121.435249,58.962841 116.500000,58.000000 
"/>
<path fill="none" opacity="1.000000" stroke="#000000" stroke-linecap="round" stroke-linejoin="round" stroke-width="4.000000"
	d="
M221.000000,75.500000 
	C223.248291,77.419525 224.808884,80.485184 228.500000,80.000000 
"/>
<path fill="none" opacity="1.000000" stroke="#000000" stroke-linecap="round" stroke-linejoin="round" stroke-width="4.000000"
	d="
M103.000000,71.500000 
	C105.339165,70.172501 108.492020,69.809456 108.543045,66.000580 
	C108.593933,62.201889 105.531815,59.651646 102.019951,61.050106 
	C100.371765,61.706436 98.936684,62.897945 97.449455,63.819389 
	C98.858047,68.851837 103.064934,71.994370 105.000000,76.500000 
"/>
<path fill="none" opacity="1.000000" stroke="#000000" stroke-linecap="round" stroke-linejoin="round" stroke-width="3.000000"
	d="
M102.500000,88.500000 
	C104.553284,89.057549 104.633606,91.310226 105.951080,92.551910 
	C107.176720,93.707031 108.483536,94.672295 109.962051,93.924934 
	C111.737679,93.027374 111.338356,90.914589 110.880127,89.539963 
	C110.430107,88.189957 109.000000,87.166672 108.000000,86.000000 
"/>
<path fill="none" opacity="1.000000" stroke="#000000" stroke-linecap="round" stroke-linejoin="round" stroke-width="4.000000"
	d="
M135.000000,51.500000 
	C138.414368,51.469421 138.571091,55.348019 141.002213,56.497341 
	C144.701416,55.790615 142.386536,51.378891 145.000000,50.000000 
"/>
<path fill="none" opacity="1.000000" stroke="#000000" stroke-linecap="round" stroke-linejoin="round" stroke-width="3.000000"
	d="
M240.000000,107.500000 
	C237.350830,108.539413 234.533310,109.359970 233.500000,112.500000 
"/>
<path fill="none" opacity="1.000000" stroke="#000000" stroke-linecap="round" stroke-linejoin="round" stroke-width="3.000000"
	d="
M133.000000,73.000000 
	C135.081192,75.037247 137.337219,76.949600 138.000000,80.000000 
"/>
<path fill="none" opacity="1.000000" stroke="#000000" stroke-linecap="round" stroke-linejoin="round" stroke-width="3.000000"
	d="
M127.000000,76.500000 
	C128.569763,78.589149 129.542953,80.933975 130.000000,83.500000 
"/>
<path fill="none" opacity="1.000000" stroke="#000000" stroke-linecap="round" stroke-linejoin="round" stroke-width="5.000000"
	d="
M202.500000,48.500000 
	C198.039856,50.594189 194.417969,47.658833 190.500000,46.500000 
"/>
<path fill="none" opacity="1.000000" stroke="#000000" stroke-linecap="round" stroke-linejoin="round" stroke-width="5.000000"
	d="
M276.000000,204.000000 
	C272.059875,202.487015 267.408478,203.107925 264.000000,200.000000 
"/>
<path fill="none" opacity="1.000000" stroke="#000000" stroke-linecap="round" stroke-linejoin="round" stroke-width="4.000000"
	d="
M235.500000,68.500000 
	C233.948639,65.587700 230.169495,65.274490 228.500000,62.500000 
"/>
<path fill="none" opacity="1.000000" stroke="#000000" stroke-linecap="round" stroke-linejoin="round" stroke-width="2.000000"
	d="
M205.000000,77.500000 
	C205.533203,78.141769 207.301758,78.318726 206.432251,79.447830 
	C204.949326,81.373520 204.812622,84.152855 202.500000,85.500000 
"/>
<path fill="none" opacity="1.000000" stroke="#000000" stroke-linecap="round" stroke-linejoin="round" stroke-width="2.000000"
	d="
M248.000000,121.000000 
	C245.428223,120.856453 244.026932,123.053856 241.870483,123.746986 
	C242.665161,125.334084 243.332581,126.667038 244.000015,127.999992 
"/>
<path fill="none" opacity="1.000000" stroke="#000000" stroke-linecap="round" stroke-linejoin="round" stroke-width="3.000000"
	d="
M160.500000,200.000000 
	C158.888763,201.832947 156.749023,202.080383 154.500000,202.000000 
"/>
<path fill="none" opacity="1.000000" stroke="#000000" stroke-linecap="round" stroke-linejoin="round" stroke-width="4.000000"
	d="
M99.500000,80.500000 
	C97.354645,83.331146 92.341873,83.653305 92.500000,88.500000 
"/>
<path fill="none" opacity="1.000000" stroke="#000000" stroke-linecap="round" stroke-linejoin="round" stroke-width="3.000000"
	d="
M234.500000,101.500000 
	C230.834732,99.837059 227.900314,100.123055 226.500000,104.500000 
"/>
<path fill="none" opacity="1.000000" stroke="#000000" stroke-linecap="round" stroke-linejoin="round" stroke-width="3.000000"
	d="
M372.500000,157.500000 
	C370.592133,157.423386 368.698120,157.423050 367.000000,158.500000 
"/>
<path fill="none" opacity="1.000000" stroke="#000000" stroke-linecap="round" stroke-linejoin="round" stroke-width="5.000000"
	d="
M228.500000,64.000000 
	C225.335449,66.554192 224.122375,70.524727 221.608688,73.589157 
	C220.344879,75.129883 219.216751,75.600159 217.500000,75.500000 
"/>
<path fill="none" opacity="1.000000" stroke="#000000" stroke-linecap="round" stroke-linejoin="round" stroke-width="3.000000"
	d="
M150.500000,69.000000 
	C148.813553,68.960442 147.028076,68.722824 146.498169,70.997955 
	C146.892303,73.739632 151.866928,72.730087 150.927933,76.796455 
	C149.783218,78.107834 148.024780,77.278152 146.500000,77.500000 
"/>
<path fill="none" opacity="1.000000" stroke="#000000" stroke-linecap="round" stroke-linejoin="round" stroke-width="2.000000"
	d="
M176.500000,112.500000 
	C177.066284,115.534088 180.575821,112.681686 181.500000,115.000000 
"/>
<path fill="none" opacity="1.000000" stroke="#000000" stroke-linecap="round" stroke-linejoin="round" stroke-width="3.000000"
	d="
M196.500000,74.500000 
	C198.183960,77.124397 196.895065,80.273422 198.000000,83.000000 
"/>
<path fill="none" opacity="1.000000" stroke="#000000" stroke-linecap="round" stroke-linejoin="round" stroke-width="3.000000"
	d="
M117.000000,80.000000 
	C118.591446,81.488731 119.257858,83.397942 119.500000,85.500000 
"/>
<path fill="none" opacity="1.000000" stroke="#000000" stroke-linecap="round" stroke-linejoin="round" stroke-width="2.000000"
	d="
M217.000000,88.000000 
	C213.807159,85.088135 213.112686,89.671394 211.000000,90.000000 
"/>
<path fill="none" opacity="1.000000" stroke="#000000" stroke-linecap="round" stroke-linejoin="round" stroke-width="2.000000"
	d="
M139.500000,71.500000 
	C136.504608,71.482048 139.306519,75.087402 137.000000,75.500000 
"/>
<path fill="none" opacity="1.000000" stroke="#000000" stroke-linecap="round" stroke-linejoin="round" stroke-width="2.000000"
	d="
M114.000000,85.000000 
	C113.189476,87.257545 115.275978,88.356277 116.000000,90.000000 
"/>
<path fill="none" opacity="1.000000" stroke="#000000" stroke-linecap="round" stroke-linejoin="round" stroke-width="3.000000"
	d="
M244.000000,114.000000 
	C242.179901,116.195068 240.703918,118.550720 240.500000,121.500000 
"/>
<path fill="none" opacity="1.000000" stroke="#000000" stroke-linecap="round" stroke-linejoin="round" stroke-width="2.000000"
	d="
M129.000000,210.000000 
	C129.166672,211.500000 129.333344,213.000000 129.500000,214.500000 
"/>
<path fill="none" opacity="1.000000" stroke="#000000" stroke-linecap="round" stroke-linejoin="round" stroke-width="4.000000"
	d="
M236.500000,81.500000 
	C239.203873,83.039833 240.416016,84.890747 238.585388,88.049492 
	C237.892746,89.244659 238.166672,91.000000 238.000000,92.500000 
"/>
<path fill="none" opacity="1.000000" stroke="#000000" stroke-linecap="round" stroke-linejoin="round" stroke-width="3.000000"
	d="
M111.500000,83.000000 
	C114.833336,84.333336 118.166664,85.666672 121.500000,87.000000 
"/>
<path fill="none" opacity="1.000000" stroke="#000000" stroke-linecap="round" stroke-linejoin="round" stroke-width="3.000000"
	d="
M159.000000,176.000000 
	C161.774994,178.044998 162.201721,180.559662 160.500000,183.500000 
"/>
<path fill="none" opacity="1.000000" stroke="#000000" stroke-linecap="round" stroke-linejoin="round" stroke-width="6.000000"
	d="
M189.500000,181.000000 
	C194.960907,182.456940 200.506577,181.116165 206.000000,181.500000 
"/>
<path fill="none" opacity="1.000000" stroke="#000000" stroke-linecap="round" stroke-linejoin="round" stroke-width="3.000000"
	d="
M238.500000,103.500000 
	C239.029572,105.738754 240.330902,107.486397 242.000000,109.000000 
"/>
<path fill="none" opacity="1.000000" stroke="#000000" stroke-linecap="round" stroke-linejoin="round" stroke-width="3.000000"
	d="
M100.000000,92.000000 
	C102.838570,93.961136 100.940445,96.286629 100.587448,98.715004 
	C99.159111,99.549332 97.315155,98.334862 96.000000,99.500000 
"/>
<path fill="none" opacity="1.000000" stroke="#000000" stroke-linecap="round" stroke-linejoin="round" stroke-width="3.000000"
	d="
M90.000000,102.000000 
	C90.944504,104.722168 94.585907,104.747429 95.500000,107.500000 
"/>
<path fill="none" opacity="1.000000" stroke="#000000" stroke-linecap="round" stroke-linejoin="round" stroke-width="4.000000"
	d="
M65.500000,97.000000 
	C60.960957,100.552948 59.809910,103.841644 61.999996,107.000000 
	C64.342514,110.378174 68.968704,111.333046 72.527084,109.554184 
	C75.232178,108.201897 75.664825,105.877663 75.421532,103.508057 
	C75.042831,99.819695 72.454300,97.839676 68.992188,97.033562 
	C68.043610,96.812698 67.000000,97.000000 66.000000,97.000000 
"/>
<path fill="none" opacity="1.000000" stroke="#000000" stroke-linecap="round" stroke-linejoin="round" stroke-width="12.000000"
	d="
M653.000000,157.500000 
	C649.425964,157.944489 648.356995,159.966324 648.426270,163.501450 
	C648.631897,173.997421 648.566040,184.500671 648.459167,194.999588 
	C648.427734,198.088959 649.224182,200.349014 652.502319,200.987946 
	C661.048035,202.653519 673.228455,200.722397 677.380249,191.943359 
	C681.388000,183.468796 681.332336,174.541931 676.969849,166.015411 
	C673.779663,159.779999 667.638123,158.462753 661.490662,157.563736 
	C658.879822,157.181915 656.166687,157.500000 653.500000,157.500000 
"/>
<path fill="none" opacity="1.000000" stroke="#000000" stroke-linecap="round" stroke-linejoin="round" stroke-width="4.000000"
	d="
M52.500000,187.000000 
	C50.143204,188.309875 47.297874,188.993057 46.962334,192.496399 
	C46.516830,197.147827 48.248642,199.655273 52.500000,199.999985 
	C57.548218,200.409317 60.530914,198.395126 61.031948,194.504120 
	C61.490364,190.944061 58.489117,186.176620 53.000000,187.000000 
"/>
<path fill="none" opacity="1.000000" stroke="#000000" stroke-linecap="round" stroke-linejoin="round" stroke-width="3.000000"
	d="
M82.500000,113.000000 
	C80.733391,114.011139 79.399681,115.006081 80.422554,117.531372 
	C81.245651,119.563446 82.852913,120.614105 84.522194,120.820656 
	C85.569702,120.950287 87.182152,119.566460 87.927361,118.451447 
	C89.477875,116.131470 87.519173,114.049263 83.000000,113.000000 
"/>
<path fill="none" opacity="1.000000" stroke="#000000" stroke-linecap="round" stroke-linejoin="round" stroke-width="3.000000"
	d="
M222.500000,91.000000 
	C220.325226,91.961807 219.032623,93.666878 219.583099,95.980225 
	C220.002045,97.740860 221.656219,99.280907 223.471832,98.874260 
	C225.415405,98.438972 227.138672,97.312134 227.100082,94.498627 
	C227.057129,91.364082 225.565933,90.757988 223.000000,91.000000 
"/>
</svg>