<?xml version="1.0" encoding="UTF-8"?>
<svg version="1.1" xmlns="http://www.w3.org/2000/svg" width="357" height="95">
<path d="M0 0 C2.71591474 1.98789265 5.35532285 3.94506825 7.5625 6.5 C7.5625 7.16 7.5625 7.82 7.5625 8.5 C8.2225 8.5 8.8825 8.5 9.5625 8.5 C10.54919759 10.39192475 11.5265602 12.28871978 12.5 14.1875 C13.31791016 15.77111328 13.31791016 15.77111328 14.15234375 17.38671875 C18.07593427 26.04905018 17.79930601 37.0758901 14.75 46.00390625 C12.39751063 50.94877699 9.22185548 55.43486922 5.5625 59.5 C4.0775 59.995 4.0775 59.995 2.5625 60.5 C2.5625 61.16 2.5625 61.82 2.5625 62.5 C0.62624902 63.48163422 -1.31154539 64.46022454 -3.25 65.4375 C-4.32894531 65.98277344 -5.40789063 66.52804688 -6.51953125 67.08984375 C-14.64003507 71.01421039 -25.26724303 70.72123067 -33.9765625 68.6640625 C-44.52038665 64.60455398 -51.443428 58.05399042 -56.31738281 47.9206543 C-60.50021551 38.37205535 -60.20697876 28.43429942 -57.4375 18.5 C-53.60016573 9.04851131 -46.67623175 0.92654298 -37.4375 -3.5 C-24.70105224 -8.84456691 -11.37587846 -7.78696167 0 0 Z M-30.4375 18.5 C-30.4375 19.82 -30.4375 21.14 -30.4375 22.5 C-29.1175 22.5 -27.7975 22.5 -26.4375 22.5 C-26.4375 20.52 -26.4375 18.54 -26.4375 16.5 C-27.89975016 16.40754997 -27.89975016 16.40754997 -30.4375 18.5 Z M-25.4375 31.5 C-25.4375 32.16 -25.4375 32.82 -25.4375 33.5 C-24.7775 33.17 -24.1175 32.84 -23.4375 32.5 C-24.0975 32.17 -24.7575 31.84 -25.4375 31.5 Z " fill="#0F3B5D" transform="translate(64.4375,23.5)"/>
<path d="M0 0 C1.65 0 3.3 0 5 0 C5 0.99 5 1.98 5 3 C7.97 3 10.94 3 14 3 C14.5878125 4.4540625 14.5878125 4.4540625 15.1875 5.9375 C15.785625 6.948125 16.38375 7.95875 17 9 C19.475 9.495 19.475 9.495 22 10 C22 13.63 22 17.26 22 21 C22.99 21 23.98 21 25 21 C25 22.65 25 24.3 25 26 C24.01 26.33 23.02 26.66 22 27 C22 29.97 22 32.94 22 36 C21.01 36.33 20.02 36.66 19 37 C18.26676204 39.01508358 18.26676204 39.01508358 18 41 C17.34 41 16.68 41 16 41 C16 42.65 16 44.3 16 46 C17.98 46 19.96 46 22 46 C22 46.66 22 47.32 22 48 C23.65 46.35 25.3 44.7 27 43 C25.58457093 47.50363795 23.66447596 50.02261329 20 53 C11.61529755 57.06325127 3.09832277 59.93474707 -6.078125 57.0234375 C-11.31734469 54.92000694 -15.78993465 52.8413005 -20 49 C-20 48.34 -20 47.68 -20 47 C-20.66 47 -21.32 47 -22 47 C-22.33 45.68 -22.66 44.36 -23 43 C-22.34 43 -21.68 43 -21 43 C-19.52734375 44.53125 -19.52734375 44.53125 -17.9375 46.5 C-16.977742 47.68268468 -16.00297807 48.85373935 -15 50 C-14.67 50 -14.34 50 -14 50 C-14.66 49.01 -15.32 48.02 -16 47 C-12.53058454 47.45822468 -9.32604951 47.89131683 -6 49 C-6 49.66 -6 50.32 -6 51 C-5.01 51 -4.02 51 -3 51 C-3 50.01 -3 49.02 -3 48 C-3.5775 47.731875 -4.155 47.46375 -4.75 47.1875 C-7.12367963 45.93472464 -9.06206571 44.86872235 -11 43 C-11.25 40.3125 -11.25 40.3125 -11 38 C-12.175625 38.0928125 -12.175625 38.0928125 -13.375 38.1875 C-14.24125 38.125625 -15.1075 38.06375 -16 38 C-18.67927341 33.98108988 -18.15601248 31.75838077 -18 27 C-18.66 27 -19.32 27 -20 27 C-20 24.69 -20 22.38 -20 20 C-19.34 19.67 -18.68 19.34 -18 19 C-18 16.69 -18 14.38 -18 12 C-15.69 11.34 -13.38 10.68 -11 10 C-11.020625 9.030625 -11.04125 8.06125 -11.0625 7.0625 C-11 4 -11 4 -10 3 C-8.48071962 2.92820036 -6.95832518 2.91607993 -5.4375 2.9375 C-4.61121094 2.94652344 -3.78492187 2.95554687 -2.93359375 2.96484375 C-2.29550781 2.97644531 -1.65742187 2.98804688 -1 3 C-0.67 2.01 -0.34 1.02 0 0 Z M-7 13 C-7 14.32 -7 15.64 -7 17 C-5.68 17 -4.36 17 -3 17 C-3 15.02 -3 13.04 -3 11 C-4.46225016 10.90754997 -4.46225016 10.90754997 -7 13 Z M-2 26 C-2 26.66 -2 27.32 -2 28 C-1.34 27.67 -0.68 27.34 0 27 C-0.66 26.67 -1.32 26.34 -2 26 Z " fill="#255278" transform="translate(41,29)"/>
<path d="M0 0 C2.7302389 -0.1083667 5.45614543 -0.18746694 8.1875 -0.25 C8.95642578 -0.28351562 9.72535156 -0.31703125 10.51757812 -0.3515625 C14.45325606 -0.41912779 16.49597987 -0.30562923 19.9375 1.78125 C22.7002462 4.75329516 23.61808119 7.21790643 25 11 C25.94875 10.175 26.8975 9.35 27.875 8.5 C31.76789267 5.73066579 34.96490262 5.2597509 39.6875 5.51171875 C43.37739679 6.29083547 44.94711231 7.92066847 47 11 C47.5625 13.5 47.5625 13.5 47 16 C45 18.8125 45 18.8125 43 21 C45.93462795 21.09805807 45.93462795 21.09805807 48.5 20.5 C51 20 51 20 54 20 C52.4840625 18.9790625 52.4840625 18.9790625 50.9375 17.9375 C49.28125 16.5703125 49.28125 16.5703125 48 15 C47.9375 11.3125 47.9375 11.3125 49 8 C53.41755773 5.05496151 57.82229977 5.06987421 63 6 C65.22514254 7.857886 65.81076232 9.28174246 67 12 C65.68 13.32 64.36 14.64 63 16 C63.99 17.485 63.99 17.485 65 19 C65.44242648 22.46567407 65.38665268 24.33214537 63.625 27.375 C59.5553863 29.89428467 55.65648062 29.76143708 51 29 C48.59691453 27.9025279 47.04378303 26.72108045 45 25 C44.54625 25.474375 44.0925 25.94875 43.625 26.4375 C40.43930486 29.5006684 37.48946096 29.33274675 33.25390625 29.28515625 C28.90844993 28.73538448 26.80408602 25.99817575 24.1875 22.75 C23.795625 22.1725 23.40375 21.595 23 21 C22.2575 21.94875 21.515 22.8975 20.75 23.875 C18.73691476 26.44727559 17.01374579 27.72963182 14 29 C11.89355469 29.22705078 11.89355469 29.22705078 9.671875 29.1953125 C8.87265625 29.18886719 8.0734375 29.18242188 7.25 29.17578125 C6.425 29.15902344 5.6 29.14226562 4.75 29.125 C3.90953125 29.11597656 3.0690625 29.10695313 2.203125 29.09765625 C0.13529396 29.07415817 -1.93238995 29.03828908 -4 29 C-5.54271825 22.41342447 -4.17737447 17.04307981 -2.5625 10.5625 C-2.31951172 9.54478516 -2.07652344 8.52707031 -1.82617188 7.47851562 C-1.22859441 4.9827509 -0.61964328 2.49036069 0 0 Z M8 7 C5.5978396 11.8043208 5.38877771 16.73103895 5 22 C8.2733498 21.70242275 10.53470347 21.30181397 13.3125 19.5 C15.72703717 15.92290789 16.0433604 12.27533502 16 8 C14.81575674 6.58422523 14.81575674 6.58422523 11.4375 6.9375 C9.7359375 6.9684375 9.7359375 6.9684375 8 7 Z M56 13 C57.485 13.99 57.485 13.99 59 15 C59.99 14.67 60.98 14.34 62 14 C60.93354885 12.70366379 60.93354885 12.70366379 58.4375 12.9375 C57.633125 12.958125 56.82875 12.97875 56 13 Z M24 14 C25 16 25 16 25 16 Z M33 21 C37 22 37 22 37 22 Z " fill="#020202" transform="translate(251,36)"/>
<path d="M0 0 C2.8125 -0.25 2.8125 -0.25 6 0 C7.9375 1.75 7.9375 1.75 9 4 C8.8125 6.1875 8.8125 6.1875 8 8 C7.34 8.33 6.68 8.66 6 9 C6.495 10.485 6.495 10.485 7 12 C6.74633789 14.0847168 6.74633789 14.0847168 6.22265625 16.44921875 C6.03896484 17.29677734 5.85527344 18.14433594 5.66601562 19.01757812 C5.46685547 19.89865234 5.26769531 20.77972656 5.0625 21.6875 C4.86720703 22.58017578 4.67191406 23.47285156 4.47070312 24.39257812 C3.98744798 26.59669306 3.49697166 28.7989445 3 31 C0.69 31 -1.62 31 -4 31 C-4 30.34 -4 29.68 -4 29 C-4.66 28.67 -5.32 28.34 -6 28 C-5.01 23.05 -4.02 18.1 -3 13 C-6.3 18.94 -9.6 24.88 -13 31 C-21 31 -21 31 -22.875 29.1875 C-24.50921208 24.55723245 -25.27844698 19.84713855 -26 15 C-27.98 15.33 -29.96 15.66 -32 16 C-32.48212214 17.56159059 -32.96055873 19.12431928 -33.4375 20.6875 C-33.70433594 21.55761719 -33.97117188 22.42773438 -34.24609375 23.32421875 C-34.96344529 25.87025921 -35.517541 28.4003423 -36 31 C-38.31 31 -40.62 31 -43 31 C-43 30.34 -43 29.68 -43 29 C-43.66 28.67 -44.32 28.34 -45 28 C-44.36026485 24.85289426 -43.71219502 21.70756341 -43.0625 18.5625 C-42.88009766 17.66466797 -42.69769531 16.76683594 -42.50976562 15.84179688 C-42.33251953 14.98779297 -42.15527344 14.13378906 -41.97265625 13.25390625 C-41.81031494 12.46314697 -41.64797363 11.6723877 -41.48071289 10.85766602 C-41 9 -41 9 -40 8 C-38.43827255 7.91314397 -36.87270656 7.89297781 -35.30859375 7.90234375 C-34.36435547 7.90556641 -33.42011719 7.90878906 -32.44726562 7.91210938 C-31.45404297 7.92048828 -30.46082031 7.92886719 -29.4375 7.9375 C-28.44041016 7.94201172 -27.44332031 7.94652344 -26.41601562 7.95117188 C-23.94398513 7.96299977 -21.47198528 7.98093585 -19 8 C-18.01 10.97 -17.02 13.94 -16 17 C-14.35 14.03 -12.7 11.06 -11 8 C-7.66666667 8 -4.33333333 8 -1 8 C-0.34 7.67 0.32 7.34 1 7 C0.4740625 5.824375 0.4740625 5.824375 -0.0625 4.625 C-0.371875 3.75875 -0.68125 2.8925 -1 2 C-0.67 1.34 -0.34 0.68 0 0 Z " fill="#030303" transform="translate(186,34)"/>
<path d="M0 0 C2.6875 2.5 2.6875 2.5 4 5 C4.78375 4.360625 5.5675 3.72125 6.375 3.0625 C11.05532575 -0.6148988 15.16930091 -0.68762687 21 0 C23.65537514 1.81342692 24.56322927 3.09734049 25.9375 5.9375 C26.02853781 8.94174764 24.66475033 10.56690336 23 13 C22.67 13.66 22.34 14.32 22 15 C22.89163577 17.11683841 22.89163577 17.11683841 24 19 C20.92808524 22.27670908 18.45173854 23.38958788 14.0625 23.6875 C10.10839132 23.52200666 8.10972785 22.82163103 5.375 19.9375 C2.75050524 16.32513361 2.45381676 13.46049647 3 9 C1.35 9 -0.3 9 -2 9 C-2 8.34 -2 7.68 -2 7 C-4.99405579 7.46853622 -4.99405579 7.46853622 -8 9 C-9.46022435 12.52451159 -9.46022435 12.52451159 -10 16 C-8.9171875 15.2265625 -8.9171875 15.2265625 -7.8125 14.4375 C-5 13 -5 13 -2.3125 13.1875 C0 14 0 14 2 16 C1.83286119 18.5906515 1.18799218 19.78067579 -0.5 21.75 C-4.33061281 23.6653064 -7.8087394 23.76138817 -12 23 C-14.86555194 21.66234609 -15.85318575 20.52250674 -18 18 C-19.33088156 13.77249387 -19.1682886 11.55161263 -17.875 7.3125 C-13.6273594 -0.19166505 -8.29335318 -1.54383959 0 0 Z M11 15 C15 16 15 16 15 16 Z " fill="#020202" transform="translate(211,42)"/>
<path d="M0 0 C1.32 0 2.64 0 4 0 C4 0.99 4 1.98 4 3 C6.97 3 9.94 3 13 3 C13.391875 3.969375 13.78375 4.93875 14.1875 5.9375 C15.0846875 7.4534375 15.0846875 7.4534375 16 9 C18.475 9.495 18.475 9.495 21 10 C21 13.63 21 17.26 21 21 C21.99 21 22.98 21 24 21 C24 22.65 24 24.3 24 26 C23.01 26.33 22.02 26.66 21 27 C21 29.97 21 32.94 21 36 C20.05125 36.20625 19.1025 36.4125 18.125 36.625 C14.70833333 37.70833333 14.70833333 37.70833333 13.625 41.125 C13.41875 42.07375 13.2125 43.0225 13 44 C6.375 44.25 6.375 44.25 3 42 C-0.12521833 41.83300768 -0.12521833 41.83300768 -3 42 C-3 41.34 -3 40.68 -3 40 C-3.66 39.67 -4.32 39.34 -5 39 C-5 40.32 -5 41.64 -5 43 C-5.66 43 -6.32 43 -7 43 C-6.505 40.03 -6.505 40.03 -6 37 C-7.32 36.34 -8.64 35.68 -10 35 C-10 34.34 -10 33.68 -10 33 C-8.515 32.505 -8.515 32.505 -7 32 C-7.5259375 30.824375 -7.5259375 30.824375 -8.0625 29.625 C-8.371875 28.75875 -8.68125 27.8925 -9 27 C-8.67 26.34 -8.34 25.68 -8 25 C-9.32 24.67 -10.64 24.34 -12 24 C-12 25.65 -12 27.3 -12 29 C-12.99 29.33 -13.98 29.66 -15 30 C-15.05386629 27.87527424 -15.09273071 25.75016348 -15.125 23.625 C-15.14820312 22.44164063 -15.17140625 21.25828125 -15.1953125 20.0390625 C-15 17 -15 17 -13 15 C-12.67 16.65 -12.34 18.3 -12 20 C-10.741875 20.04125 -9.48375 20.0825 -8.1875 20.125 C-7.47980469 20.14820312 -6.77210937 20.17140625 -6.04296875 20.1953125 C-3.68640281 20.13254462 -3.68640281 20.13254462 -1 18 C1.63434254 18.32126128 3.62710097 18.81355048 6 20 C7.3749149 22.90259811 8 24.76138705 8 28 C6.68 28 5.36 28 4 28 C4 27.34 4 26.68 4 26 C2.68 26.33 1.36 26.66 0 27 C0 26.34 0 25.68 0 25 C-0.99 25 -1.98 25 -3 25 C-3 26.65 -3 28.3 -3 30 C-1.35 30 0.3 30 2 30 C1.34 30.33 0.68 30.66 0 31 C0 31.66 0 32.32 0 33 C1.0725 32.979375 2.145 32.95875 3.25 32.9375 C6.20515893 32.98675265 8.21609741 33.30402435 11 34 C12.485 33.505 12.485 33.505 14 33 C14 29.7 14 26.4 14 23 C13.01 22.67 12.02 22.34 11 22 C11.99 22 12.98 22 14 22 C13.34 21.38125 12.68 20.7625 12 20.125 C10 18 10 18 10 16 C8.68 15.67 7.36 15.34 6 15 C6.66 15 7.32 15 8 15 C7.05270463 12.84188612 7.05270463 12.84188612 5 11 C4.505 10.154375 4.01 9.30875 3.5 8.4375 C2.23133163 5.89593129 2.23133163 5.89593129 0 5 C0 3.35 0 1.7 0 0 Z " fill="#417D58" transform="translate(42,29)"/>
<path d="M0 0 C3.25 2 3.25 2 5 4 C4.34 5.32 3.68 6.64 3 8 C-0.66666667 8 -4.33333333 8 -8 8 C-8.33 8.66 -8.66 9.32 -9 10 C-7.6696875 10.0928125 -7.6696875 10.0928125 -6.3125 10.1875 C-2.24160762 11.18602077 -0.72071349 12.89061315 2 16 C2.33 16.33 2.66 16.66 3 17 C3.43328524 20.81291008 3.29274175 22.54574556 1.1875 25.8125 C-2.00895335 29.00895335 -4.88938811 29.23652208 -9.25 29.4375 C-13.61271349 29.43170622 -15.88002438 28.87459538 -19.1875 26 C-20.15109582 25.02512086 -21.09910937 24.03310325 -22 23 C-21 20 -21 20 -18.9375 18.8125 C-18.298125 18.544375 -17.65875 18.27625 -17 18 C-16.484375 18.495 -15.96875 18.99 -15.4375 19.5 C-12.19319983 21.49649241 -9.73782666 21.21564385 -6 21 C-6 20.01 -6 19.02 -6 18 C-6.886875 17.938125 -7.77375 17.87625 -8.6875 17.8125 C-12.75839238 16.81397923 -14.27928651 15.10938685 -17 12 C-17.33 11.67 -17.66 11.34 -18 11 C-17.53297683 4.69518717 -17.53297683 4.69518717 -15.5625 2.125 C-10.99338102 -1.16476566 -5.40827488 -0.55451021 0 0 Z " fill="#020202" transform="translate(116,36)"/>
<path d="M0 0 C2.31 0 4.62 0 7 0 C7 0.66 7 1.32 7 2 C7.66 2.33 8.32 2.66 9 3 C8.67 4.98 8.34 6.96 8 9 C8.33 8.67 8.66 8.34 9 8 C11.67058851 7.85884839 14.32432238 7.95752893 17 8 C17 8.66 17 9.32 17 10 C17.66 10.33 18.32 10.66 19 11 C18.41089844 11.51949219 17.82179688 12.03898437 17.21484375 12.57421875 C16.08755859 13.62029297 16.08755859 13.62029297 14.9375 14.6875 C13.80634766 15.71423828 13.80634766 15.71423828 12.65234375 16.76171875 C10.71421829 18.88661496 10.71421829 18.88661496 11.15625 21.6015625 C12.1132496 24.32192248 13.48104316 26.55646073 15 29 C15 29.66 15 30.32 15 31 C8.6 31.49230769 8.6 31.49230769 5.5625 29 C5.046875 28.34 4.53125 27.68 4 27 C3.67 28.32 3.34 29.64 3 31 C0.69 31 -1.62 31 -4 31 C-4 30.34 -4 29.68 -4 29 C-4.66 29 -5.32 29 -6 29 C-5.1908237 24.72852995 -4.37709263 20.45794016 -3.5625 16.1875 C-3.33240234 14.97255859 -3.10230469 13.75761719 -2.86523438 12.50585938 C-2.64287109 11.34248047 -2.42050781 10.17910156 -2.19140625 8.98046875 C-1.98717041 7.90692139 -1.78293457 6.83337402 -1.57250977 5.72729492 C-1 3 -1 3 0 0 Z " fill="#020202" transform="translate(322,34)"/>
<path d="M0 0 C0.99 0 1.98 0 3 0 C2.67 1.32 2.34 2.64 2 4 C1.34 4 0.68 4 0 4 C0 5.65 0 7.3 0 9 C1.98 9 3.96 9 6 9 C6 9.66 6 10.32 6 11 C7.65 9.35 9.3 7.7 11 6 C9.58457093 10.50363795 7.66447596 13.02261329 4 16 C-4.38470245 20.06325127 -12.90167723 22.93474707 -22.078125 20.0234375 C-27.31734469 17.92000694 -31.78993465 15.8413005 -36 12 C-36 11.34 -36 10.68 -36 10 C-36.66 10 -37.32 10 -38 10 C-38.33 8.68 -38.66 7.36 -39 6 C-38.34 6 -37.68 6 -37 6 C-35.52734375 7.53125 -35.52734375 7.53125 -33.9375 9.5 C-32.977742 10.68268468 -32.00297807 11.85373935 -31 13 C-30.67 13 -30.34 13 -30 13 C-30.66 12.01 -31.32 11.02 -32 10 C-28.53058454 10.45822468 -25.32604951 10.89131683 -22 12 C-22 12.66 -22 13.32 -22 14 C-21.01 14 -20.02 14 -19 14 C-19 13.01 -19 12.02 -19 11 C-20.32 10.34 -21.64 9.68 -23 9 C-23 8.34 -23 7.68 -23 7 C-22.34 6.67 -21.68 6.34 -21 6 C-20.34786708 3.97536745 -20.34786708 3.97536745 -20 2 C-19.01 2.33 -18.02 2.66 -17 3 C-17.33 3.66 -17.66 4.32 -18 5 C-17.071875 4.79375 -16.14375 4.5875 -15.1875 4.375 C-12 4 -12 4 -9 6 C-6.66800612 6.07905064 -4.33167378 6.08798769 -2 6 C-1.34 4.02 -0.68 2.04 0 0 Z " fill="#104251" transform="translate(57,66)"/>
<path d="M0 0 C3.23849275 2.56066869 3.8415306 4.02937493 4.5 8.0625 C3.89632752 11.60907583 2.7479865 12.76726097 0 15 C0.66 15.66 1.32 16.32 2 17 C1.8125 19 1.8125 19 1 21 C-3.23552856 23.82368571 -7.02477314 23.66653757 -12 23 C-14.93423195 21.20353146 -16.47205355 20.0558929 -18 17 C-18.51512617 12.90842645 -18.94367269 8.76410454 -16.953125 5.04296875 C-12.15483028 -0.7573228 -7.17291055 -0.93237242 0 0 Z M-10 15 C-6 16 -6 16 -6 16 Z " fill="#030303" transform="translate(138,42)"/>
<path d="M0 0 C2.78388975 1.70625501 3.85384206 2.47626739 4.75 5.6875 C4.87375 6.8321875 4.87375 6.8321875 5 8 C5.66 8 6.32 8 7 8 C7.2475 8.598125 7.495 9.19625 7.75 9.8125 C8.83658691 12.13305122 8.83658691 12.13305122 11.0625 13.21875 C13 15 13 15 13.390625 18.13671875 C13.32101563 19.89435547 13.32101563 19.89435547 13.25 21.6875 C13.21390625 22.86699219 13.1778125 24.04648437 13.140625 25.26171875 C13.07101563 26.61716797 13.07101563 26.61716797 13 28 C12.34 28 11.68 28 11 28 C10.67 28.66 10.34 29.32 10 30 C6.37 29.34 2.74 28.68 -1 28 C-1 27.34 -1 26.68 -1 26 C-1.99 25.67 -2.98 25.34 -4 25 C-4 23.68 -4 22.36 -4 21 C-0.86650268 19.95550089 -0.01031744 20.06576355 3 21 C3 21.66 3 22.32 3 23 C4.32 23 5.64 23 7 23 C6.505 22.13375 6.505 22.13375 6 21.25 C5 19 5 19 5 15 C2.36 14.67 -0.28 14.34 -3 14 C-3.06058594 13.38511719 -3.12117188 12.77023438 -3.18359375 12.13671875 C-3.26738281 11.32847656 -3.35117187 10.52023438 -3.4375 9.6875 C-3.51871094 8.88699219 -3.59992187 8.08648437 -3.68359375 7.26171875 C-3.95265693 4.83912821 -3.95265693 4.83912821 -5 2 C-4.34 1.67 -3.68 1.34 -3 1 C-3 1.99 -3 2.98 -3 4 C-2.34 4 -1.68 4 -1 4 C-0.67 2.68 -0.34 1.36 0 0 Z " fill="#2B485E" transform="translate(43,34)"/>
<path d="M0 0 C1.32 0 2.64 0 4 0 C4 0.99 4 1.98 4 3 C6.97 3 9.94 3 13 3 C12.01 3.33 11.02 3.66 10 4 C10 5.32 10 6.64 10 8 C11.45690581 9.26687462 12.92163704 10.53334436 14.4921875 11.65625 C17.18341919 14.05465337 17.9195226 16.24957436 18.30078125 19.8046875 C18.32711964 26.70534645 17.93207242 31.33490947 13.5 36.875 C12 38 12 38 9 38 C9.33 39.65 9.66 41.3 10 43 C9.34 43 8.68 43 8 43 C7.505 41.515 7.505 41.515 7 40 C3.48809191 38.77030122 3.48809191 38.77030122 0 38 C0 37.67 0 37.34 0 37 C5.94 36.505 5.94 36.505 12 36 C12 35.01 12 34.02 12 33 C12.66 33 13.32 33 14 33 C14 29.7 14 26.4 14 23 C13.01 22.67 12.02 22.34 11 22 C11.99 22 12.98 22 14 22 C13.34 21.38125 12.68 20.7625 12 20.125 C10 18 10 18 10 16 C8.68 15.67 7.36 15.34 6 15 C6.66 15 7.32 15 8 15 C7.05270463 12.84188612 7.05270463 12.84188612 5 11 C4.505 10.154375 4.01 9.30875 3.5 8.4375 C2.23133163 5.89593129 2.23133163 5.89593129 0 5 C0 3.35 0 1.7 0 0 Z " fill="#5A8460" transform="translate(42,29)"/>
<path d="M0 0 C0.66 0 1.32 0 2 0 C3.47265625 1.53125 3.47265625 1.53125 5.0625 3.5 C6.022258 4.68268468 6.99702193 5.85373935 8 7 C8.33 7 8.66 7 9 7 C8.34 6.01 7.68 5.02 7 4 C9.77242864 5.09216886 12.37394862 6.2025555 15 7.625 C20.89172874 10.13897616 28.4124369 10.22264151 34.44140625 8.16796875 C36.36088913 7.19547932 38.1706059 6.13042749 40 5 C41.65697379 4.30959426 43.31923769 3.63028587 45 3 C45 3.66 45 4.32 45 5 C46.65 3.35 48.3 1.7 50 0 C48.58457093 4.50363795 46.66447596 7.02261329 43 10 C34.61529755 14.06325127 26.09832277 16.93474707 16.921875 14.0234375 C11.68265531 11.92000694 7.21006535 9.8413005 3 6 C3 5.34 3 4.68 3 4 C2.34 4 1.68 4 1 4 C0.67 2.68 0.34 1.36 0 0 Z " fill="#245568" transform="translate(18,72)"/>
<path d="M0 0 C0.33 0 0.66 0 1 0 C1.33 3.3 1.66 6.6 2 10 C1.01 9.67 0.02 9.34 -1 9 C-1 9.66 -1 10.32 -1 11 C-1 14 -1 17 -1 20 C-3.73905345 21.36952673 -5.97087332 21.12621361 -9 21 C-11 20 -11 20 -13 17 C-13.33 21.29 -13.66 25.58 -14 30 C-14.33 30 -14.66 30 -15 30 C-15.02714735 27.77090129 -15.04646254 25.54170633 -15.0625 23.3125 C-15.07990234 21.45044922 -15.07990234 21.45044922 -15.09765625 19.55078125 C-15.01478673 16.53764546 -14.70839449 13.91724661 -14 11 C-13.01 10.67 -12.02 10.34 -11 10 C-11.020625 9.030625 -11.04125 8.06125 -11.0625 7.0625 C-11 4 -11 4 -10 3 C-8.48071962 2.92820036 -6.95832518 2.91607993 -5.4375 2.9375 C-4.61121094 2.94652344 -3.78492188 2.95554687 -2.93359375 2.96484375 C-2.29550781 2.97644531 -1.65742187 2.98804688 -1 3 C-0.67 2.01 -0.34 1.02 0 0 Z M-7 13 C-7 14.32 -7 15.64 -7 17 C-5.68 17 -4.36 17 -3 17 C-3 15.02 -3 13.04 -3 11 C-4.46225016 10.90754997 -4.46225016 10.90754997 -7 13 Z " fill="#2F5765" transform="translate(41,29)"/>
<path d="M0 0 C2 2 2 2 2 5 C3.8871875 5.061875 3.8871875 5.061875 5.8125 5.125 C6.52019531 5.14820313 7.22789063 5.17140625 7.95703125 5.1953125 C10.31359719 5.13254462 10.31359719 5.13254462 13 3 C15.63434254 3.32126128 17.62710097 3.81355048 20 5 C21.3749149 7.90259811 22 9.76138705 22 13 C20.68 13 19.36 13 18 13 C18 12.34 18 11.68 18 11 C16.68 11.33 15.36 11.66 14 12 C14 11.34 14 10.68 14 10 C13.01 10 12.02 10 11 10 C11 11.65 11 13.3 11 15 C12.65 15 14.3 15 16 15 C15.01 15.495 15.01 15.495 14 16 C14 16.66 14 17.32 14 18 C11.36 17.34 8.72 16.68 6 16 C5 12 5 12 6 10 C4.68 9.67 3.36 9.34 2 9 C2 10.65 2 12.3 2 14 C1.01 14.33 0.02 14.66 -1 15 C-1.02693575 12.87506859 -1.04636628 10.75004088 -1.0625 8.625 C-1.07410156 7.44164062 -1.08570312 6.25828125 -1.09765625 5.0390625 C-1 2 -1 2 0 0 Z " fill="#46697B" transform="translate(28,44)"/>
<path d="M0 0 C1.32 0 2.64 0 4 0 C4.3403125 1.2065625 4.3403125 1.2065625 4.6875 2.4375 C5.120625 3.283125 5.55375 4.12875 6 5 C7.65 5.33 9.3 5.66 11 6 C11 9.63 11 13.26 11 17 C11.99 17 12.98 17 14 17 C14 18.65 14 20.3 14 22 C13.01 22.33 12.02 22.66 11 23 C11 25.97 11 28.94 11 32 C10.05125 32.268125 9.1025 32.53625 8.125 32.8125 C4.74732727 33.74986588 4.74732727 33.74986588 3 37 C2.63163045 32.70235528 3.60819497 30.53987145 6 27 C8.09428889 22.81142223 7.41793012 17.56140874 7 13 C4.55705297 7.52779865 1.16772792 5.58386396 -4 3 C-2.68 2.67 -1.36 2.34 0 2 C0 1.34 0 0.68 0 0 Z " fill="#3C7952" transform="translate(52,33)"/>
<path d="M0 0 C3.87258664 1.46891217 5.17638688 3.33222601 7 7 C7.88005423 13.41059112 7.77434196 19.54817273 4 25 C2.5 26.875 2.5 26.875 1 28 C0.01 28 -0.98 28 -2 28 C-1.67 29.65 -1.34 31.3 -1 33 C-1.66 33 -2.32 33 -3 33 C-3.495 31.515 -3.495 31.515 -4 30 C-7.51190809 28.77030122 -7.51190809 28.77030122 -11 28 C-11 27.67 -11 27.34 -11 27 C-7.04 26.67 -3.08 26.34 1 26 C1 25.01 1 24.02 1 23 C1.66 23 2.32 23 3 23 C3 19.7 3 16.4 3 13 C2.01 12.67 1.02 12.34 0 12 C0.99 12 1.98 12 3 12 C3.94721072 9.39517051 4.30222393 7.69325299 3.17578125 5.109375 C2.17063275 3.37417127 1.0893855 1.68359577 0 0 Z " fill="#90B79D" transform="translate(53,39)"/>
<path d="M0 0 C3.63 0.33 7.26 0.66 11 1 C11.66 2.65 12.32 4.3 13 6 C14.65816784 6.68753301 16.32459336 7.35561283 18 8 C19.06020724 10.3650777 18.99837916 12.03403767 18.875 14.625 C18.91625 15.40875 18.9575 16.1925 19 17 C19.99 17.66 20.98 18.32 22 19 C21.25 25.625 21.25 25.625 19 29 C18.60986284 30.9896995 18.26797351 32.99019869 18 35 C16.14223235 31.86501708 15.79859524 29.62528568 16 26 C17.32 25.67 18.64 25.34 20 25 C20 23.35 20 21.7 20 20 C19.01 20 18.02 20 17 20 C16.15901344 15.98195309 15.94595055 12.98196457 17 9 C16.21625 9.04125 15.4325 9.0825 14.625 9.125 C12 9 12 9 10 7 C9.67 5.68 9.34 4.36 9 3 C6.03 2.67 3.06 2.34 0 2 C0 1.34 0 0.68 0 0 Z " fill="#10464D" transform="translate(46,30)"/>
<path d="M0 0 C0.99 0.33 1.98 0.66 3 1 C2.67 1.66 2.34 2.32 2 3 C2.886875 2.7525 3.77375 2.505 4.6875 2.25 C8 2 8 2 10.875 3.9375 C11.57625 4.618125 12.2775 5.29875 13 6 C11.875 8 11.875 8 10 10 C6.04599009 10.50476722 3.39313374 10.0880823 0 8 C0 5.36 0 2.72 0 0 Z " fill="#275677" transform="translate(37,68)"/>
<path d="M0 0 C0.66 0 1.32 0 2 0 C2.98669759 1.89192475 3.9640602 3.78871978 4.9375 5.6875 C5.48277344 6.74324219 6.02804688 7.79898438 6.58984375 8.88671875 C10.74549454 18.06138268 9.85356975 28.77165029 6.8515625 38.171875 C6 40 6 40 4 41 C3.75 35.375 3.75 35.375 6 32 C6.31984588 28.57674292 6.31984588 28.57674292 6.25 24.75 C6.25515625 23.46609375 6.2603125 22.1821875 6.265625 20.859375 C5.82960202 14.52421762 3.85909884 9.59388904 1 4 C0.3125 1.625 0.3125 1.625 0 0 Z " fill="#0A2438" transform="translate(72,32)"/>
<path d="M0 0 C1.82144531 0.11794922 1.82144531 0.11794922 3.6796875 0.23828125 C6.85031215 0.65168469 9.24367097 1.3454361 12.125 2.6875 C12.125 3.0175 12.125 3.3475 12.125 3.6875 C4.7878896 5.34597884 -2.86293903 5.71974258 -9.875 2.6875 C-9.875 2.0275 -9.875 1.3675 -9.875 0.6875 C-6.3018003 -0.50356657 -3.75185186 -0.26572312 0 0 Z " fill="#468153" transform="translate(41.875,61.3125)"/>
<path d="M0 0 C0.33 0 0.66 0 1 0 C1.33 3.3 1.66 6.6 2 10 C1.01 9.67 0.02 9.34 -1 9 C-1.33 8.34 -1.66 7.68 -2 7 C-6.455 8.485 -6.455 8.485 -11 10 C-11.04254356 8.00045254 -11.04080783 5.99958364 -11 4 C-10 3 -10 3 -7.93359375 2.90234375 C-6.69802734 2.91974609 -6.69802734 2.91974609 -5.4375 2.9375 C-4.61121094 2.94652344 -3.78492188 2.95554687 -2.93359375 2.96484375 C-2.29550781 2.97644531 -1.65742187 2.98804688 -1 3 C-0.67 2.01 -0.34 1.02 0 0 Z " fill="#225174" transform="translate(41,29)"/>
<path d="M0 0 C2.31 0.33 4.62 0.66 7 1 C7 1.66 7 2.32 7 3 C8.98 3 10.96 3 13 3 C13 3.66 13 4.32 13 5 C12.34 5 11.68 5 11 5 C11 5.99 11 6.98 11 8 C12.32 8 13.64 8 15 8 C14.67 8.66 14.34 9.32 14 10 C10.37 9.34 6.74 8.68 3 8 C3 7.34 3 6.68 3 6 C2.01 5.67 1.02 5.34 0 5 C0 3.33333333 0 1.66666667 0 0 Z " fill="#304D5B" transform="translate(39,54)"/>
<path d="M0 0 C2 1.3125 2 1.3125 4 3 C4 3.99 4 4.98 4 6 C3.01 6.495 3.01 6.495 2 7 C2 8.32 2 9.64 2 11 C1.67 11.66 1.34 12.32 1 13 C-1.0625 13.625 -1.0625 13.625 -3 14 C-3.06058594 13.38511719 -3.12117188 12.77023438 -3.18359375 12.13671875 C-3.26738281 11.32847656 -3.35117187 10.52023438 -3.4375 9.6875 C-3.51871094 8.88699219 -3.59992187 8.08648437 -3.68359375 7.26171875 C-3.95265693 4.83912821 -3.95265693 4.83912821 -5 2 C-4.34 1.67 -3.68 1.34 -3 1 C-3 1.99 -3 2.98 -3 4 C-2.34 4 -1.68 4 -1 4 C-0.67 2.68 -0.34 1.36 0 0 Z " fill="#244A62" transform="translate(43,34)"/>
<path d="M0 0 C2.56695636 0.39491636 4.67123994 0.83561997 7 2 C8.3749149 4.90259811 9 6.76138705 9 10 C7.68 10 6.36 10 5 10 C5 9.34 5 8.68 5 8 C3.68 8.33 2.36 8.66 1 9 C1.33 8.01 1.66 7.02 2 6 C0.68 5.67 -0.64 5.34 -2 5 C-1.125 1.125 -1.125 1.125 0 0 Z " fill="#4F7073" transform="translate(41,47)"/>
<path d="M0 0 C1.32 0 2.64 0 4 0 C4 0.66 4 1.32 4 2 C4.66 2 5.32 2 6 2 C6.2475 2.5775 6.495 3.155 6.75 3.75 C8.16683317 6.3002997 9.87627537 8.01785701 12 10 C8.8125 10.75 8.8125 10.75 5 11 C2.0625 9.0625 2.0625 9.0625 0 7 C0.185625 6.21625 0.37125 5.4325 0.5625 4.625 C1.25962266 2.02910225 1.25962266 2.02910225 0 0 Z " fill="#244250" transform="translate(44,40)"/>
<path d="M0 0 C1.32 0 2.64 0 4 0 C4 0.99 4 1.98 4 3 C6.97 3 9.94 3 13 3 C12.01 3.33 11.02 3.66 10 4 C10 4.66 10 5.32 10 6 C8.68 6 7.36 6 6 6 C6.66 7.32 7.32 8.64 8 10 C7.01 11.485 7.01 11.485 6 13 C5.566875 12.05125 5.13375 11.1025 4.6875 10.125 C3.20697799 6.79958063 3.20697799 6.79958063 0 5 C-0.1875 2.375 -0.1875 2.375 0 0 Z " fill="#487D6C" transform="translate(42,29)"/>
<path d="M0 0 C1.32 0.33 2.64 0.66 4 1 C4 2.98 4 4.96 4 7 C4.99 7.33 5.98 7.66 7 8 C5.35 8.33 3.7 8.66 2 9 C2.66 10.32 3.32 11.64 4 13 C2.68 12.34 1.36 11.68 0 11 C0 10.34 0 9.68 0 9 C-0.66 9 -1.32 9 -2 9 C-2.33 8.01 -2.66 7.02 -3 6 C-2.34 5.67 -1.68 5.34 -1 5 C-0.34444881 2.47266765 -0.34444881 2.47266765 0 0 Z " fill="#2F5672" transform="translate(30,53)"/>
<path d="M0 0 C1 3 1 3 0.25 5.5625 C-1 8 -1 8 -4 10 C-6.40001324 15.03592521 -7.41396137 20.49123689 -8 26 C-8.66 25.67 -9.32 25.34 -10 25 C-8.85882642 14.93382712 -6.12385706 7.99850719 0 0 Z " fill="#14334B" transform="translate(15,29)"/>
<path d="M0 0 C0.99 0 1.98 0 3 0 C2.03644647 9.41002278 2.03644647 9.41002278 1 14 C-0.98 14 -2.96 14 -5 14 C-4.67 13.34 -4.34 12.68 -4 12 C-3.34 12 -2.68 12 -2 12 C-1.855625 10.7625 -1.71125 9.525 -1.5625 8.25 C-1.21311498 5.43495501 -0.79620634 2.7298503 0 0 Z " fill="#0D0D0D" transform="translate(149,51)"/>
<path d="M0 0 C2 2 2 2 2 5 C2.66 5.33 3.32 5.66 4 6 C4 6.99 4 7.98 4 9 C3.34 9 2.68 9 2 9 C2 10.65 2 12.3 2 14 C1.01 14.33 0.02 14.66 -1 15 C-1.02693575 12.87506859 -1.04636628 10.75004088 -1.0625 8.625 C-1.07410156 7.44164062 -1.08570312 6.25828125 -1.09765625 5.0390625 C-1 2 -1 2 0 0 Z " fill="#40696F" transform="translate(28,44)"/>
<path d="M0 0 C4.37934119 0.51958285 8.68803391 1.05675742 13 2 C13 3.32 13 4.64 13 6 C10.36 6 7.72 6 5 6 C5 5.34 5 4.68 5 4 C4.34 3.67 3.68 3.34 3 3 C3 4.32 3 5.64 3 7 C2.34 7 1.68 7 1 7 C1.33 5.02 1.66 3.04 2 1 C1.34 0.67 0.68 0.34 0 0 Z " fill="#558B80" transform="translate(34,65)"/>
<path d="M0 0 C0.99 0.33 1.98 0.66 3 1 C1.730447 1.64834654 0.45930294 2.29357815 -0.8125 2.9375 C-1.52019531 3.29714844 -2.22789063 3.65679687 -2.95703125 4.02734375 C-6.08724613 5.51763726 -8.58508315 6.12342043 -12.01171875 6.09765625 C-13.14770508 6.09282227 -13.14770508 6.09282227 -14.30664062 6.08789062 C-15.09232422 6.07951172 -15.87800781 6.07113281 -16.6875 6.0625 C-17.48478516 6.05798828 -18.28207031 6.05347656 -19.10351562 6.04882812 C-21.06904257 6.0370585 -23.03453085 6.01912348 -25 6 C-25 5.67 -25 5.34 -25 5 C-24.18917969 4.96261719 -23.37835938 4.92523438 -22.54296875 4.88671875 C-10.53084711 4.66845812 -10.53084711 4.66845812 0 0 Z " fill="#18364D" transform="translate(60,87)"/>
<path d="M0 0 C0.66 0 1.32 0 2 0 C2.6875 1.8125 2.6875 1.8125 3 4 C1.15840327 6.48615558 -0.00470711 7.00156904 -3 8 C-4.39439664 8.06665376 -5.79169875 8.08538199 -7.1875 8.0625 C-9.0746875 8.0315625 -9.0746875 8.0315625 -11 8 C-10.67 7.34 -10.34 6.68 -10 6 C-8.88625 5.71125 -7.7725 5.4225 -6.625 5.125 C-2.77632886 3.93058482 -2.0643745 3.25953869 0 0 Z " fill="#181818" transform="translate(115,57)"/>
<path d="M0 0 C0.33 1.32 0.66 2.64 1 4 C0.01 4.66 -0.98 5.32 -2 6 C-2.72382467 8.05925139 -2.72382467 8.05925139 -3 10 C-4.65 9.67 -6.3 9.34 -8 9 C-7.61479436 6.46089803 -7.29902057 5.27248877 -5.37109375 3.515625 C-4.73300781 3.09796875 -4.09492188 2.6803125 -3.4375 2.25 C-2.79683594 1.82203125 -2.15617187 1.3940625 -1.49609375 0.953125 C-1.00238281 0.63859375 -0.50867188 0.3240625 0 0 Z " fill="#123551" transform="translate(25,21)"/>
<path d="M0 0 C0.66 0.99 1.32 1.98 2 3 C0.1875 5 0.1875 5 -2 7 C-2.99 7 -3.98 7 -5 7 C-4.67 8.65 -4.34 10.3 -4 12 C-4.66 12 -5.32 12 -6 12 C-6.33 11.01 -6.66 10.02 -7 9 C-10.51190809 7.77030122 -10.51190809 7.77030122 -14 7 C-14 6.67 -14 6.34 -14 6 C-8.06 5.505 -8.06 5.505 -2 5 C-2 4.01 -2 3.02 -2 2 C-1.34 2 -0.68 2 0 2 C0 1.34 0 0.68 0 0 Z " fill="#75AD84" transform="translate(56,60)"/>
<path d="M0 0 C3 1 3 1 4.125 2.8125 C4.94641784 4.86604461 5.53710172 6.83980804 6 9 C5.01 9.495 5.01 9.495 4 10 C1.875 9.0625 1.875 9.0625 0 8 C0 5.36 0 2.72 0 0 Z " fill="#2B5E68" transform="translate(37,68)"/>
<path d="M0 0 C1.00289062 0.10183594 2.00578125 0.20367187 3.0390625 0.30859375 C3.80992188 0.39238281 4.58078125 0.47617187 5.375 0.5625 C4.715 1.8825 4.055 3.2025 3.375 4.5625 C2.385 4.2325 1.395 3.9025 0.375 3.5625 C-1.18618428 3.49509135 -2.7500252 3.47735544 -4.3125 3.5 C-5.12074219 3.50902344 -5.92898437 3.51804688 -6.76171875 3.52734375 C-7.37660156 3.53894531 -7.99148437 3.55054688 -8.625 3.5625 C-8.295 2.5725 -7.965 1.5825 -7.625 0.5625 C-4.89657939 -0.80171031 -3.01546682 -0.31557211 0 0 Z " fill="#0B0B0B" transform="translate(114.625,40.4375)"/>
<path d="M0 0 C3.81287042 1.44626119 5.32707177 3.30194812 7 7 C6.6875 9.3125 6.6875 9.3125 6 11 C5.34 11 4.68 11 4 11 C4 12.65 4 14.3 4 16 C3.67 15.01 3.34 14.02 3 13 C2.01 12.67 1.02 12.34 0 12 C0.99 12 1.98 12 3 12 C3.94721072 9.39517051 4.30222393 7.69325299 3.17578125 5.109375 C2.17063275 3.37417127 1.0893855 1.68359577 0 0 Z " fill="#709587" transform="translate(53,39)"/>
<path d="M0 0 C-1.44126786 3.36295835 -3.20592655 5.62927102 -6 8 C-6.99 8 -7.98 8 -9 8 C-8.4376049 4.73810844 -7.5859495 3.08865152 -5 1 C-2 0 -2 0 0 0 Z " fill="#0D0D0D" transform="translate(339,45)"/>
<path d="M0 0 C0.66 0 1.32 0 2 0 C2.33 0.99 2.66 1.98 3 3 C6.67282054 6.45677227 10.37431408 8.18600552 15 10 C15 10.66 15 11.32 15 12 C9.07488999 10.63266692 4.26752596 7.25804257 0 3 C0 2.01 0 1.02 0 0 Z " fill="#133047" transform="translate(15,79)"/>
<path d="M0 0 C2.625 -0.1875 2.625 -0.1875 5 0 C4.34 1.98 3.68 3.96 3 6 C0.69 6 -1.62 6 -4 6 C-4.33 5.34 -4.66 4.68 -5 4 C-4.01 3.67 -3.02 3.34 -2 3 C-1.34 2.01 -0.68 1.02 0 0 Z " fill="#0F3A60" transform="translate(49,74)"/>
<path d="M0 0 C0.33 0.66 0.66 1.32 1 2 C0.01 2 -0.98 2 -2 2 C-2 4.97 -2 7.94 -2 11 C-2.66 11 -3.32 11 -4 11 C-5.125 7.25 -5.125 7.25 -4 5 C-4.66 5 -5.32 5 -6 5 C-6.33 3.68 -6.66 2.36 -7 1 C-3.535 0.505 -3.535 0.505 0 0 Z " fill="#3E6284" transform="translate(38,49)"/>
<path d="M0 0 C1 3 1 3 0 5.6875 C-2 8 -2 8 -5.6875 8.3125 C-6.780625 8.209375 -7.87375 8.10625 -9 8 C-9 7.34 -9 6.68 -9 6 C-8.01 6 -7.02 6 -6 6 C-3.35412766 3.60414714 -3.35412766 3.60414714 -1 1 C-0.67 0.67 -0.34 0.34 0 0 Z " fill="#0E0E0E" transform="translate(175,57)"/>
<path d="M0 0 C2.475 0.99 2.475 0.99 5 2 C4.67 2.99 4.34 3.98 4 5 C3.21625 5.103125 2.4325 5.20625 1.625 5.3125 C-1.33045181 5.77595022 -1.33045181 5.77595022 -3 9 C-3.26218749 5.85375007 -3.24754367 4.38162983 -1.5 1.6875 C-1.005 1.130625 -0.51 0.57375 0 0 Z " fill="#357549" transform="translate(58,61)"/>
<path d="M0 0 C1.875 0.1875 1.875 0.1875 4 1 C5.25 3.5625 5.25 3.5625 6 6 C4.35 6.66 2.7 7.32 1 8 C0.26919734 6.02253397 -0.39421747 4.01927511 -1 2 C-0.67 1.34 -0.34 0.68 0 0 Z " fill="#3A5D5F" transform="translate(29,41)"/>
<path d="M0 0 C0.33 0 0.66 0 1 0 C1.55353075 14.78132118 1.55353075 14.78132118 -2 21 C-2.95638118 18.41777082 -3.14112843 17.33870822 -2.0625 14.75 C-0.86358983 11.64693837 -0.59338319 8.99964507 -0.375 5.6875 C-0.30023438 4.61886719 -0.22546875 3.55023438 -0.1484375 2.44921875 C-0.09945312 1.64097656 -0.05046875 0.83273438 0 0 Z " fill="#0D2942" transform="translate(79,52)"/>
<path d="M0 0 C0.33 1.32 0.66 2.64 1 4 C-1.70879335 5.35439668 -4.00933268 5.06501451 -7 5 C-7 4.01 -7 3.02 -7 2 C-4.69 1.34 -2.38 0.68 0 0 Z " fill="#315572" transform="translate(39,45)"/>
<path d="M0 0 C0.33 0 0.66 0 1 0 C1.33 3.3 1.66 6.6 2 10 C1.01 9.67 0.02 9.34 -1 9 C-1 7.68 -1 6.36 -1 5 C-1.99 5 -2.98 5 -4 5 C-4 4.34 -4 3.68 -4 3 C-3.01 3 -2.02 3 -1 3 C-0.67 2.01 -0.34 1.02 0 0 Z " fill="#2C5878" transform="translate(41,29)"/>
<path d="M0 0 C-0.33 1.65 -0.66 3.3 -1 5 C-3.31 4.34 -5.62 3.68 -8 3 C-8 2.34 -8 1.68 -8 1 C-5.07175348 0.02391783 -3.04386724 -0.08226668 0 0 Z " fill="#366E5B" transform="translate(40,61)"/>
<path d="M0 0 C1.65 0 3.3 0 5 0 C5 0.66 5 1.32 5 2 C4.34 2 3.68 2 3 2 C3 2.99 3 3.98 3 5 C4.32 5 5.64 5 7 5 C6.67 5.66 6.34 6.32 6 7 C3.36 6.34 0.72 5.68 -2 5 C-2 4.34 -2 3.68 -2 3 C-1.01 3 -0.02 3 1 3 C0.67 2.01 0.34 1.02 0 0 Z " fill="#345B65" transform="translate(47,57)"/>
<path d="M0 0 C2.375 -0.1875 2.375 -0.1875 5 0 C5.66 0.99 6.32 1.98 7 3 C6.67 3.99 6.34 4.98 6 6 C3.5625 5.25 3.5625 5.25 1 4 C0.1875 1.875 0.1875 1.875 0 0 Z " fill="#65836C" transform="translate(51,43)"/>
<path d="M0 0 C0.33 0 0.66 0 1 0 C1.66 4.62 2.32 9.24 3 14 C0.525 13.01 0.525 13.01 -2 12 C-1.34 8.04 -0.68 4.08 0 0 Z " fill="#4B855F" transform="translate(60,49)"/>
<path d="M0 0 C0.66 0 1.32 0 2 0 C2.66 1.65 3.32 3.3 4 5 C3.01 5.99 2.02 6.98 1 8 C-0.32 7.34 -1.64 6.68 -3 6 C-2.34 6 -1.68 6 -1 6 C-1 5.34 -1 4.68 -1 4 C-0.34 4 0.32 4 1 4 C0.67 2.68 0.34 1.36 0 0 Z " fill="#0E0E0E" transform="translate(191,35)"/>
<path d="M0 0 C4.87362847 0.45336079 7.39042389 1.7089159 11 5 C6.94393835 4.53199289 3.53411321 4.12046792 0 2 C0 1.34 0 0.68 0 0 Z " fill="#173A4E" transform="translate(53,19)"/>
<path d="M0 0 C0.99 0.33 1.98 0.66 3 1 C3.71706982 2.98248715 4.38290413 4.98415349 5 7 C5.66 7.66 6.32 8.32 7 9 C7 9.66 7 10.32 7 11 C4 10 4 10 2.83203125 8.22265625 C2.49558594 7.50980469 2.15914062 6.79695313 1.8125 6.0625 C1.46832031 5.35222656 1.12414062 4.64195313 0.76953125 3.91015625 C0 2 0 2 0 0 Z " fill="#112E43" transform="translate(7,67)"/>
<path d="M0 0 C1.9375 0.3125 1.9375 0.3125 4 1 C4.33 1.99 4.66 2.98 5 4 C4.01 5.485 4.01 5.485 3 7 C3 6.01 3 5.02 3 4 C1.35 4 -0.3 4 -2 4 C-2.33 3.34 -2.66 2.68 -3 2 C-2.01 2 -1.02 2 0 2 C0 1.34 0 0.68 0 0 Z " fill="#214E72" transform="translate(27,63)"/>
<path d="M0 0 C4.75 0.875 4.75 0.875 7 2 C6.67 3.32 6.34 4.64 6 6 C6 5.34 6 4.68 6 4 C3.69 3.67 1.38 3.34 -1 3 C-0.67 2.01 -0.34 1.02 0 0 Z " fill="#3E6E60" transform="translate(41,47)"/>
<path d="M0 0 C1.32 0.33 2.64 0.66 4 1 C2.8125 3 2.8125 3 1 5 C-1.6875 5.25 -1.6875 5.25 -4 5 C-2.68 3.35 -1.36 1.7 0 0 Z " fill="#1B4B6C" transform="translate(46,73)"/>
<path d="M0 0 C0.99 0.33 1.98 0.66 3 1 C3.144375 1.78375 3.28875 2.5675 3.4375 3.375 C3.87798925 5.96421018 3.87798925 5.96421018 5 8 C3.68 7.34 2.36 6.68 1 6 C1 5.34 1 4.68 1 4 C0.34 4 -0.32 4 -1 4 C-1.33 3.01 -1.66 2.02 -2 1 C-1.34 0.67 -0.68 0.34 0 0 Z " fill="#336075" transform="translate(29,58)"/>
<path d="M0 0 C0.33 1.32 0.66 2.64 1 4 C1.99 4 2.98 4 4 4 C4 5.65 4 7.3 4 9 C3.01 9 2.02 9 1 9 C0.67 6.03 0.34 3.06 0 0 Z " fill="#34735C" transform="translate(62,46)"/>
<path d="M0 0 C0 1.98 0 3.96 0 6 C-1.32 6 -2.64 6 -4 6 C-4 4.35 -4 2.7 -4 1 C-1 0 -1 0 0 0 Z " fill="#29557C" transform="translate(25,49)"/>
<path d="M0 0 C0.66 0 1.32 0 2 0 C2.33 1.32 2.66 2.64 3 4 C1.68 4.99 0.36 5.98 -1 7 C-1.625 5.1875 -1.625 5.1875 -2 3 C-1.34 2.01 -0.68 1.02 0 0 Z " fill="#252525" transform="translate(115,57)"/>
<path d="M0 0 C0.33 0.66 0.66 1.32 1 2 C1.99 2 2.98 2 4 2 C4 2.99 4 3.98 4 5 C2.02 5 0.04 5 -2 5 C-2 4.01 -2 3.02 -2 2 C-1.34 2 -0.68 2 0 2 C0 1.34 0 0.68 0 0 Z " fill="#133544" transform="translate(52,57)"/>
<path d="M0 0 C0.99 0 1.98 0 3 0 C3 1.65 3 3.3 3 5 C0.03824877 4.38722388 -1.38058783 3.74627478 -4 2 C-2.68 2 -1.36 2 0 2 C0 1.34 0 0.68 0 0 Z " fill="#3F7F4A" transform="translate(52,33)"/>
<path d="M0 0 C0.99 0.33 1.98 0.66 3 1 C3 2.98 3 4.96 3 7 C2.01 7.495 2.01 7.495 1 8 C0.67 5.36 0.34 2.72 0 0 Z " fill="#111111" transform="translate(116,52)"/>
<path d="M0 0 C0.99 0.99 1.98 1.98 3 3 C0.525 4.485 0.525 4.485 -2 6 C-2 2 -2 2 0 0 Z " fill="#090909" transform="translate(315,45)"/>
<path d="M0 0 C0.66 0 1.32 0 2 0 C2 2.64 2 5.28 2 8 C1.01 7.34 0.02 6.68 -1 6 C-0.67 4.02 -0.34 2.04 0 0 Z " fill="#4E6F8A" transform="translate(36,53)"/>
<path d="M0 0 C2.64 0 5.28 0 8 0 C8.33 0.66 8.66 1.32 9 2 C6.69 2.33 4.38 2.66 2 3 C1.34 2.01 0.68 1.02 0 0 Z " fill="#133648" transform="translate(47,48)"/>
<path d="M0 0 C4 2 4 2 6 5 C5.67 6.32 5.34 7.64 5 9 C3.35 6.03 1.7 3.06 0 0 Z " fill="#93C598" transform="translate(53,39)"/>
<path d="M0 0 C0.66 0.33 1.32 0.66 2 1 C1.67 2.65 1.34 4.3 1 6 C0.01 6.33 -0.98 6.66 -2 7 C-2.33 6.01 -2.66 5.02 -3 4 C-1.5625 1.8125 -1.5625 1.8125 0 0 Z " fill="#0A0A0A" transform="translate(329,36)"/>
</svg>
